CSLSans-ThinItalic.ufo
<glyph name="exclam" format="2">
  <advance width="247"/>
  <unicode hex="0021"/>
  <outline>
    <contour>
      <point x="102" y="176" type="line"/>
      <point x="145" y="415" type="line"/>
      <point x="201" y="698" type="line"/>
      <point x="223" y="698" type="line"/>
      <point x="167" y="415" type="line"/>
      <point x="114" y="176" type="line"/>
    </contour>
    <contour>
      <point x="75" y="-5" type="qcurve" smooth="yes"/>
      <point x="49" y="-5"/>
      <point x="49" y="14" type="qcurve" smooth="yes"/>
      <point x="49" y="53"/>
      <point x="81" y="53" type="qcurve" smooth="yes"/>
      <point x="106" y="53"/>
      <point x="106" y="34" type="qcurve" smooth="yes"/>
      <point x="106" y="28"/>
      <point x="101" y="7"/>
      <point x="90" y="-5"/>
    </contour>
  </outline>
</glyph>
<glyph name="quotedbl" format="2">
  <advance width="373"/>
  <unicode hex="0022"/>
  <outline>
    <contour>
      <point x="167" y="490" type="line"/>
      <point x="217" y="740" type="line"/>
      <point x="197" y="740" type="line"/>
      <point x="147" y="490" type="line"/>
    </contour>
    <contour>
      <point x="320" y="490" type="line"/>
      <point x="370" y="740" type="line"/>
      <point x="350" y="740" type="line"/>
      <point x="300" y="490" type="line"/>
    </contour>
  </outline>
</glyph>
<glyph name="dollar" format="2">
  <advance width="536"/>
  <unicode hex="0024"/>
  <outline>
    <contour>
      <point x="269" y="372" type="line"/>
      <point x="330" y="678" type="line"/>
      <point x="317" y="679"/>
      <point x="303" y="679" type="qcurve"/>
      <point x="218" y="679"/>
      <point x="170" y="643" type="qcurve"/>
      <point x="122" y="606"/>
      <point x="121" y="528" type="qcurve"/>
      <point x="121" y="526" type="line"/>
      <point x="121" y="426"/>
      <point x="247" y="380" type="qcurve"/>
    </contour>
    <contour>
      <point x="218" y="20" type="line"/>
      <point x="229" y="19"/>
      <point x="241" y="19" type="qcurve"/>
      <point x="329" y="19"/>
      <point x="377" y="61" type="qcurve"/>
      <point x="415" y="93"/>
      <point x="423" y="149" type="qcurve"/>
      <point x="425" y="169"/>
      <point x="426" y="191" type="qcurve"/>
      <point x="426" y="238"/>
      <point x="399" y="273" type="qcurve"/>
      <point x="361" y="313"/>
      <point x="302" y="335" type="qcurve"/>
      <point x="283" y="343" type="line"/>
    </contour>
    <contour>
      <point x="287" y="364" type="line"/>
      <point x="335" y="344"/>
      <point x="368" y="326" type="qcurve"/>
      <point x="412" y="301"/>
      <point x="432" y="260" type="qcurve"/>
      <point x="449" y="229"/>
      <point x="449" y="189" type="qcurve"/>
      <point x="449" y="94"/>
      <point x="392" y="47" type="qcurve"/>
      <point x="335" y="0"/>
      <point x="241" y="0" type="qcurve"/>
      <point x="227" y="0"/>
      <point x="215" y="1" type="qcurve"/>
      <point x="198" y="-82" type="line"/>
      <point x="178" y="-82" type="line"/>
      <point x="195" y="3" type="line"/>
      <point x="81" y="18"/>
      <point x="14" y="110" type="qcurve"/>
      <point x="32" y="123" type="line"/>
      <point x="94" y="36"/>
      <point x="199" y="22" type="qcurve"/>
      <point x="264" y="350" type="line"/>
      <point x="238" y="361" type="line"/>
      <point x="143" y="400"/>
      <point x="117" y="453" type="qcurve"/>
      <point x="99" y="485"/>
      <point x="99" y="526" type="qcurve"/>
      <point x="99" y="613"/>
      <point x="156" y="655" type="qcurve"/>
      <point x="211" y="698"/>
      <point x="305" y="698" type="qcurve"/>
      <point x="320" y="698"/>
      <point x="333" y="697" type="qcurve"/>
      <point x="350" y="780" type="line"/>
      <point x="370" y="780" type="line"/>
      <point x="353" y="695" type="line"/>
      <point x="454" y="681"/>
      <point x="505" y="606" type="qcurve"/>
      <point x="487" y="594" type="line"/>
      <point x="441" y="663"/>
      <point x="349" y="676" type="qcurve"/>
    </contour>
  </outline>
</glyph>
<glyph name="percent" format="2">
  <advance width="883"/>
  <unicode hex="0025"/>
  <outline>
    <contour>
      <point x="171" y="0" type="line"/>
      <point x="776" y="698" type="line"/>
      <point x="752" y="698" type="line"/>
      <point x="147" y="0" type="line"/>
    </contour>
    <contour>
      <point x="240" y="327" type="qcurve"/>
      <point x="334" y="327"/>
      <point x="381" y="414" type="qcurve"/>
      <point x="418" y="485"/>
      <point x="418" y="578" type="qcurve"/>
      <point x="418" y="634"/>
      <point x="358" y="710"/>
      <point x="302" y="710" type="qcurve"/>
      <point x="207" y="710"/>
      <point x="162" y="624" type="qcurve"/>
      <point x="124" y="554"/>
      <point x="124" y="459" type="qcurve"/>
      <point x="124" y="404"/>
      <point x="185" y="327"/>
    </contour>
    <contour>
      <point x="241" y="344" type="qcurve"/>
      <point x="192" y="344"/>
      <point x="143" y="412"/>
      <point x="143" y="460" type="qcurve"/>
      <point x="143" y="484"/>
      <point x="147" y="509" type="qcurve"/>
      <point x="154" y="542" type="line"/>
      <point x="186" y="693"/>
      <point x="301" y="693" type="qcurve"/>
      <point x="351" y="693"/>
      <point x="399" y="625"/>
      <point x="399" y="577" type="qcurve"/>
      <point x="399" y="553"/>
      <point x="395" y="528" type="qcurve"/>
      <point x="388" y="495" type="line"/>
      <point x="357" y="344"/>
    </contour>
    <contour>
      <point x="619" y="-12" type="qcurve"/>
      <point x="713" y="-12"/>
      <point x="760" y="75" type="qcurve"/>
      <point x="797" y="146"/>
      <point x="797" y="239" type="qcurve"/>
      <point x="797" y="295"/>
      <point x="737" y="371"/>
      <point x="681" y="371" type="qcurve"/>
      <point x="586" y="371"/>
      <point x="541" y="285" type="qcurve"/>
      <point x="503" y="215"/>
      <point x="503" y="120" type="qcurve"/>
      <point x="503" y="65"/>
      <point x="564" y="-12"/>
    </contour>
    <contour>
      <point x="620" y="5" type="qcurve"/>
      <point x="571" y="5"/>
      <point x="522" y="73"/>
      <point x="522" y="121" type="qcurve"/>
      <point x="522" y="145"/>
      <point x="526" y="170" type="qcurve"/>
      <point x="533" y="203" type="line"/>
      <point x="565" y="354"/>
      <point x="680" y="354" type="qcurve"/>
      <point x="730" y="354"/>
      <point x="778" y="286"/>
      <point x="778" y="238" type="qcurve"/>
      <point x="778" y="214"/>
      <point x="774" y="189" type="qcurve"/>
      <point x="767" y="156" type="line"/>
      <point x="736" y="5"/>
    </contour>
  </outline>
</glyph>
<glyph name="ampersand" format="2">
  <advance width="677"/>
  <unicode hex="0026"/>
  <outline>
    <contour>
      <point x="229" y="-12" type="qcurve" smooth="yes"/>
      <point x="150" y="-12"/>
      <point x="49" y="60"/>
      <point x="49" y="136" type="qcurve" smooth="yes"/>
      <point x="49" y="201"/>
      <point x="94" y="255" type="qcurve"/>
      <point x="140" y="314"/>
      <point x="264" y="374" type="qcurve"/>
      <point x="198" y="461"/>
      <point x="198" y="524" type="qcurve" smooth="yes"/>
      <point x="198" y="601"/>
      <point x="300" y="710"/>
      <point x="391" y="710" type="qcurve" smooth="yes"/>
      <point x="461" y="710"/>
      <point x="535" y="644"/>
      <point x="535" y="593" type="qcurve" smooth="yes"/>
      <point x="535" y="527"/>
      <point x="486" y="483" type="qcurve" smooth="yes"/>
      <point x="434" y="436"/>
      <point x="294" y="368" type="qcurve"/>
      <point x="471" y="147" type="line"/>
      <point x="523" y="236"/>
      <point x="545" y="351" type="qcurve"/>
      <point x="654" y="351" type="line"/>
      <point x="650" y="331" type="line"/>
      <point x="560" y="331" type="line"/>
      <point x="537" y="220"/>
      <point x="483" y="132" type="qcurve"/>
      <point x="589" y="0" type="line"/>
      <point x="563" y="0" type="line"/>
      <point x="471" y="115" type="line"/>
      <point x="428" y="59"/>
      <point x="302" y="-12"/>
    </contour>
    <contour>
      <point x="282" y="383" type="qcurve"/>
      <point x="413" y="445"/>
      <point x="465" y="490" type="qcurve" smooth="yes"/>
      <point x="513" y="532"/>
      <point x="513" y="592" type="qcurve"/>
      <point x="509" y="691"/>
      <point x="387" y="691" type="qcurve" smooth="yes"/>
      <point x="322" y="691"/>
      <point x="280" y="657" type="qcurve" smooth="yes"/>
      <point x="232" y="618"/>
      <point x="223" y="546" type="qcurve" smooth="yes"/>
      <point x="222" y="540"/>
      <point x="220" y="530"/>
      <point x="220" y="524" type="qcurve" smooth="yes"/>
      <point x="220" y="465"/>
    </contour>
    <contour>
      <point x="233" y="8" type="qcurve" smooth="yes"/>
      <point x="303" y="8"/>
      <point x="419" y="75"/>
      <point x="459" y="130" type="qcurve"/>
      <point x="276" y="359" type="line"/>
      <point x="172" y="309"/>
      <point x="82" y="218"/>
      <point x="74" y="162" type="qcurve"/>
      <point x="72" y="154"/>
      <point x="71" y="141"/>
      <point x="71" y="133" type="qcurve" smooth="yes"/>
      <point x="71" y="68"/>
      <point x="160" y="8"/>
    </contour>
  </outline>
</glyph>
<glyph name="quotesingle" format="2">
  <advance width="220"/>
  <unicode hex="0027"/>
  <outline>
    <contour>
      <point x="147" y="490" type="line"/>
      <point x="197" y="740" type="line"/>
      <point x="217" y="740" type="line"/>
      <point x="167" y="490" type="line"/>
    </contour>
  </outline>
</glyph>
<glyph name="parenleft" format="2">
  <advance width="330"/>
  <unicode hex="0028"/>
  <outline>
    <contour>
      <point x="247" y="-138" type="line"/>
      <point x="184" y="-63"/>
      <point x="127" y="120"/>
      <point x="127" y="232" type="qcurve"/>
      <point x="127" y="276"/>
      <point x="134" y="319" type="qcurve"/>
      <point x="140" y="353" type="line"/>
      <point x="165" y="481"/>
      <point x="302" y="694"/>
      <point x="398" y="760" type="qcurve"/>
      <point x="372" y="760" type="line"/>
      <point x="261" y="681"/>
      <point x="186" y="541" type="qcurve"/>
      <point x="108" y="392"/>
      <point x="108" y="232" type="qcurve"/>
      <point x="108" y="114"/>
      <point x="171" y="-72"/>
      <point x="226" y="-138" type="qcurve"/>
    </contour>
  </outline>
</glyph>
<glyph name="parenright" format="2">
  <advance width="330"/>
  <unicode hex="0029"/>
  <outline>
    <contour>
      <point x="-49" y="-138" type="line"/>
      <point x="47" y="-71"/>
      <point x="184" y="142"/>
      <point x="209" y="269" type="qcurve" smooth="yes"/>
      <point x="215" y="303" type="line" smooth="yes"/>
      <point x="222" y="347"/>
      <point x="222" y="390" type="qcurve" smooth="yes"/>
      <point x="222" y="502"/>
      <point x="165" y="685"/>
      <point x="102" y="760" type="qcurve"/>
      <point x="123" y="760" type="line"/>
      <point x="178" y="695"/>
      <point x="241" y="508"/>
      <point x="241" y="390" type="qcurve" smooth="yes"/>
      <point x="241" y="230"/>
      <point x="163" y="81" type="qcurve"/>
      <point x="88" y="-59"/>
      <point x="-23" y="-138" type="qcurve"/>
    </contour>
  </outline>
</glyph>
<glyph name="comma" format="2">
  <advance width="240"/>
  <unicode hex="002C"/>
  <outline>
    <contour>
      <point x="-8" y="-147" type="line"/>
      <point x="30" y="-116"/>
      <point x="89" y="-27"/>
      <point x="99" y="15" type="qcurve"/>
      <point x="102" y="27"/>
      <point x="102" y="34" type="qcurve"/>
      <point x="102" y="53"/>
      <point x="77" y="53" type="qcurve"/>
      <point x="45" y="53"/>
      <point x="45" y="14" type="qcurve"/>
      <point x="45" y="-5"/>
      <point x="72" y="-5" type="qcurve"/>
      <point x="52" y="-76"/>
      <point x="-29" y="-147" type="qcurve"/>
    </contour>
  </outline>
</glyph>
<glyph name="period" format="2">
  <advance width="240"/>
  <unicode hex="002E"/>
  <outline>
    <contour>
      <point x="71" y="-5" type="qcurve"/>
      <point x="86" y="-5"/>
      <point x="97" y="7"/>
      <point x="102" y="28"/>
      <point x="102" y="34" type="qcurve"/>
      <point x="102" y="53"/>
      <point x="77" y="53" type="qcurve"/>
      <point x="45" y="53"/>
      <point x="45" y="14" type="qcurve"/>
      <point x="45" y="-5"/>
    </contour>
  </outline>
</glyph>
<glyph name="zero" format="2">
  <advance width="600"/>
  <unicode hex="0030"/>
  <outline>
    <contour>
      <point x="254" y="-12" type="qcurve"/>
      <point x="359" y="-12"/>
      <point x="431" y="71" type="qcurve"/>
      <point x="497" y="151"/>
      <point x="528" y="264" type="qcurve"/>
      <point x="557" y="379"/>
      <point x="557" y="479" type="qcurve"/>
      <point x="557" y="710"/>
      <point x="378" y="710" type="qcurve"/>
      <point x="273" y="710"/>
      <point x="202" y="627" type="qcurve"/>
      <point x="135" y="547"/>
      <point x="75" y="320"/>
      <point x="75" y="219" type="qcurve"/>
      <point x="75" y="-12"/>
    </contour>
    <contour>
      <point x="254" y="8" type="qcurve"/>
      <point x="167" y="8"/>
      <point x="96" y="119"/>
      <point x="96" y="219" type="qcurve"/>
      <point x="96" y="272"/>
      <point x="107" y="331" type="qcurve"/>
      <point x="119" y="390" type="line"/>
      <point x="149" y="535"/>
      <point x="282" y="690"/>
      <point x="378" y="690" type="qcurve"/>
      <point x="465" y="690"/>
      <point x="536" y="579"/>
      <point x="536" y="479" type="qcurve"/>
      <point x="536" y="427"/>
      <point x="525" y="367" type="qcurve"/>
      <point x="513" y="308" type="line"/>
      <point x="483" y="163"/>
      <point x="350" y="8"/>
    </contour>
  </outline>
</glyph>
<glyph name="one" format="2">
  <advance width="600"/>
  <unicode hex="0031"/>
  <outline>
    <contour>
      <point x="309" y="0" type="line"/>
      <point x="287" y="0" type="line"/>
      <point x="421" y="674" type="line"/>
      <point x="254" y="588" type="line"/>
      <point x="259" y="612" type="line"/>
      <point x="424" y="698" type="line"/>
      <point x="448" y="698" type="line"/>
    </contour>
  </outline>
</glyph>
<glyph name="two" format="2">
  <advance width="600"/>
  <unicode hex="0032"/>
  <outline>
    <contour>
      <point x="33" y="0" type="line"/>
      <point x="38" y="24" type="line"/>
      <point x="367" y="302" type="line"/>
      <point x="484" y="394"/>
      <point x="508" y="490" type="qcurve"/>
      <point x="517" y="531"/>
      <point x="517" y="556" type="qcurve" smooth="yes"/>
      <point x="517" y="615"/>
      <point x="445" y="690"/>
      <point x="368" y="690" type="qcurve" smooth="yes"/>
      <point x="223" y="690"/>
      <point x="165" y="551" type="qcurve"/>
      <point x="146" y="557" type="line"/>
      <point x="206" y="710"/>
      <point x="370" y="710" type="qcurve" smooth="yes"/>
      <point x="456" y="710"/>
      <point x="538" y="622"/>
      <point x="538" y="556" type="qcurve" smooth="yes"/>
      <point x="538" y="478"/>
      <point x="463" y="355"/>
      <point x="383" y="289" type="qcurve"/>
      <point x="63" y="20" type="line"/>
      <point x="470" y="20" type="line"/>
      <point x="467" y="0" type="line"/>
    </contour>
  </outline>
</glyph>
<glyph name="three" format="2">
  <advance width="600"/>
  <unicode hex="0033"/>
  <outline>
    <contour>
      <point x="245" y="-12" type="qcurve"/>
      <point x="349" y="-12"/>
      <point x="481" y="112"/>
      <point x="481" y="216" type="qcurve"/>
      <point x="481" y="277"/>
      <point x="414" y="356"/>
      <point x="361" y="363" type="qcurve"/>
      <point x="362" y="366" type="line"/>
      <point x="442" y="379"/>
      <point x="533" y="479"/>
      <point x="533" y="560" type="qcurve"/>
      <point x="533" y="632"/>
      <point x="435" y="710"/>
      <point x="363" y="710" type="qcurve"/>
      <point x="214" y="710"/>
      <point x="154" y="599" type="qcurve"/>
      <point x="172" y="590" type="line"/>
      <point x="201" y="642"/>
      <point x="290" y="690"/>
      <point x="360" y="690" type="qcurve"/>
      <point x="430" y="690"/>
      <point x="511" y="620"/>
      <point x="511" y="558" type="qcurve"/>
      <point x="511" y="543"/>
      <point x="504" y="512" type="qcurve"/>
      <point x="489" y="446"/>
      <point x="386" y="376"/>
      <point x="305" y="376" type="qcurve"/>
      <point x="211" y="376" type="line"/>
      <point x="207" y="356" type="line"/>
      <point x="302" y="356" type="line"/>
      <point x="381" y="356"/>
      <point x="459" y="279"/>
      <point x="459" y="216" type="qcurve"/>
      <point x="459" y="209"/>
      <point x="457" y="191"/>
      <point x="453" y="171"/>
      <point x="451" y="160" type="qcurve"/>
      <point x="436" y="89"/>
      <point x="328" y="8"/>
      <point x="246" y="8" type="qcurve"/>
      <point x="174" y="8"/>
      <point x="80" y="54"/>
      <point x="57" y="105" type="qcurve"/>
      <point x="40" y="95" type="line"/>
      <point x="87" y="-12"/>
    </contour>
  </outline>
</glyph>
<glyph name="five" format="2">
  <advance width="600"/>
  <unicode hex="0035"/>
  <outline>
    <contour>
      <point x="260" y="-12" type="qcurve"/>
      <point x="370" y="-12"/>
      <point x="505" y="125"/>
      <point x="505" y="245" type="qcurve"/>
      <point x="505" y="324"/>
      <point x="417" y="413"/>
      <point x="329" y="413" type="qcurve"/>
      <point x="221" y="413"/>
      <point x="161" y="343" type="qcurve"/>
      <point x="158" y="344" type="line"/>
      <point x="248" y="678" type="line"/>
      <point x="572" y="678" type="line"/>
      <point x="575" y="698" type="line"/>
      <point x="233" y="698" type="line"/>
      <point x="133" y="326" type="line"/>
      <point x="157" y="323" type="line"/>
      <point x="192" y="358"/>
      <point x="269" y="393"/>
      <point x="328" y="393" type="qcurve"/>
      <point x="408" y="393"/>
      <point x="483" y="314"/>
      <point x="483" y="245" type="qcurve"/>
      <point x="483" y="222"/>
      <point x="474" y="178" type="qcurve"/>
      <point x="459" y="99"/>
      <point x="353" y="8"/>
      <point x="259" y="8" type="qcurve"/>
      <point x="201" y="8"/>
      <point x="103" y="52"/>
      <point x="78" y="105" type="qcurve"/>
      <point x="61" y="95" type="line"/>
      <point x="86" y="40"/>
      <point x="194" y="-12"/>
    </contour>
  </outline>
</glyph>
<glyph name="six" format="2">
  <advance width="600"/>
  <unicode hex="0036"/>
  <outline>
    <contour>
      <point x="267" y="-12" type="qcurve" smooth="yes"/>
      <point x="171" y="-12"/>
      <point x="85" y="89"/>
      <point x="85" y="168" type="qcurve" smooth="yes"/>
      <point x="85" y="324"/>
      <point x="193" y="471" type="qcurve"/>
      <point x="297" y="610"/>
      <point x="460" y="698" type="qcurve"/>
      <point x="494" y="698" type="line"/>
      <point x="346" y="615"/>
      <point x="168" y="422"/>
      <point x="125" y="297" type="qcurve"/>
      <point x="128" y="296" type="line"/>
      <point x="194" y="416"/>
      <point x="339" y="416" type="qcurve" smooth="yes"/>
      <point x="421" y="416"/>
      <point x="518" y="325"/>
      <point x="518" y="245" type="qcurve" smooth="yes"/>
      <point x="518" y="137"/>
      <point x="377" y="-12"/>
    </contour>
    <contour>
      <point x="266" y="8" type="qcurve" smooth="yes"/>
      <point x="355" y="8"/>
      <point x="475" y="108"/>
      <point x="488" y="183" type="qcurve" smooth="yes"/>
      <point x="493" y="210" type="line"/>
      <point x="496" y="229"/>
      <point x="496" y="245" type="qcurve" smooth="yes"/>
      <point x="496" y="312"/>
      <point x="418" y="396"/>
      <point x="336" y="396" type="qcurve" smooth="yes"/>
      <point x="248" y="396"/>
      <point x="130" y="296"/>
      <point x="114" y="221" type="qcurve"/>
      <point x="106" y="170"/>
      <point x="106" y="160" type="qcurve" smooth="yes"/>
      <point x="106" y="93"/>
      <point x="184" y="8"/>
    </contour>
  </outline>
</glyph>
<glyph name="seven" format="2">
  <advance width="600"/>
  <unicode hex="0037"/>
  <outline>
    <contour>
      <point x="169" y="0" type="line"/>
      <point x="144" y="0" type="line"/>
      <point x="579" y="678" type="line"/>
      <point x="169" y="678" type="line"/>
      <point x="173" y="698" type="line"/>
      <point x="608" y="698" type="line"/>
      <point x="604" y="678" type="line"/>
    </contour>
  </outline>
</glyph>
<glyph name="nine" format="2">
  <advance width="600"/>
  <unicode hex="0039"/>
  <outline>
    <contour>
      <point x="172" y="0" type="line"/>
      <point x="334" y="88"/>
      <point x="439" y="228" type="qcurve"/>
      <point x="547" y="374"/>
      <point x="547" y="530" type="qcurve"/>
      <point x="547" y="610"/>
      <point x="461" y="710"/>
      <point x="365" y="710" type="qcurve"/>
      <point x="256" y="710"/>
      <point x="114" y="561"/>
      <point x="114" y="453" type="qcurve"/>
      <point x="114" y="373"/>
      <point x="211" y="282"/>
      <point x="293" y="282" type="qcurve"/>
      <point x="438" y="282"/>
      <point x="504" y="402" type="qcurve"/>
      <point x="507" y="401" type="line"/>
      <point x="463" y="276"/>
      <point x="287" y="83"/>
      <point x="138" y="0" type="qcurve"/>
    </contour>
    <contour>
      <point x="296" y="302" type="qcurve"/>
      <point x="214" y="302"/>
      <point x="136" y="386"/>
      <point x="136" y="453" type="qcurve"/>
      <point x="137" y="468" type="line"/>
      <point x="144" y="515" type="line"/>
      <point x="157" y="591"/>
      <point x="278" y="690"/>
      <point x="366" y="690" type="qcurve"/>
      <point x="448" y="690"/>
      <point x="526" y="606"/>
      <point x="526" y="539" type="qcurve"/>
      <point x="526" y="522"/>
      <point x="522" y="500" type="qcurve"/>
      <point x="518" y="477" type="line"/>
      <point x="503" y="402"/>
      <point x="385" y="302"/>
    </contour>
  </outline>
</glyph>
<glyph name="D" format="2">
  <advance width="648"/>
  <unicode hex="0044"/>
  <outline>
    <contour>
      <point x="282" y="0" type="line"/>
      <point x="367" y="0"/>
      <point x="492" y="81"/>
      <point x="572" y="216"/>
      <point x="610" y="383"/>
      <point x="610" y="468" type="qcurve"/>
      <point x="610" y="577"/>
      <point x="493" y="698"/>
      <point x="378" y="698" type="qcurve"/>
      <point x="193" y="698" type="line"/>
      <point x="55" y="0" type="line"/>
    </contour>
    <contour>
      <point x="282" y="20" type="qcurve"/>
      <point x="81" y="20" type="line"/>
      <point x="211" y="678" type="line"/>
      <point x="375" y="678" type="line"/>
      <point x="483" y="678"/>
      <point x="588" y="565"/>
      <point x="588" y="468" type="qcurve"/>
      <point x="588" y="408"/>
      <point x="567" y="303" type="qcurve"/>
      <point x="544" y="186"/>
      <point x="472" y="104" type="qcurve"/>
      <point x="395" y="20"/>
    </contour>
  </outline>
</glyph>
<glyph name="G" format="2">
  <advance width="540"/>
  <unicode hex="0047"/>
  <outline>
    <contour>
      <point x="61" y="218" type="qcurve"/>
      <point x="61" y="255"/>
      <point x="70" y="336"/>
      <point x="77" y="377" type="qcurve"/>
      <point x="89" y="441"/>
      <point x="139" y="559"/>
      <point x="216" y="654"/>
      <point x="326" y="710"/>
      <point x="399" y="710" type="qcurve"/>
      <point x="460" y="710"/>
      <point x="546" y="674"/>
      <point x="597" y="609"/>
      <point x="608" y="565" type="qcurve"/>
      <point x="587" y="559" type="line"/>
      <point x="577" y="599"/>
      <point x="531" y="658"/>
      <point x="455" y="689"/>
      <point x="397" y="689" type="qcurve"/>
      <point x="327" y="689"/>
      <point x="211" y="625"/>
      <point x="128" y="494"/>
      <point x="108" y="396" type="qcurve"/>
      <point x="95" y="336" type="line"/>
      <point x="88" y="302"/>
      <point x="84" y="242"/>
      <point x="84" y="218" type="qcurve"/>
      <point x="84" y="172"/>
      <point x="110" y="95"/>
      <point x="162" y="39"/>
      <point x="242" y="9"/>
      <point x="296" y="9" type="qcurve"/>
      <point x="378" y="9"/>
      <point x="507" y="101"/>
      <point x="527" y="201" type="qcurve"/>
      <point x="550" y="311" type="line"/>
      <point x="325" y="311" type="line"/>
      <point x="325" y="332" type="line"/>
      <point x="577" y="332" type="line"/>
      <point x="550" y="200" type="line"/>
      <point x="540" y="151"/>
      <point x="495" y="71"/>
      <point x="430" y="17"/>
      <point x="345" y="-12"/>
      <point x="296" y="-12" type="qcurve"/>
      <point x="238" y="-12"/>
      <point x="151" y="19"/>
      <point x="91" y="79"/>
      <point x="61" y="164"/>
    </contour>
  </outline>
</glyph>
<glyph name="J" format="2">
  <advance width="455"/>
  <unicode hex="004A"/>
  <outline>
    <contour>
      <point x="142" y="-12" type="qcurve" smooth="yes"/>
      <point x="69" y="-12"/>
      <point x="-9" y="61"/>
      <point x="-14" y="118" type="qcurve"/>
      <point x="6" y="123" type="line"/>
      <point x="12" y="65"/>
      <point x="84" y="8"/>
      <point x="142" y="8" type="qcurve" smooth="yes"/>
      <point x="285" y="8"/>
      <point x="322" y="184" type="qcurve"/>
      <point x="425" y="698" type="line"/>
      <point x="446" y="698" type="line"/>
      <point x="343" y="178" type="line"/>
      <point x="324" y="86"/>
      <point x="220" y="-12"/>
    </contour>
  </outline>
</glyph>
<glyph name="K" format="2">
  <advance width="564"/>
  <unicode hex="004B"/>
  <outline>
    <contour>
      <point x="497" y="0" type="line"/>
      <point x="307" y="402" type="line"/>
      <point x="633" y="698" type="line"/>
      <point x="604" y="698" type="line"/>
      <point x="368" y="485"/>
      <point x="134" y="271" type="qcurve"/>
      <point x="131" y="271" type="line"/>
      <point x="216" y="698" type="line"/>
      <point x="194" y="698" type="line"/>
      <point x="54" y="0" type="line"/>
      <point x="76" y="0" type="line"/>
      <point x="125" y="237" type="line"/>
      <point x="290" y="388" type="line"/>
      <point x="474" y="0" type="line"/>
    </contour>
  </outline>
</glyph>
<glyph name="P" format="2">
  <advance width="582"/>
  <unicode hex="0050"/>
  <outline>
    <contour>
      <point x="76" y="0" type="line"/>
      <point x="141" y="322" type="line"/>
      <point x="386" y="322" type="line"/>
      <point x="484" y="322"/>
      <point x="596" y="441"/>
      <point x="596" y="550" type="qcurve"/>
      <point x="596" y="614"/>
      <point x="518" y="698"/>
      <point x="445" y="698" type="qcurve"/>
      <point x="194" y="698" type="line"/>
      <point x="54" y="0" type="line"/>
    </contour>
    <contour>
      <point x="388" y="342" type="qcurve"/>
      <point x="145" y="342" type="line"/>
      <point x="211" y="678" type="line"/>
      <point x="443" y="678" type="line"/>
      <point x="511" y="678"/>
      <point x="543" y="641" type="qcurve"/>
      <point x="574" y="603"/>
      <point x="574" y="550" type="qcurve"/>
      <point x="574" y="522"/>
      <point x="565" y="481" type="qcurve"/>
      <point x="553" y="420"/>
      <point x="466" y="342"/>
    </contour>
  </outline>
</glyph>
<glyph name="S" format="2">
  <advance width="547"/>
  <unicode hex="0053"/>
  <outline>
    <contour>
      <point x="240" y="-12" type="qcurve"/>
      <point x="338" y="-12"/>
      <point x="455" y="85"/>
      <point x="455" y="184" type="qcurve"/>
      <point x="455" y="225"/>
      <point x="438" y="257" type="qcurve"/>
      <point x="411" y="313"/>
      <point x="313" y="354" type="qcurve"/>
      <point x="247" y="381" type="line"/>
      <point x="115" y="429"/>
      <point x="116" y="534" type="qcurve"/>
      <point x="118" y="615"/>
      <point x="216" y="690"/>
      <point x="305" y="690" type="qcurve"/>
      <point x="435" y="690"/>
      <point x="495" y="602" type="qcurve"/>
      <point x="513" y="615" type="line"/>
      <point x="449" y="710"/>
      <point x="307" y="710" type="qcurve"/>
      <point x="210" y="710"/>
      <point x="93" y="622"/>
      <point x="93" y="532" type="qcurve"/>
      <point x="93" y="490"/>
      <point x="112" y="457" type="qcurve"/>
      <point x="139" y="401"/>
      <point x="237" y="361" type="qcurve"/>
      <point x="303" y="335" type="line"/>
      <point x="364" y="312"/>
      <point x="404" y="270" type="qcurve"/>
      <point x="432" y="234"/>
      <point x="432" y="186" type="qcurve"/>
      <point x="430" y="153" type="line"/>
      <point x="429" y="142" type="line"/>
      <point x="420" y="84"/>
      <point x="381" y="51" type="qcurve"/>
      <point x="331" y="8"/>
      <point x="240" y="8" type="qcurve"/>
      <point x="101" y="8"/>
      <point x="24" y="115" type="qcurve"/>
      <point x="6" y="102" type="line"/>
      <point x="89" y="-12"/>
    </contour>
  </outline>
</glyph>
<glyph name="X" format="2">
  <advance width="552"/>
  <unicode hex="0058"/>
  <outline>
    <contour>
      <point x="449" y="0" type="line"/>
      <point x="292" y="336" type="line"/>
      <point x="289" y="336" type="line"/>
      <point x="-1" y="0" type="line"/>
      <point x="-29" y="0" type="line"/>
      <point x="279" y="356" type="line"/>
      <point x="118" y="698" type="line"/>
      <point x="142" y="698" type="line"/>
      <point x="294" y="375" type="line"/>
      <point x="297" y="375" type="line"/>
      <point x="574" y="698" type="line"/>
      <point x="602" y="698" type="line"/>
      <point x="306" y="355" type="line"/>
      <point x="473" y="0" type="line"/>
    </contour>
  </outline>
</glyph>
<glyph name="grave" format="2">
  <advance width="600"/>
  <unicode hex="0060"/>
  <outline>
    <contour>
      <point x="235" y="740" type="line"/>
      <point x="254" y="751" type="line"/>
      <point x="335" y="596" type="line"/>
      <point x="319" y="587" type="line"/>
    </contour>
  </outline>
</glyph>
<glyph name="b" format="2">
  <advance width="560"/>
  <unicode hex="0062"/>
  <outline>
    <contour>
      <point x="251" y="-12" type="qcurve" smooth="yes"/>
      <point x="187" y="-12"/>
      <point x="109" y="45"/>
      <point x="95" y="93" type="qcurve"/>
      <point x="92" y="93" type="line"/>
      <point x="74" y="0" type="line"/>
      <point x="53" y="0" type="line"/>
      <point x="201" y="740" type="line"/>
      <point x="222" y="740" type="line"/>
      <point x="153" y="395" type="line"/>
      <point x="156" y="395" type="line"/>
      <point x="188" y="452"/>
      <point x="273" y="518"/>
      <point x="337" y="518" type="qcurve" smooth="yes"/>
      <point x="415" y="518"/>
      <point x="500" y="410"/>
      <point x="500" y="330" type="qcurve" smooth="yes"/>
      <point x="500" y="192"/>
      <point x="436" y="90" type="qcurve"/>
      <point x="404" y="42"/>
      <point x="311" y="-12"/>
    </contour>
    <contour>
      <point x="251" y="7" type="qcurve" smooth="yes"/>
      <point x="337" y="7"/>
      <point x="446" y="124"/>
      <point x="466" y="224" type="qcurve" smooth="yes"/>
      <point x="473" y="259" type="line" smooth="yes"/>
      <point x="479" y="288"/>
      <point x="479" y="330" type="qcurve" smooth="yes"/>
      <point x="479" y="401"/>
      <point x="445" y="449" type="qcurve"/>
      <point x="406" y="499"/>
      <point x="337" y="499" type="qcurve" smooth="yes"/>
      <point x="273" y="499"/>
      <point x="227" y="459" type="qcurve"/>
      <point x="163" y="410"/>
      <point x="134" y="302" type="qcurve"/>
      <point x="106" y="160" type="line" smooth="yes"/>
      <point x="103" y="147"/>
      <point x="103" y="134" type="qcurve" smooth="yes"/>
      <point x="103" y="95"/>
      <point x="129" y="59" type="qcurve" smooth="yes"/>
      <point x="167" y="7"/>
    </contour>
  </outline>
</glyph>
<glyph name="e" format="2">
  <advance width="505"/>
  <unicode hex="0065"/>
  <outline>
    <contour>
      <point x="237" y="-12" type="qcurve"/>
      <point x="371" y="-12"/>
      <point x="445" y="124" type="qcurve"/>
      <point x="426" y="132" type="line"/>
      <point x="362" y="7"/>
      <point x="237" y="7" type="qcurve"/>
      <point x="159" y="7"/>
      <point x="82" y="92"/>
      <point x="82" y="189" type="qcurve"/>
      <point x="82" y="201"/>
      <point x="85" y="233" type="qcurve"/>
      <point x="317" y="239"/>
      <point x="403" y="293" type="qcurve"/>
      <point x="466" y="332"/>
      <point x="466" y="395" type="qcurve"/>
      <point x="466" y="452"/>
      <point x="380" y="518"/>
      <point x="308" y="518" type="qcurve"/>
      <point x="253" y="518"/>
      <point x="163" y="467"/>
      <point x="130" y="422" type="qcurve"/>
      <point x="61" y="325"/>
      <point x="61" y="187" type="qcurve"/>
      <point x="61" y="-12"/>
    </contour>
    <contour>
      <point x="87" y="252" type="qcurve"/>
      <point x="90" y="269" type="line"/>
      <point x="109" y="371"/>
      <point x="222" y="499"/>
      <point x="306" y="499" type="qcurve"/>
      <point x="379" y="499"/>
      <point x="444" y="441"/>
      <point x="444" y="395" type="qcurve"/>
      <point x="444" y="335"/>
      <point x="378" y="300" type="qcurve"/>
      <point x="305" y="258"/>
    </contour>
  </outline>
</glyph>
<glyph name="f" format="2">
  <advance width="282"/>
  <unicode hex="0066"/>
  <outline>
    <contour>
      <point x="-62" y="-200" type="line"/>
      <point x="-58" y="-181" type="line"/>
      <point x="37" y="-181" type="line"/>
      <point x="169" y="487" type="line"/>
      <point x="69" y="487" type="line"/>
      <point x="73" y="506" type="line"/>
      <point x="173" y="506" type="line"/>
      <point x="212" y="707" type="line"/>
      <point x="215" y="727"/>
      <point x="230" y="740"/>
      <point x="251" y="740" type="qcurve" smooth="yes"/>
      <point x="345" y="740" type="line"/>
      <point x="341" y="721" type="line"/>
      <point x="236" y="721" type="line"/>
      <point x="194" y="506" type="line"/>
      <point x="298" y="506" type="line"/>
      <point x="294" y="487" type="line"/>
      <point x="190" y="487" type="line"/>
      <point x="61" y="-167" type="line"/>
      <point x="58" y="-187"/>
      <point x="43" y="-200"/>
      <point x="22" y="-200" type="qcurve" smooth="yes"/>
    </contour>
  </outline>
</glyph>
<glyph name="j" format="2">
  <advance width="229"/>
  <unicode hex="006A"/>
  <outline>
    <contour>
      <point x="0" y="-200" type="line"/>
      <point x="21" y="-200"/>
      <point x="38" y="-187"/>
      <point x="41" y="-167" type="qcurve"/>
      <point x="175" y="506" type="line"/>
      <point x="154" y="506" type="line"/>
      <point x="17" y="-181" type="line"/>
      <point x="-68" y="-181" type="line"/>
      <point x="-72" y="-200" type="line"/>
    </contour>
    <contour>
      <point x="199" y="673" type="qcurve"/>
      <point x="225" y="673"/>
      <point x="226" y="692" type="qcurve"/>
      <point x="227" y="696"/>
      <point x="228" y="702"/>
      <point x="228" y="706" type="qcurve"/>
      <point x="228" y="722"/>
      <point x="208" y="722" type="qcurve"/>
      <point x="183" y="722"/>
      <point x="181" y="703" type="qcurve"/>
      <point x="180" y="699"/>
      <point x="179" y="693"/>
      <point x="179" y="689" type="qcurve"/>
      <point x="179" y="673"/>
    </contour>
  </outline>
</glyph>
<glyph name="k" format="2">
  <advance width="479"/>
  <unicode hex="006B"/>
  <outline>
    <contour>
      <point x="431" y="0" type="line"/>
      <point x="435" y="19" type="line"/>
      <point x="378" y="19" type="line"/>
      <point x="237" y="292" type="line"/>
      <point x="480" y="506" type="line"/>
      <point x="453" y="506" type="line"/>
      <point x="234" y="315" type="line"/>
      <point x="122" y="221" type="line"/>
      <point x="118" y="221" type="line"/>
      <point x="222" y="740" type="line"/>
      <point x="201" y="740" type="line"/>
      <point x="53" y="0" type="line"/>
      <point x="74" y="0" type="line"/>
      <point x="112" y="189" type="line"/>
      <point x="221" y="280" type="line"/>
      <point x="354" y="21" type="line"/>
      <point x="360" y="10"/>
      <point x="372" y="0"/>
      <point x="383" y="0" type="qcurve"/>
    </contour>
  </outline>
</glyph>
<glyph name="l" format="2">
  <advance width="235"/>
  <unicode hex="006C"/>
  <outline>
    <contour>
      <point x="159" y="0" type="line"/>
      <point x="163" y="19" type="line"/>
      <point x="78" y="19" type="line"/>
      <point x="222" y="740" type="line"/>
      <point x="201" y="740" type="line"/>
      <point x="58" y="25"/>
      <point x="58" y="19" type="qcurve"/>
      <point x="58" y="0"/>
      <point x="81" y="0" type="qcurve"/>
    </contour>
  </outline>
</glyph>
<glyph name="m" format="2">
  <advance width="843"/>
  <unicode hex="006D"/>
  <outline>
    <contour>
      <point x="776" y="0" type="line"/>
      <point x="780" y="19" type="line"/>
      <point x="695" y="19" type="line"/>
      <point x="755" y="321" type="line"/>
      <point x="762" y="356"/>
      <point x="762" y="386" type="qcurve"/>
      <point x="762" y="449"/>
      <point x="697" y="518"/>
      <point x="636" y="518" type="qcurve"/>
      <point x="573" y="518"/>
      <point x="482" y="452"/>
      <point x="456" y="394" type="qcurve"/>
      <point x="453" y="394" type="line"/>
      <point x="452" y="447"/>
      <point x="389" y="518"/>
      <point x="327" y="518" type="qcurve"/>
      <point x="215" y="518"/>
      <point x="157" y="401" type="qcurve"/>
      <point x="154" y="401" type="line"/>
      <point x="175" y="506" type="line"/>
      <point x="154" y="506" type="line"/>
      <point x="53" y="0" type="line"/>
      <point x="74" y="0" type="line"/>
      <point x="136" y="312" type="line"/>
      <point x="158" y="396"/>
      <point x="199" y="437" type="qcurve"/>
      <point x="255" y="499"/>
      <point x="324" y="499" type="qcurve"/>
      <point x="432" y="499"/>
      <point x="432" y="383" type="qcurve"/>
      <point x="432" y="361"/>
      <point x="425" y="320" type="qcurve"/>
      <point x="361" y="0" type="line"/>
      <point x="382" y="0" type="line"/>
      <point x="446" y="319" type="line"/>
      <point x="465" y="398"/>
      <point x="504" y="437" type="qcurve"/>
      <point x="557" y="499"/>
      <point x="633" y="499" type="qcurve"/>
      <point x="740" y="499"/>
      <point x="741" y="383" type="qcurve"/>
      <point x="741" y="361"/>
      <point x="734" y="320" type="qcurve"/>
      <point x="675" y="25"/>
      <point x="675" y="19" type="qcurve"/>
      <point x="675" y="0"/>
      <point x="698" y="0" type="qcurve"/>
    </contour>
  </outline>
</glyph>
<glyph name="p" format="2">
  <advance width="561"/>
  <unicode hex="0070"/>
  <outline>
    <contour>
      <point x="35" y="-200" type="line"/>
      <point x="93" y="93" type="line"/>
      <point x="96" y="93" type="line"/>
      <point x="110" y="45"/>
      <point x="188" y="-12"/>
      <point x="252" y="-12" type="qcurve"/>
      <point x="312" y="-12"/>
      <point x="405" y="42"/>
      <point x="437" y="90" type="qcurve"/>
      <point x="501" y="192"/>
      <point x="501" y="330" type="qcurve"/>
      <point x="501" y="410"/>
      <point x="416" y="518"/>
      <point x="338" y="518" type="qcurve"/>
      <point x="274" y="518"/>
      <point x="189" y="452"/>
      <point x="157" y="395" type="qcurve"/>
      <point x="154" y="395" type="line"/>
      <point x="176" y="506" type="line"/>
      <point x="155" y="506" type="line"/>
      <point x="14" y="-200" type="line"/>
    </contour>
    <contour>
      <point x="252" y="7" type="qcurve"/>
      <point x="168" y="7"/>
      <point x="130" y="59" type="qcurve"/>
      <point x="104" y="95"/>
      <point x="104" y="134" type="qcurve"/>
      <point x="104" y="147"/>
      <point x="107" y="160" type="qcurve"/>
      <point x="135" y="302" type="line"/>
      <point x="164" y="410"/>
      <point x="228" y="459" type="qcurve"/>
      <point x="274" y="499"/>
      <point x="338" y="499" type="qcurve"/>
      <point x="407" y="499"/>
      <point x="446" y="449" type="qcurve"/>
      <point x="480" y="401"/>
      <point x="480" y="330" type="qcurve"/>
      <point x="480" y="288"/>
      <point x="474" y="259" type="qcurve"/>
      <point x="467" y="224" type="line"/>
      <point x="447" y="124"/>
      <point x="338" y="7"/>
    </contour>
  </outline>
</glyph>
<glyph name="q" format="2">
  <advance width="560"/>
  <unicode hex="0071"/>
  <outline>
    <contour>
      <point x="345" y="-200" type="line"/>
      <point x="407" y="111" type="line"/>
      <point x="404" y="111" type="line"/>
      <point x="372" y="54"/>
      <point x="287" y="-12"/>
      <point x="223" y="-12" type="qcurve" smooth="yes"/>
      <point x="145" y="-12"/>
      <point x="60" y="97"/>
      <point x="60" y="176" type="qcurve" smooth="yes"/>
      <point x="60" y="314"/>
      <point x="125" y="416" type="qcurve"/>
      <point x="192" y="518"/>
      <point x="309" y="518" type="qcurve" smooth="yes"/>
      <point x="373" y="518"/>
      <point x="451" y="461"/>
      <point x="465" y="413" type="qcurve"/>
      <point x="468" y="413" type="line"/>
      <point x="486" y="506" type="line"/>
      <point x="507" y="506" type="line"/>
      <point x="366" y="-200" type="line"/>
    </contour>
    <contour>
      <point x="223" y="7" type="qcurve" smooth="yes"/>
      <point x="288" y="7"/>
      <point x="333" y="47" type="qcurve"/>
      <point x="398" y="96"/>
      <point x="426" y="204" type="qcurve"/>
      <point x="454" y="346" type="line" smooth="yes"/>
      <point x="457" y="359"/>
      <point x="457" y="372" type="qcurve" smooth="yes"/>
      <point x="457" y="411"/>
      <point x="431" y="448" type="qcurve"/>
      <point x="393" y="499"/>
      <point x="309" y="499" type="qcurve" smooth="yes"/>
      <point x="223" y="499"/>
      <point x="113" y="382"/>
      <point x="94" y="282" type="qcurve" smooth="yes"/>
      <point x="87" y="247" type="line" smooth="yes"/>
      <point x="81" y="218"/>
      <point x="81" y="176" type="qcurve" smooth="yes"/>
      <point x="81" y="106"/>
      <point x="153" y="7"/>
    </contour>
  </outline>
</glyph>
<glyph name="r" format="2">
  <advance width="338"/>
  <unicode hex="0072"/>
  <outline>
    <contour>
      <point x="74" y="0" type="line"/>
      <point x="132" y="293" type="line"/>
      <point x="149" y="375"/>
      <point x="199" y="431" type="qcurve"/>
      <point x="252" y="487"/>
      <point x="325" y="487" type="qcurve"/>
      <point x="354" y="487" type="line"/>
      <point x="358" y="506" type="line"/>
      <point x="328" y="506" type="line"/>
      <point x="258" y="506"/>
      <point x="220" y="474" type="qcurve"/>
      <point x="179" y="443"/>
      <point x="155" y="392" type="qcurve"/>
      <point x="152" y="392" type="line"/>
      <point x="175" y="506" type="line"/>
      <point x="154" y="506" type="line"/>
      <point x="53" y="0" type="line"/>
    </contour>
  </outline>
</glyph>
<glyph name="s" format="2">
  <advance width="462"/>
  <unicode hex="0073"/>
  <outline>
    <contour>
      <point x="210" y="-12" type="qcurve"/>
      <point x="288" y="-12"/>
      <point x="378" y="59"/>
      <point x="378" y="131" type="qcurve"/>
      <point x="378" y="219"/>
      <point x="259" y="260" type="qcurve"/>
      <point x="217" y="276" type="line"/>
      <point x="113" y="314"/>
      <point x="113" y="383" type="qcurve"/>
      <point x="113" y="444"/>
      <point x="190" y="499"/>
      <point x="253" y="499" type="qcurve"/>
      <point x="313" y="499"/>
      <point x="380" y="458"/>
      <point x="403" y="431" type="qcurve"/>
      <point x="419" y="445" type="line"/>
      <point x="361" y="518"/>
      <point x="252" y="518" type="qcurve"/>
      <point x="185" y="518"/>
      <point x="91" y="454"/>
      <point x="91" y="385" type="qcurve"/>
      <point x="91" y="298"/>
      <point x="209" y="257" type="qcurve"/>
      <point x="251" y="241" type="line"/>
      <point x="356" y="204"/>
      <point x="356" y="131" type="qcurve"/>
      <point x="356" y="119"/>
      <point x="354" y="98" type="qcurve"/>
      <point x="338" y="10"/>
      <point x="210" y="7" type="qcurve"/>
      <point x="98" y="7"/>
      <point x="41" y="93" type="qcurve"/>
      <point x="23" y="81" type="line"/>
      <point x="58" y="31"/>
      <point x="149" y="-12"/>
    </contour>
  </outline>
</glyph>
<glyph name="t" format="2">
  <advance width="302"/>
  <unicode hex="0074"/>
  <outline>
    <contour>
      <point x="206" y="0" type="line"/>
      <point x="210" y="19" type="line"/>
      <point x="97" y="19" type="line"/>
      <point x="190" y="487" type="line"/>
      <point x="311" y="487" type="line"/>
      <point x="315" y="506" type="line"/>
      <point x="194" y="506" type="line"/>
      <point x="223" y="650" type="line"/>
      <point x="202" y="650" type="line"/>
      <point x="178" y="531" type="line"/>
      <point x="176" y="517"/>
      <point x="164" y="506"/>
      <point x="150" y="506" type="qcurve"/>
      <point x="78" y="506" type="line"/>
      <point x="74" y="487" type="line"/>
      <point x="169" y="487" type="line"/>
      <point x="77" y="25"/>
      <point x="77" y="19" type="qcurve"/>
      <point x="77" y="0"/>
      <point x="100" y="0" type="qcurve"/>
    </contour>
  </outline>
</glyph>
<glyph name="z" format="2">
  <advance width="430"/>
  <unicode hex="007A"/>
  <outline>
    <contour>
      <point x="346" y="0" type="line"/>
      <point x="350" y="19" type="line"/>
      <point x="28" y="19" type="line"/>
      <point x="426" y="486" type="line"/>
      <point x="430" y="506" type="line"/>
      <point x="96" y="506" type="line"/>
      <point x="92" y="487" type="line"/>
      <point x="402" y="487" type="line"/>
      <point x="3" y="20" type="line"/>
      <point x="-1" y="0" type="line"/>
    </contour>
  </outline>
</glyph>
<glyph name="braceleft" format="2">
  <advance width="316"/>
  <unicode hex="007B"/>
  <outline>
    <contour>
      <point x="71" y="-138" type="line" smooth="yes"/>
      <point x="50" y="-138"/>
      <point x="50" y="-120" type="qcurve" smooth="yes"/>
      <point x="50" y="-117"/>
      <point x="114" y="201" type="qcurve" smooth="yes"/>
      <point x="117" y="216"/>
      <point x="117" y="228" type="qcurve" smooth="yes"/>
      <point x="117" y="262"/>
      <point x="72" y="287"/>
      <point x="34" y="287" type="qcurve"/>
      <point x="44" y="335" type="line"/>
      <point x="142" y="335"/>
      <point x="158" y="421" type="qcurve"/>
      <point x="221" y="734" type="line" smooth="yes"/>
      <point x="226" y="760"/>
      <point x="251" y="760" type="qcurve" smooth="yes"/>
      <point x="351" y="760" type="line"/>
      <point x="347" y="742" type="line"/>
      <point x="242" y="742" type="line"/>
      <point x="178" y="421" type="line" smooth="yes"/>
      <point x="168" y="371"/>
      <point x="104" y="319"/>
      <point x="59" y="319" type="qcurve"/>
      <point x="55" y="303" type="line"/>
      <point x="57" y="303" type="line"/>
      <point x="137" y="303"/>
      <point x="137" y="230" type="qcurve" smooth="yes"/>
      <point x="137" y="217"/>
      <point x="134" y="201" type="qcurve" smooth="yes"/>
      <point x="70" y="-120" type="line"/>
      <point x="175" y="-120" type="line"/>
      <point x="171" y="-138" type="line"/>
    </contour>
  </outline>
</glyph>
<glyph name="braceright" format="2">
  <advance width="316"/>
  <unicode hex="007D"/>
  <outline>
    <contour>
      <point x="88" y="-138" type="line"/>
      <point x="114" y="-138"/>
      <point x="118" y="-112" type="qcurve"/>
      <point x="181" y="201" type="line"/>
      <point x="198" y="287"/>
      <point x="295" y="287" type="qcurve"/>
      <point x="305" y="335" type="line"/>
      <point x="267" y="335"/>
      <point x="222" y="360"/>
      <point x="222" y="394" type="qcurve"/>
      <point x="222" y="406"/>
      <point x="225" y="421" type="qcurve"/>
      <point x="289" y="739"/>
      <point x="289" y="742" type="qcurve"/>
      <point x="289" y="760"/>
      <point x="268" y="760" type="qcurve"/>
      <point x="168" y="760" type="line"/>
      <point x="164" y="742" type="line"/>
      <point x="269" y="742" type="line"/>
      <point x="205" y="421" type="line"/>
      <point x="202" y="404"/>
      <point x="202" y="392" type="qcurve"/>
      <point x="202" y="319"/>
      <point x="284" y="319" type="qcurve"/>
      <point x="280" y="303" type="line"/>
      <point x="235" y="303"/>
      <point x="171" y="251"/>
      <point x="161" y="201" type="qcurve"/>
      <point x="97" y="-120" type="line"/>
      <point x="-8" y="-120" type="line"/>
      <point x="-12" y="-138" type="line"/>
    </contour>
  </outline>
</glyph>
<glyph name="asciitilde" format="2">
  <advance width="600"/>
  <unicode hex="007E"/>
  <outline>
    <contour>
      <point x="425" y="256" type="qcurve"/>
      <point x="488" y="256"/>
      <point x="546" y="304" type="qcurve"/>
      <point x="534" y="318" type="line"/>
      <point x="506" y="295"/>
      <point x="458" y="276"/>
      <point x="429" y="276" type="qcurve"/>
      <point x="401" y="276"/>
      <point x="355" y="293"/>
      <point x="316" y="312" type="qcurve"/>
      <point x="279" y="330" type="line"/>
      <point x="272" y="333" type="line"/>
      <point x="233" y="352"/>
      <point x="195" y="352" type="qcurve"/>
      <point x="132" y="352"/>
      <point x="74" y="304" type="qcurve"/>
      <point x="86" y="290" type="line"/>
      <point x="115" y="313"/>
      <point x="162" y="332"/>
      <point x="191" y="332" type="qcurve"/>
      <point x="217" y="332"/>
      <point x="265" y="315"/>
      <point x="304" y="296" type="qcurve"/>
      <point x="380" y="256"/>
    </contour>
  </outline>
</glyph>
<glyph name="exclamdown" format="2">
  <advance width="247"/>
  <unicode hex="00A1"/>
  <outline>
    <contour>
      <point x="166" y="453" type="qcurve" smooth="yes"/>
      <point x="141" y="453"/>
      <point x="141" y="472" type="qcurve" smooth="yes"/>
      <point x="141" y="478"/>
      <point x="146" y="499"/>
      <point x="157" y="511"/>
      <point x="172" y="511" type="qcurve" smooth="yes"/>
      <point x="198" y="511"/>
      <point x="198" y="492" type="qcurve" smooth="yes"/>
      <point x="198" y="453"/>
    </contour>
    <contour>
      <point x="24" y="-192" type="line"/>
      <point x="80" y="91" type="line"/>
      <point x="133" y="330" type="line"/>
      <point x="145" y="330" type="line"/>
      <point x="102" y="91" type="line"/>
      <point x="46" y="-192" type="line"/>
    </contour>
  </outline>
</glyph>
<glyph name="cent" format="2">
  <advance width="488"/>
  <unicode hex="00A2"/>
  <outline>
    <contour>
      <point x="198" y="-114" type="line"/>
      <point x="218" y="-12" type="line"/>
      <point x="281" y="-12"/>
      <point x="378" y="48"/>
      <point x="422" y="114" type="qcurve"/>
      <point x="405" y="123" type="line"/>
      <point x="368" y="66"/>
      <point x="281" y="7"/>
      <point x="222" y="7" type="qcurve"/>
      <point x="320" y="498" type="line"/>
      <point x="408" y="487"/>
      <point x="432" y="398" type="qcurve"/>
      <point x="451" y="403" type="line"/>
      <point x="428" y="499"/>
      <point x="323" y="517" type="qcurve"/>
      <point x="344" y="620" type="line"/>
      <point x="324" y="620" type="line"/>
      <point x="304" y="518" type="line"/>
      <point x="187" y="518"/>
      <point x="61" y="326"/>
      <point x="61" y="186" type="qcurve"/>
      <point x="61" y="108"/>
      <point x="129" y="-1"/>
      <point x="199" y="-11" type="qcurve"/>
      <point x="178" y="-114" type="line"/>
    </contour>
    <contour>
      <point x="202" y="8" type="line"/>
      <point x="138" y="17"/>
      <point x="81" y="116"/>
      <point x="81" y="186" type="qcurve"/>
      <point x="81" y="205"/>
      <point x="84" y="233"/>
      <point x="96" y="297" type="qcurve"/>
      <point x="114" y="390"/>
      <point x="222" y="499"/>
      <point x="300" y="499" type="qcurve"/>
    </contour>
  </outline>
</glyph>
<glyph name="sterling" format="2">
  <advance width="579"/>
  <unicode hex="00A3"/>
  <outline>
    <contour>
      <point x="463" y="0" type="line"/>
      <point x="467" y="20" type="line"/>
      <point x="63" y="20" type="line"/>
      <point x="64" y="22" type="line"/>
      <point x="131" y="54"/>
      <point x="208" y="179"/>
      <point x="208" y="260" type="qcurve"/>
      <point x="208" y="286"/>
      <point x="205" y="311" type="qcurve"/>
      <point x="412" y="311" type="line"/>
      <point x="416" y="331" type="line"/>
      <point x="203" y="331" type="line"/>
      <point x="189" y="419"/>
      <point x="189" y="497" type="qcurve"/>
      <point x="189" y="589"/>
      <point x="305" y="690"/>
      <point x="389" y="690" type="qcurve"/>
      <point x="450" y="690"/>
      <point x="534" y="639"/>
      <point x="557" y="582" type="qcurve"/>
      <point x="577" y="592" type="line"/>
      <point x="528" y="710"/>
      <point x="390" y="710" type="qcurve"/>
      <point x="299" y="710"/>
      <point x="233" y="654" type="qcurve"/>
      <point x="167" y="595"/>
      <point x="167" y="497" type="qcurve"/>
      <point x="167" y="419"/>
      <point x="181" y="331" type="qcurve"/>
      <point x="90" y="331" type="line"/>
      <point x="86" y="311" type="line"/>
      <point x="183" y="311" type="line"/>
      <point x="186" y="286"/>
      <point x="186" y="260" type="qcurve"/>
      <point x="186" y="98"/>
      <point x="38" y="25" type="qcurve"/>
      <point x="33" y="0" type="line"/>
    </contour>
  </outline>
</glyph>
<glyph name="section" format="2">
  <advance width="564"/>
  <unicode hex="00A7"/>
  <outline>
    <contour>
      <point x="200" y="-154" type="qcurve"/>
      <point x="284" y="-154"/>
      <point x="390" y="-73"/>
      <point x="390" y="3" type="qcurve"/>
      <point x="390" y="81"/>
      <point x="329" y="120" type="qcurve"/>
      <point x="329" y="123" type="line"/>
      <point x="399" y="144"/>
      <point x="477" y="221"/>
      <point x="477" y="283" type="qcurve"/>
      <point x="477" y="336"/>
      <point x="424" y="391"/>
      <point x="369" y="408" type="qcurve"/>
      <point x="293" y="433" type="line"/>
      <point x="247" y="447"/>
      <point x="197" y="502"/>
      <point x="197" y="553" type="qcurve"/>
      <point x="197" y="621"/>
      <point x="287" y="691"/>
      <point x="365" y="691" type="qcurve"/>
      <point x="449" y="691"/>
      <point x="498" y="643" type="qcurve"/>
      <point x="512" y="657" type="line"/>
      <point x="459" y="710"/>
      <point x="366" y="710" type="qcurve"/>
      <point x="282" y="710"/>
      <point x="176" y="630"/>
      <point x="176" y="553" type="qcurve"/>
      <point x="176" y="475"/>
      <point x="237" y="436" type="qcurve"/>
      <point x="237" y="433" type="line"/>
      <point x="167" y="412"/>
      <point x="89" y="335"/>
      <point x="89" y="273" type="qcurve"/>
      <point x="89" y="220"/>
      <point x="142" y="165"/>
      <point x="197" y="148" type="qcurve"/>
      <point x="273" y="123" type="line"/>
      <point x="319" y="109"/>
      <point x="369" y="54"/>
      <point x="369" y="3" type="qcurve"/>
      <point x="369" y="-65"/>
      <point x="279" y="-135"/>
      <point x="201" y="-135" type="qcurve"/>
      <point x="117" y="-135"/>
      <point x="68" y="-87" type="qcurve"/>
      <point x="54" y="-101" type="line"/>
      <point x="107" y="-154"/>
    </contour>
    <contour>
      <point x="310" y="130" type="qcurve"/>
      <point x="303" y="133"/>
      <point x="205" y="165" type="qcurve"/>
      <point x="152" y="181"/>
      <point x="110" y="229"/>
      <point x="110" y="273" type="qcurve"/>
      <point x="110" y="332"/>
      <point x="188" y="404"/>
      <point x="256" y="426" type="qcurve"/>
      <point x="263" y="423"/>
      <point x="361" y="391" type="qcurve"/>
      <point x="414" y="375"/>
      <point x="456" y="327"/>
      <point x="456" y="283" type="qcurve"/>
      <point x="456" y="224"/>
      <point x="378" y="153"/>
    </contour>
  </outline>
</glyph>
<glyph name="dieresis" format="2">
  <advance width="600"/>
  <unicode hex="00A8"/>
  <outline>
    <contour>
      <point x="231" y="642" type="qcurve"/>
      <point x="257" y="642"/>
      <point x="257" y="674" type="qcurve"/>
      <point x="257" y="691"/>
      <point x="237" y="691" type="qcurve"/>
      <point x="225" y="691"/>
      <point x="216" y="680"/>
      <point x="211" y="665"/>
      <point x="211" y="659" type="qcurve"/>
      <point x="211" y="642"/>
    </contour>
    <contour>
      <point x="413" y="642" type="qcurve"/>
      <point x="439" y="642"/>
      <point x="439" y="674" type="qcurve"/>
      <point x="439" y="691"/>
      <point x="419" y="691" type="qcurve"/>
      <point x="407" y="691"/>
      <point x="398" y="680"/>
      <point x="393" y="665"/>
      <point x="393" y="659" type="qcurve"/>
      <point x="393" y="642"/>
    </contour>
  </outline>
</glyph>
<glyph name="copyright" format="2">
  <advance width="701"/>
  <unicode hex="00A9"/>
  <outline>
    <contour>
      <point x="317" y="-12" type="qcurve"/>
      <point x="475" y="-12"/>
      <point x="584" y="106" type="qcurve"/>
      <point x="636" y="163"/>
      <point x="694" y="319"/>
      <point x="694" y="415" type="qcurve"/>
      <point x="694" y="552"/>
      <point x="540" y="710"/>
      <point x="409" y="710" type="qcurve"/>
      <point x="252" y="710"/>
      <point x="142" y="592" type="qcurve"/>
      <point x="91" y="535"/>
      <point x="32" y="379"/>
      <point x="32" y="283" type="qcurve"/>
      <point x="32" y="147"/>
      <point x="110" y="68" type="qcurve"/>
      <point x="187" y="-12"/>
    </contour>
    <contour>
      <point x="317" y="6" type="qcurve"/>
      <point x="190" y="6"/>
      <point x="52" y="162"/>
      <point x="52" y="283" type="qcurve"/>
      <point x="52" y="328"/>
      <point x="68" y="403" type="qcurve"/>
      <point x="95" y="525"/>
      <point x="184" y="607" type="qcurve"/>
      <point x="278" y="692"/>
      <point x="409" y="692" type="qcurve"/>
      <point x="534" y="692"/>
      <point x="674" y="537"/>
      <point x="674" y="415" type="qcurve"/>
      <point x="674" y="396"/>
      <point x="669" y="344"/>
      <point x="658" y="295" type="qcurve"/>
      <point x="633" y="173"/>
      <point x="543" y="92" type="qcurve"/>
      <point x="448" y="6"/>
    </contour>
    <contour>
      <point x="338" y="149" type="qcurve"/>
      <point x="383" y="149"/>
      <point x="452" y="196"/>
      <point x="471" y="230" type="qcurve"/>
      <point x="456" y="238" type="line"/>
      <point x="416" y="167"/>
      <point x="339" y="167" type="qcurve"/>
      <point x="231" y="167"/>
      <point x="226" y="301" type="qcurve"/>
      <point x="226" y="325"/>
      <point x="234" y="369" type="qcurve"/>
      <point x="249" y="447"/>
      <point x="339" y="526"/>
      <point x="396" y="526" type="qcurve"/>
      <point x="470" y="526"/>
      <point x="496" y="458" type="qcurve"/>
      <point x="513" y="464" type="line"/>
      <point x="501" y="497"/>
      <point x="444" y="543"/>
      <point x="397" y="543" type="qcurve"/>
      <point x="313" y="543"/>
      <point x="206" y="409"/>
      <point x="206" y="301" type="qcurve"/>
      <point x="206" y="226"/>
      <point x="281" y="149"/>
    </contour>
  </outline>
</glyph>
<glyph name="ordfeminine" format="2">
  <advance width="354"/>
  <unicode hex="00AA"/>
  <outline>
    <contour>
      <point x="170" y="367" type="qcurve"/>
      <point x="255" y="367"/>
      <point x="292" y="422" type="qcurve"/>
      <point x="294" y="422" type="line"/>
      <point x="287" y="386" type="line"/>
      <point x="287" y="374"/>
      <point x="302" y="374" type="qcurve"/>
      <point x="350" y="374" type="line"/>
      <point x="354" y="391" type="line"/>
      <point x="306" y="391" type="line"/>
      <point x="348" y="605" type="line"/>
      <point x="350" y="615"/>
      <point x="350" y="625" type="qcurve"/>
      <point x="350" y="710"/>
      <point x="252" y="710" type="qcurve"/>
      <point x="165" y="710"/>
      <point x="124" y="643" type="qcurve"/>
      <point x="139" y="635" type="line"/>
      <point x="159" y="667"/>
      <point x="214" y="693"/>
      <point x="249" y="693" type="qcurve"/>
      <point x="332" y="693"/>
      <point x="332" y="625" type="qcurve"/>
      <point x="332" y="615"/>
      <point x="330" y="604" type="qcurve"/>
      <point x="319" y="548" type="line"/>
      <point x="222" y="548" type="line"/>
      <point x="146" y="548"/>
      <point x="108" y="517" type="qcurve"/>
      <point x="76" y="487"/>
      <point x="76" y="443" type="qcurve"/>
      <point x="76" y="408"/>
      <point x="124" y="367"/>
    </contour>
    <contour>
      <point x="170" y="384" type="qcurve"/>
      <point x="97" y="384"/>
      <point x="97" y="443" type="qcurve"/>
      <point x="97" y="452"/>
      <point x="101" y="468" type="qcurve"/>
      <point x="112" y="531"/>
      <point x="220" y="531" type="qcurve"/>
      <point x="316" y="531" type="line"/>
      <point x="304" y="473" type="line"/>
      <point x="293" y="430"/>
      <point x="217" y="384"/>
    </contour>
  </outline>
</glyph>
<glyph name="registered" format="2">
  <advance width="466"/>
  <unicode hex="00AE"/>
  <outline>
    <contour>
      <point x="251" y="298" type="qcurve"/>
      <point x="315" y="298"/>
      <point x="404" y="346"/>
      <point x="460" y="420"/>
      <point x="485" y="506"/>
      <point x="485" y="544" type="qcurve"/>
      <point x="485" y="619"/>
      <point x="391" y="710"/>
      <point x="313" y="710" type="qcurve"/>
      <point x="249" y="710"/>
      <point x="160" y="662"/>
      <point x="104" y="588"/>
      <point x="79" y="502"/>
      <point x="79" y="464" type="qcurve"/>
      <point x="79" y="389"/>
      <point x="173" y="298"/>
    </contour>
    <contour>
      <point x="254" y="314" type="qcurve"/>
      <point x="182" y="314"/>
      <point x="97" y="397"/>
      <point x="97" y="464" type="qcurve"/>
      <point x="97" y="478"/>
      <point x="105" y="524" type="qcurve"/>
      <point x="120" y="599"/>
      <point x="175" y="646" type="qcurve"/>
      <point x="228" y="694"/>
      <point x="310" y="694" type="qcurve"/>
      <point x="382" y="694"/>
      <point x="467" y="611"/>
      <point x="467" y="544" type="qcurve"/>
      <point x="467" y="525"/>
      <point x="463" y="504" type="qcurve"/>
      <point x="459" y="484" type="line"/>
      <point x="443" y="409"/>
      <point x="390" y="363" type="qcurve"/>
      <point x="334" y="314"/>
    </contour>
    <contour>
      <point x="347" y="397" type="line"/>
      <point x="311" y="489" type="line"/>
      <point x="336" y="490"/>
      <point x="372" y="526"/>
      <point x="372" y="562" type="qcurve"/>
      <point x="372" y="609"/>
      <point x="318" y="609" type="qcurve"/>
      <point x="239" y="609" type="line"/>
      <point x="197" y="397" type="line"/>
      <point x="213" y="397" type="line"/>
      <point x="231" y="488" type="line"/>
      <point x="295" y="488" type="line"/>
      <point x="330" y="397" type="line"/>
    </contour>
    <contour>
      <point x="295" y="503" type="qcurve"/>
      <point x="234" y="503" type="line"/>
      <point x="252" y="594" type="line"/>
      <point x="314" y="594" type="line"/>
      <point x="355" y="594"/>
      <point x="355" y="562" type="qcurve"/>
      <point x="355" y="555"/>
      <point x="352" y="542" type="qcurve"/>
      <point x="347" y="519"/>
      <point x="320" y="503"/>
    </contour>
  </outline>
</glyph>
<glyph name="degree" format="2">
  <advance width="466"/>
  <unicode hex="00B0"/>
  <outline>
    <contour>
      <point x="271" y="374" type="qcurve" smooth="yes"/>
      <point x="207" y="374"/>
      <point x="130" y="458"/>
      <point x="130" y="524" type="qcurve" smooth="yes"/>
      <point x="130" y="604"/>
      <point x="233" y="710"/>
      <point x="309" y="710" type="qcurve" smooth="yes"/>
      <point x="374" y="710"/>
      <point x="450" y="626"/>
      <point x="450" y="560" type="qcurve" smooth="yes"/>
      <point x="450" y="478"/>
      <point x="345" y="374"/>
    </contour>
    <contour>
      <point x="273" y="393" type="qcurve" smooth="yes"/>
      <point x="339" y="393"/>
      <point x="429" y="487"/>
      <point x="429" y="559" type="qcurve" smooth="yes"/>
      <point x="429" y="616"/>
      <point x="367" y="691"/>
      <point x="307" y="691" type="qcurve" smooth="yes"/>
      <point x="241" y="691"/>
      <point x="151" y="597"/>
      <point x="151" y="525" type="qcurve" smooth="yes"/>
      <point x="151" y="468"/>
      <point x="213" y="393"/>
    </contour>
  </outline>
</glyph>
<glyph name="twosuperior" format="2">
  <advance width="338"/>
  <unicode hex="00B2"/>
  <outline>
    <contour>
      <point x="310" y="329" type="line"/>
      <point x="314" y="346" type="line"/>
      <point x="80" y="346" type="line"/>
      <point x="232" y="452" type="line"/>
      <point x="294" y="494"/>
      <point x="353" y="565"/>
      <point x="353" y="608" type="qcurve"/>
      <point x="353" y="648"/>
      <point x="297" y="704"/>
      <point x="246" y="704" type="qcurve"/>
      <point x="148" y="704"/>
      <point x="107" y="615" type="qcurve"/>
      <point x="124" y="609" type="line"/>
      <point x="157" y="687"/>
      <point x="243" y="687" type="qcurve"/>
      <point x="288" y="687"/>
      <point x="333" y="643"/>
      <point x="333" y="608" type="qcurve"/>
      <point x="333" y="599" type="line"/>
      <point x="330" y="583" type="line"/>
      <point x="320" y="531"/>
      <point x="220" y="463" type="qcurve"/>
      <point x="58" y="349" type="line"/>
      <point x="54" y="329" type="line"/>
    </contour>
  </outline>
</glyph>
<glyph name="threesuperior" format="2">
  <advance width="345"/>
  <unicode hex="00B3"/>
  <outline>
    <contour>
      <point x="192" y="323" type="qcurve"/>
      <point x="255" y="323"/>
      <point x="329" y="388"/>
      <point x="329" y="445" type="qcurve"/>
      <point x="329" y="510"/>
      <point x="266" y="520" type="qcurve"/>
      <point x="266" y="522" type="line"/>
      <point x="357" y="539"/>
      <point x="357" y="617" type="qcurve"/>
      <point x="357" y="657"/>
      <point x="305" y="704"/>
      <point x="254" y="704" type="qcurve"/>
      <point x="170" y="704"/>
      <point x="130" y="651" type="qcurve"/>
      <point x="143" y="641" type="line"/>
      <point x="163" y="663"/>
      <point x="212" y="687"/>
      <point x="252" y="687" type="qcurve"/>
      <point x="337" y="687"/>
      <point x="337" y="617" type="qcurve"/>
      <point x="337" y="606"/>
      <point x="336" y="601" type="qcurve"/>
      <point x="335" y="598" type="line"/>
      <point x="323" y="529"/>
      <point x="218" y="529" type="qcurve"/>
      <point x="172" y="529" type="line"/>
      <point x="169" y="512" type="line"/>
      <point x="222" y="512" type="line"/>
      <point x="271" y="512"/>
      <point x="310" y="477"/>
      <point x="310" y="444" type="qcurve"/>
      <point x="310" y="432"/>
      <point x="307" y="420" type="qcurve"/>
      <point x="290" y="340"/>
      <point x="193" y="340" type="qcurve"/>
      <point x="148" y="340"/>
      <point x="101" y="367"/>
      <point x="88" y="390" type="qcurve"/>
      <point x="74" y="380" type="line"/>
      <point x="103" y="323"/>
    </contour>
  </outline>
</glyph>
<glyph name="acute" format="2">
  <advance width="600"/>
  <unicode hex="00B4"/>
  <outline>
    <contour>
      <point x="275" y="598" type="line"/>
      <point x="418" y="751" type="line"/>
      <point x="435" y="738" type="line"/>
      <point x="288" y="587" type="line"/>
    </contour>
  </outline>
</glyph>
<glyph name="uni00B5" format="2">
  <advance width="555"/>
  <unicode hex="00B5"/>
  <outline>
    <contour>
      <point x="15" y="-200" type="line"/>
      <point x="156" y="506" type="line"/>
      <point x="177" y="506" type="line"/>
      <point x="113" y="186" type="line"/>
      <point x="106" y="145"/>
      <point x="106" y="123" type="qcurve" smooth="yes"/>
      <point x="106" y="7"/>
      <point x="220" y="7" type="qcurve" smooth="yes"/>
      <point x="303" y="7"/>
      <point x="354" y="69" type="qcurve" smooth="yes"/>
      <point x="399" y="125"/>
      <point x="415" y="194" type="qcurve"/>
      <point x="477" y="506" type="line"/>
      <point x="498" y="506" type="line"/>
      <point x="401" y="19" type="line"/>
      <point x="486" y="19" type="line"/>
      <point x="482" y="0" type="line"/>
      <point x="406" y="0" type="line" smooth="yes"/>
      <point x="395" y="0"/>
      <point x="382" y="8"/>
      <point x="382" y="21" type="qcurve" smooth="yes"/>
      <point x="382" y="29"/>
      <point x="387" y="51" type="qcurve"/>
      <point x="398" y="108" type="line"/>
      <point x="395" y="108" type="line"/>
      <point x="365" y="50"/>
      <point x="282" y="-12"/>
      <point x="217" y="-12" type="qcurve" smooth="yes"/>
      <point x="111" y="-12"/>
      <point x="89" y="79" type="qcurve"/>
      <point x="87" y="79" type="line"/>
      <point x="68" y="-44" type="line"/>
      <point x="36" y="-200" type="line"/>
    </contour>
  </outline>
</glyph>
<glyph name="paragraph" format="2">
  <advance width="590"/>
  <unicode hex="00B6"/>
  <outline>
    <contour>
      <point x="322" y="-149" type="line"/>
      <point x="488" y="680" type="line"/>
      <point x="356" y="680" type="line"/>
      <point x="190" y="-149" type="line"/>
      <point x="169" y="-149" type="line"/>
      <point x="265" y="330" type="line"/>
      <point x="193" y="330"/>
      <point x="99" y="413"/>
      <point x="99" y="486" type="qcurve" smooth="yes"/>
      <point x="99" y="584"/>
      <point x="241" y="698"/>
      <point x="349" y="698" type="qcurve" smooth="yes"/>
      <point x="582" y="698" type="line"/>
      <point x="578" y="680" type="line"/>
      <point x="509" y="680" type="line"/>
      <point x="343" y="-149" type="line"/>
    </contour>
  </outline>
</glyph>
<glyph name="cedilla" format="2">
  <advance width="600"/>
  <unicode hex="00B8"/>
  <outline>
    <contour>
      <point x="273" y="-202" type="qcurve" smooth="yes"/>
      <point x="245" y="-202"/>
      <point x="206" y="-183"/>
      <point x="198" y="-170" type="qcurve"/>
      <point x="212" y="-157" type="line"/>
      <point x="233" y="-184"/>
      <point x="273" y="-184" type="qcurve"/>
      <point x="346" y="-178"/>
      <point x="346" y="-126" type="qcurve" smooth="yes"/>
      <point x="346" y="-109"/>
      <point x="323" y="-88"/>
      <point x="294" y="-86" type="qcurve" smooth="yes"/>
      <point x="257" y="-84" type="line"/>
      <point x="295" y="3" type="line"/>
      <point x="313" y="3" type="line"/>
      <point x="279" y="-73" type="line"/>
      <point x="281" y="-75" type="line"/>
      <point x="291" y="-72"/>
      <point x="310" y="-72" type="qcurve"/>
      <point x="367" y="-75"/>
      <point x="367" y="-125" type="qcurve" smooth="yes"/>
      <point x="367" y="-157"/>
      <point x="316" y="-202"/>
    </contour>
  </outline>
</glyph>
<glyph name="guillemetright" format="2">
  <advance width="463"/>
  <unicode hex="00BB"/>
  <outline>
    <contour>
      <point x="198" y="106" type="line"/>
      <point x="432" y="284" type="line"/>
      <point x="436" y="304" type="line"/>
      <point x="274" y="482" type="line"/>
      <point x="262" y="470" type="line"/>
      <point x="411" y="297" type="line"/>
      <point x="192" y="123" type="line"/>
    </contour>
    <contour>
      <point x="21" y="106" type="line"/>
      <point x="255" y="284" type="line"/>
      <point x="259" y="304" type="line"/>
      <point x="97" y="482" type="line"/>
      <point x="85" y="470" type="line"/>
      <point x="234" y="297" type="line"/>
      <point x="15" y="123" type="line"/>
    </contour>
  </outline>
</glyph>
<glyph name="onehalf" format="2">
  <advance width="816"/>
  <unicode hex="00BD"/>
  <outline>
    <contour>
      <point x="133" y="0" type="line"/>
      <point x="739" y="698" type="line"/>
      <point x="716" y="698" type="line"/>
      <point x="111" y="0" type="line"/>
    </contour>
    <contour>
      <point x="722" y="0" type="line"/>
      <point x="726" y="17" type="line"/>
      <point x="492" y="17" type="line"/>
      <point x="644" y="123" type="line"/>
      <point x="706" y="165"/>
      <point x="765" y="236"/>
      <point x="765" y="279" type="qcurve"/>
      <point x="765" y="319"/>
      <point x="709" y="375"/>
      <point x="658" y="375" type="qcurve"/>
      <point x="560" y="375"/>
      <point x="519" y="286" type="qcurve"/>
      <point x="536" y="280" type="line"/>
      <point x="569" y="358"/>
      <point x="655" y="358" type="qcurve"/>
      <point x="700" y="358"/>
      <point x="745" y="314"/>
      <point x="745" y="279" type="qcurve"/>
      <point x="745" y="270" type="line"/>
      <point x="742" y="254" type="line"/>
      <point x="732" y="202"/>
      <point x="632" y="134" type="qcurve"/>
      <point x="470" y="20" type="line"/>
      <point x="466" y="0" type="line"/>
    </contour>
    <contour>
      <point x="205" y="329" type="line"/>
      <point x="186" y="329" type="line"/>
      <point x="254" y="680" type="line"/>
      <point x="166" y="639" type="line"/>
      <point x="170" y="659" type="line"/>
      <point x="254" y="698" type="line"/>
      <point x="277" y="698" type="line"/>
    </contour>
  </outline>
</glyph>
<glyph name="threequarters" format="2">
  <advance width="809"/>
  <unicode hex="00BE"/>
  <outline>
    <contour>
      <point x="192" y="323" type="qcurve"/>
      <point x="255" y="323"/>
      <point x="329" y="388"/>
      <point x="329" y="445" type="qcurve"/>
      <point x="329" y="510"/>
      <point x="266" y="520" type="qcurve"/>
      <point x="266" y="522" type="line"/>
      <point x="357" y="539"/>
      <point x="357" y="617" type="qcurve"/>
      <point x="357" y="657"/>
      <point x="305" y="704"/>
      <point x="254" y="704" type="qcurve"/>
      <point x="170" y="704"/>
      <point x="130" y="651" type="qcurve"/>
      <point x="143" y="641" type="line"/>
      <point x="163" y="663"/>
      <point x="212" y="687"/>
      <point x="252" y="687" type="qcurve"/>
      <point x="337" y="687"/>
      <point x="337" y="617" type="qcurve"/>
      <point x="337" y="606"/>
      <point x="336" y="601" type="qcurve"/>
      <point x="335" y="598" type="line"/>
      <point x="323" y="529"/>
      <point x="218" y="529" type="qcurve"/>
      <point x="172" y="529" type="line"/>
      <point x="169" y="512" type="line"/>
      <point x="222" y="512" type="line"/>
      <point x="271" y="512"/>
      <point x="310" y="477"/>
      <point x="310" y="444" type="qcurve"/>
      <point x="310" y="432"/>
      <point x="307" y="420" type="qcurve"/>
      <point x="290" y="340"/>
      <point x="193" y="340" type="qcurve"/>
      <point x="148" y="340"/>
      <point x="101" y="367"/>
      <point x="88" y="390" type="qcurve"/>
      <point x="74" y="380" type="line"/>
      <point x="103" y="323"/>
    </contour>
    <contour>
      <point x="149" y="0" type="line"/>
      <point x="755" y="698" type="line"/>
      <point x="732" y="698" type="line"/>
      <point x="127" y="0" type="line"/>
    </contour>
    <contour>
      <point x="676" y="0" type="line"/>
      <point x="694" y="89" type="line"/>
      <point x="760" y="89" type="line"/>
      <point x="764" y="106" type="line"/>
      <point x="698" y="106" type="line"/>
      <point x="750" y="369" type="line"/>
      <point x="722" y="369" type="line"/>
      <point x="466" y="108" type="line"/>
      <point x="462" y="89" type="line"/>
      <point x="675" y="89" type="line"/>
      <point x="657" y="0" type="line"/>
    </contour>
    <contour>
      <point x="679" y="106" type="line"/>
      <point x="487" y="106" type="line"/>
      <point x="724" y="349" type="line"/>
      <point x="727" y="349" type="line"/>
    </contour>
  </outline>
</glyph>
<glyph name="Aacute" format="2">
  <advance width="594"/>
  <unicode hex="00C1"/>
  <outline>
    <contour>
      <point x="519" y="0" type="line"/>
      <point x="384" y="698" type="line"/>
      <point x="354" y="698" type="line"/>
      <point x="-12" y="0" type="line"/>
      <point x="12" y="0" type="line"/>
      <point x="134" y="234" type="line"/>
      <point x="452" y="234" type="line"/>
      <point x="497" y="0" type="line"/>
    </contour>
    <contour>
      <point x="448" y="253" type="line"/>
      <point x="144" y="253" type="line"/>
      <point x="364" y="673" type="line"/>
      <point x="367" y="673" type="line"/>
    </contour>
    <contour>
      <point x="376" y="767" type="line"/>
      <point x="523" y="918" type="line"/>
      <point x="506" y="931" type="line"/>
      <point x="363" y="778" type="line"/>
    </contour>
  </outline>
</glyph>
<glyph name="Atilde" format="2">
  <advance width="594"/>
  <unicode hex="00C3"/>
  <outline>
    <contour>
      <point x="519" y="0" type="line"/>
      <point x="384" y="698" type="line"/>
      <point x="354" y="698" type="line"/>
      <point x="-12" y="0" type="line"/>
      <point x="12" y="0" type="line"/>
      <point x="134" y="234" type="line"/>
      <point x="452" y="234" type="line"/>
      <point x="497" y="0" type="line"/>
    </contour>
    <contour>
      <point x="448" y="253" type="line"/>
      <point x="144" y="253" type="line"/>
      <point x="364" y="673" type="line"/>
      <point x="367" y="673" type="line"/>
    </contour>
    <contour>
      <point x="452" y="808" type="qcurve"/>
      <point x="494" y="808"/>
      <point x="537" y="847" type="qcurve"/>
      <point x="526" y="859" type="line"/>
      <point x="492" y="826"/>
      <point x="457" y="826" type="qcurve"/>
      <point x="440" y="826"/>
      <point x="411" y="839"/>
      <point x="393" y="852" type="qcurve"/>
      <point x="371" y="868"/>
      <point x="341" y="882"/>
      <point x="321" y="882" type="qcurve"/>
      <point x="279" y="882"/>
      <point x="236" y="843" type="qcurve"/>
      <point x="247" y="831" type="line"/>
      <point x="285" y="864"/>
      <point x="316" y="864" type="qcurve"/>
      <point x="333" y="864"/>
      <point x="362" y="852"/>
      <point x="380" y="839" type="qcurve"/>
      <point x="403" y="823"/>
      <point x="432" y="808"/>
    </contour>
  </outline>
</glyph>
<glyph name="Aring" format="2">
  <advance width="594"/>
  <unicode hex="00C5"/>
  <outline>
    <contour>
      <point x="519" y="0" type="line"/>
      <point x="384" y="698" type="line"/>
      <point x="354" y="698" type="line"/>
      <point x="-12" y="0" type="line"/>
      <point x="12" y="0" type="line"/>
      <point x="134" y="234" type="line"/>
      <point x="452" y="234" type="line"/>
      <point x="497" y="0" type="line"/>
    </contour>
    <contour>
      <point x="448" y="253" type="line"/>
      <point x="144" y="253" type="line"/>
      <point x="364" y="673" type="line"/>
      <point x="367" y="673" type="line"/>
    </contour>
    <contour>
      <point x="388" y="769" type="qcurve"/>
      <point x="436" y="769"/>
      <point x="494" y="829"/>
      <point x="494" y="879" type="qcurve"/>
      <point x="494" y="891"/>
      <point x="490" y="904" type="qcurve"/>
      <point x="478" y="951"/>
      <point x="417" y="951" type="qcurve"/>
      <point x="369" y="951"/>
      <point x="312" y="891"/>
      <point x="312" y="841" type="qcurve"/>
      <point x="312" y="817"/>
      <point x="345" y="769"/>
    </contour>
    <contour>
      <point x="392" y="787" type="qcurve"/>
      <point x="331" y="787"/>
      <point x="330" y="840" type="qcurve"/>
      <point x="330" y="847"/>
      <point x="333" y="854"/>
      <point x="334" y="867" type="qcurve"/>
      <point x="340" y="899"/>
      <point x="383" y="933"/>
      <point x="413" y="933" type="qcurve"/>
      <point x="445" y="933"/>
      <point x="476" y="904"/>
      <point x="476" y="880" type="qcurve"/>
      <point x="476" y="876"/>
      <point x="474" y="867"/>
      <point x="472" y="853" type="qcurve"/>
      <point x="466" y="821"/>
      <point x="423" y="787"/>
    </contour>
  </outline>
</glyph>
<glyph name="Ccedilla" format="2">
  <advance width="595"/>
  <unicode hex="00C7"/>
  <outline>
    <contour>
      <point x="263" y="-202" type="qcurve"/>
      <point x="306" y="-202"/>
      <point x="357" y="-157"/>
      <point x="357" y="-125" type="qcurve"/>
      <point x="357" y="-75"/>
      <point x="300" y="-72" type="qcurve"/>
      <point x="282" y="-72"/>
      <point x="271" y="-75" type="qcurve"/>
      <point x="269" y="-73" type="line"/>
      <point x="296" y="-12" type="line"/>
      <point x="301" y="-12" type="line"/>
      <point x="435" y="-12"/>
      <point x="519" y="141" type="qcurve"/>
      <point x="500" y="151" type="line"/>
      <point x="461" y="79"/>
      <point x="361" y="8"/>
      <point x="291" y="8" type="qcurve"/>
      <point x="194" y="8"/>
      <point x="91" y="122"/>
      <point x="91" y="220" type="qcurve"/>
      <point x="91" y="279"/>
      <point x="112" y="384" type="qcurve"/>
      <point x="141" y="526"/>
      <point x="291" y="690"/>
      <point x="397" y="690" type="qcurve"/>
      <point x="475" y="690"/>
      <point x="553" y="621"/>
      <point x="568" y="564" type="qcurve"/>
      <point x="589" y="569" type="line"/>
      <point x="572" y="635"/>
      <point x="482" y="710"/>
      <point x="398" y="710" type="qcurve"/>
      <point x="285" y="710"/>
      <point x="206" y="627" type="qcurve"/>
      <point x="134" y="547"/>
      <point x="101" y="435" type="qcurve"/>
      <point x="69" y="331"/>
      <point x="69" y="220" type="qcurve"/>
      <point x="69" y="111"/>
      <point x="183" y="-7"/>
      <point x="279" y="-12" type="qcurve"/>
      <point x="247" y="-84" type="line"/>
      <point x="284" y="-86" type="line"/>
      <point x="336" y="-90"/>
      <point x="336" y="-126" type="qcurve"/>
      <point x="336" y="-178"/>
      <point x="263" y="-184" type="qcurve"/>
      <point x="223" y="-184"/>
      <point x="202" y="-157" type="qcurve"/>
      <point x="188" y="-170" type="line"/>
      <point x="196" y="-183"/>
      <point x="235" y="-202"/>
    </contour>
  </outline>
</glyph>
<glyph name="Ecircumflex" format="2">
  <advance width="553"/>
  <unicode hex="00CA"/>
  <outline>
    <contour>
      <point x="423" y="906" type="line"/>
      <point x="275" y="779" type="line"/>
      <point x="262" y="791" type="line"/>
      <point x="412" y="923" type="line"/>
      <point x="436" y="923" type="line"/>
      <point x="542" y="789" type="line"/>
      <point x="527" y="779" type="line"/>
    </contour>
    <contour>
      <point x="54" y="0" type="line"/>
      <point x="194" y="698" type="line"/>
      <point x="572" y="698" type="line"/>
      <point x="568" y="678" type="line"/>
      <point x="212" y="678" type="line"/>
      <point x="149" y="364" type="line"/>
      <point x="493" y="364" type="line"/>
      <point x="489" y="344" type="line"/>
      <point x="145" y="344" type="line"/>
      <point x="80" y="20" type="line"/>
      <point x="436" y="20" type="line"/>
      <point x="432" y="0" type="line"/>
    </contour>
  </outline>
</glyph>
<glyph name="Igrave" format="2">
  <advance width="232"/>
  <unicode hex="00CC"/>
  <outline>
    <contour>
      <point x="223" y="768" type="line"/>
      <point x="239" y="777" type="line"/>
      <point x="158" y="932" type="line"/>
      <point x="139" y="921" type="line"/>
    </contour>
    <contour>
      <point x="76" y="0" type="line"/>
      <point x="216" y="698" type="line"/>
      <point x="194" y="698" type="line"/>
      <point x="54" y="0" type="line"/>
    </contour>
  </outline>
</glyph>
<glyph name="Iacute" format="2">
  <advance width="232"/>
  <unicode hex="00CD"/>
  <outline>
    <contour>
      <point x="212" y="767" type="line"/>
      <point x="359" y="918" type="line"/>
      <point x="342" y="931" type="line"/>
      <point x="199" y="778" type="line"/>
    </contour>
    <contour>
      <point x="76" y="0" type="line"/>
      <point x="216" y="698" type="line"/>
      <point x="194" y="698" type="line"/>
      <point x="54" y="0" type="line"/>
    </contour>
  </outline>
</glyph>
<glyph name="Eth" format="2">
  <advance width="651"/>
  <unicode hex="00D0"/>
  <outline>
    <contour>
      <point x="58" y="0" type="line"/>
      <point x="129" y="359" type="line"/>
      <point x="41" y="359" type="line"/>
      <point x="45" y="378" type="line"/>
      <point x="133" y="378" type="line"/>
      <point x="196" y="698" type="line"/>
      <point x="381" y="698" type="line" smooth="yes"/>
      <point x="496" y="698"/>
      <point x="613" y="577"/>
      <point x="613" y="468" type="qcurve" smooth="yes"/>
      <point x="613" y="383"/>
      <point x="575" y="216"/>
      <point x="495" y="81"/>
      <point x="370" y="0"/>
      <point x="285" y="0" type="qcurve" smooth="yes"/>
    </contour>
    <contour>
      <point x="285" y="20" type="line" smooth="yes"/>
      <point x="398" y="20"/>
      <point x="475" y="104" type="qcurve"/>
      <point x="547" y="186"/>
      <point x="570" y="303" type="qcurve" smooth="yes"/>
      <point x="591" y="408"/>
      <point x="591" y="468" type="qcurve" smooth="yes"/>
      <point x="591" y="565"/>
      <point x="486" y="678"/>
      <point x="378" y="678" type="qcurve" smooth="yes"/>
      <point x="214" y="678" type="line"/>
      <point x="155" y="378" type="line"/>
      <point x="322" y="378" type="line"/>
      <point x="318" y="359" type="line"/>
      <point x="151" y="359" type="line"/>
      <point x="84" y="20" type="line"/>
    </contour>
  </outline>
</glyph>
<glyph name="Ntilde" format="2">
  <advance width="680"/>
  <unicode hex="00D1"/>
  <outline>
    <contour>
      <point x="521" y="808" type="qcurve" smooth="yes"/>
      <point x="501" y="808"/>
      <point x="472" y="823"/>
      <point x="449" y="839" type="qcurve" smooth="yes"/>
      <point x="431" y="852"/>
      <point x="402" y="864"/>
      <point x="385" y="864" type="qcurve" smooth="yes"/>
      <point x="354" y="864"/>
      <point x="316" y="831" type="qcurve"/>
      <point x="305" y="843" type="line"/>
      <point x="348" y="882"/>
      <point x="390" y="882" type="qcurve" smooth="yes"/>
      <point x="410" y="882"/>
      <point x="440" y="868"/>
      <point x="462" y="852" type="qcurve" smooth="yes"/>
      <point x="480" y="839"/>
      <point x="509" y="826"/>
      <point x="526" y="826" type="qcurve" smooth="yes"/>
      <point x="561" y="826"/>
      <point x="595" y="859" type="qcurve"/>
      <point x="606" y="847" type="line"/>
      <point x="563" y="808"/>
    </contour>
    <contour>
      <point x="494" y="0" type="line"/>
      <point x="212" y="671" type="line"/>
      <point x="209" y="671" type="line"/>
      <point x="75" y="0" type="line"/>
      <point x="54" y="0" type="line"/>
      <point x="194" y="698" type="line"/>
      <point x="224" y="698" type="line"/>
      <point x="506" y="27" type="line"/>
      <point x="509" y="27" type="line"/>
      <point x="643" y="698" type="line"/>
      <point x="664" y="698" type="line"/>
      <point x="524" y="0" type="line"/>
    </contour>
  </outline>
</glyph>
<glyph name="Ocircumflex" format="2">
  <advance width="658"/>
  <unicode hex="00D4"/>
  <outline>
    <contour>
      <point x="464" y="906" type="line"/>
      <point x="316" y="779" type="line"/>
      <point x="303" y="791" type="line"/>
      <point x="453" y="923" type="line"/>
      <point x="477" y="923" type="line"/>
      <point x="583" y="789" type="line"/>
      <point x="568" y="779" type="line"/>
    </contour>
    <contour>
      <point x="291" y="-12" type="qcurve" smooth="yes"/>
      <point x="191" y="-12"/>
      <point x="131" y="48" type="qcurve"/>
      <point x="69" y="106"/>
      <point x="69" y="220" type="qcurve" smooth="yes"/>
      <point x="69" y="318"/>
      <point x="101" y="435" type="qcurve"/>
      <point x="134" y="547"/>
      <point x="207" y="627" type="qcurve" smooth="yes"/>
      <point x="284" y="710"/>
      <point x="401" y="710" type="qcurve" smooth="yes"/>
      <point x="499" y="710"/>
      <point x="623" y="592"/>
      <point x="623" y="478" type="qcurve" smooth="yes"/>
      <point x="623" y="366"/>
      <point x="592" y="263" type="qcurve" smooth="yes"/>
      <point x="559" y="151"/>
      <point x="486" y="71" type="qcurve"/>
      <point x="407" y="-12"/>
    </contour>
    <contour>
      <point x="291" y="8" type="qcurve" smooth="yes"/>
      <point x="399" y="8"/>
      <point x="551" y="173"/>
      <point x="580" y="314" type="qcurve" smooth="yes"/>
      <point x="601" y="419"/>
      <point x="601" y="478" type="qcurve" smooth="yes"/>
      <point x="601" y="576"/>
      <point x="498" y="690"/>
      <point x="401" y="690" type="qcurve" smooth="yes"/>
      <point x="293" y="690"/>
      <point x="142" y="526"/>
      <point x="112" y="384" type="qcurve"/>
      <point x="91" y="279"/>
      <point x="91" y="220" type="qcurve" smooth="yes"/>
      <point x="91" y="122"/>
      <point x="194" y="8"/>
    </contour>
  </outline>
</glyph>
<glyph name="Otilde" format="2">
  <advance width="658"/>
  <unicode hex="00D5"/>
  <outline>
    <contour>
      <point x="291" y="-12" type="qcurve"/>
      <point x="407" y="-12"/>
      <point x="486" y="71" type="qcurve"/>
      <point x="559" y="151"/>
      <point x="592" y="263" type="qcurve"/>
      <point x="623" y="366"/>
      <point x="623" y="478" type="qcurve"/>
      <point x="623" y="592"/>
      <point x="499" y="710"/>
      <point x="401" y="710" type="qcurve"/>
      <point x="284" y="710"/>
      <point x="207" y="627" type="qcurve"/>
      <point x="134" y="547"/>
      <point x="101" y="435" type="qcurve"/>
      <point x="69" y="318"/>
      <point x="69" y="220" type="qcurve"/>
      <point x="69" y="106"/>
      <point x="131" y="48" type="qcurve"/>
      <point x="191" y="-12"/>
    </contour>
    <contour>
      <point x="291" y="8" type="qcurve"/>
      <point x="194" y="8"/>
      <point x="91" y="122"/>
      <point x="91" y="220" type="qcurve"/>
      <point x="91" y="279"/>
      <point x="112" y="384" type="qcurve"/>
      <point x="142" y="526"/>
      <point x="293" y="690"/>
      <point x="401" y="690" type="qcurve"/>
      <point x="498" y="690"/>
      <point x="601" y="576"/>
      <point x="601" y="478" type="qcurve"/>
      <point x="601" y="419"/>
      <point x="580" y="314" type="qcurve"/>
      <point x="551" y="173"/>
      <point x="399" y="8"/>
    </contour>
    <contour>
      <point x="504" y="808" type="qcurve"/>
      <point x="546" y="808"/>
      <point x="589" y="847" type="qcurve"/>
      <point x="578" y="859" type="line"/>
      <point x="544" y="826"/>
      <point x="509" y="826" type="qcurve"/>
      <point x="492" y="826"/>
      <point x="463" y="839"/>
      <point x="445" y="852" type="qcurve"/>
      <point x="423" y="868"/>
      <point x="393" y="882"/>
      <point x="373" y="882" type="qcurve"/>
      <point x="331" y="882"/>
      <point x="288" y="843" type="qcurve"/>
      <point x="299" y="831" type="line"/>
      <point x="337" y="864"/>
      <point x="368" y="864" type="qcurve"/>
      <point x="385" y="864"/>
      <point x="414" y="852"/>
      <point x="432" y="839" type="qcurve"/>
      <point x="455" y="823"/>
      <point x="484" y="808"/>
    </contour>
  </outline>
</glyph>
<glyph name="Oslash" format="2">
  <advance width="658"/>
  <unicode hex="00D8"/>
  <outline>
    <contour>
      <point x="3" y="-21" type="line"/>
      <point x="100" y="88" type="line"/>
      <point x="69" y="142"/>
      <point x="69" y="220" type="qcurve" smooth="yes"/>
      <point x="69" y="333"/>
      <point x="101" y="435" type="qcurve" smooth="yes"/>
      <point x="135" y="547"/>
      <point x="207" y="627" type="qcurve"/>
      <point x="286" y="710"/>
      <point x="401" y="710" type="qcurve" smooth="yes"/>
      <point x="520" y="710"/>
      <point x="581" y="627" type="qcurve"/>
      <point x="674" y="731" type="line"/>
      <point x="689" y="719" type="line"/>
      <point x="592" y="610" type="line"/>
      <point x="623" y="556"/>
      <point x="623" y="478" type="qcurve" smooth="yes"/>
      <point x="623" y="366"/>
      <point x="592" y="263" type="qcurve" smooth="yes"/>
      <point x="559" y="151"/>
      <point x="486" y="71" type="qcurve"/>
      <point x="407" y="-12"/>
      <point x="291" y="-12" type="qcurve" smooth="yes"/>
      <point x="173" y="-12"/>
      <point x="111" y="71" type="qcurve"/>
      <point x="18" y="-33" type="line"/>
    </contour>
    <contour>
      <point x="567" y="611" type="line"/>
      <point x="515" y="690"/>
      <point x="401" y="690" type="qcurve" smooth="yes"/>
      <point x="293" y="690"/>
      <point x="142" y="526"/>
      <point x="112" y="384" type="qcurve" smooth="yes"/>
      <point x="101" y="329" type="line"/>
      <point x="91" y="262"/>
      <point x="91" y="220" type="qcurve" smooth="yes"/>
      <point x="91" y="153"/>
      <point x="115" y="105" type="qcurve"/>
    </contour>
    <contour>
      <point x="291" y="8" type="qcurve" smooth="yes"/>
      <point x="399" y="8"/>
      <point x="551" y="173"/>
      <point x="580" y="314" type="qcurve" smooth="yes"/>
      <point x="591" y="369" type="line"/>
      <point x="601" y="436"/>
      <point x="601" y="478" type="qcurve" smooth="yes"/>
      <point x="601" y="546"/>
      <point x="577" y="593" type="qcurve"/>
      <point x="125" y="87" type="line"/>
      <point x="177" y="8"/>
    </contour>
  </outline>
</glyph>
<glyph name="Thorn" format="2">
  <advance width="592"/>
  <unicode hex="00DE"/>
  <outline>
    <contour>
      <point x="76" y="0" type="line"/>
      <point x="109" y="166" type="line"/>
      <point x="355" y="166" type="line"/>
      <point x="453" y="166"/>
      <point x="565" y="285"/>
      <point x="565" y="394" type="qcurve"/>
      <point x="565" y="458"/>
      <point x="487" y="542"/>
      <point x="414" y="542" type="qcurve"/>
      <point x="184" y="542" type="line"/>
      <point x="215" y="698" type="line"/>
      <point x="194" y="698" type="line"/>
      <point x="54" y="0" type="line"/>
    </contour>
    <contour>
      <point x="357" y="186" type="qcurve"/>
      <point x="113" y="186" type="line"/>
      <point x="180" y="522" type="line"/>
      <point x="412" y="522" type="line"/>
      <point x="480" y="522"/>
      <point x="512" y="485" type="qcurve"/>
      <point x="543" y="447"/>
      <point x="543" y="394" type="qcurve"/>
      <point x="543" y="366"/>
      <point x="534" y="325" type="qcurve"/>
      <point x="522" y="264"/>
      <point x="435" y="186"/>
    </contour>
  </outline>
</glyph>
<glyph name="germandbls" format="2">
  <advance width="628"/>
  <unicode hex="00DF"/>
  <outline>
    <contour>
      <point x="386" y="-12" type="qcurve"/>
      <point x="460" y="-12"/>
      <point x="562" y="68"/>
      <point x="562" y="140" type="qcurve"/>
      <point x="562" y="193"/>
      <point x="509" y="242"/>
      <point x="464" y="256" type="qcurve"/>
      <point x="414" y="273" type="line"/>
      <point x="372" y="286"/>
      <point x="333" y="325"/>
      <point x="333" y="367" type="qcurve"/>
      <point x="333" y="430"/>
      <point x="393" y="462" type="qcurve"/>
      <point x="452" y="488"/>
      <point x="536" y="488" type="qcurve"/>
      <point x="552" y="488" type="line"/>
      <point x="558" y="521" type="line"/>
      <point x="565" y="556"/>
      <point x="565" y="590" type="qcurve"/>
      <point x="565" y="665"/>
      <point x="485" y="752"/>
      <point x="410" y="752" type="qcurve"/>
      <point x="312" y="752"/>
      <point x="197" y="627"/>
      <point x="176" y="521" type="qcurve"/>
      <point x="173" y="506" type="line"/>
      <point x="78" y="506" type="line"/>
      <point x="74" y="487" type="line"/>
      <point x="169" y="487" type="line"/>
      <point x="72" y="0" type="line"/>
      <point x="93" y="0" type="line"/>
      <point x="197" y="521" type="line"/>
      <point x="216" y="615"/>
      <point x="317" y="733"/>
      <point x="407" y="733" type="qcurve"/>
      <point x="477" y="733"/>
      <point x="544" y="658"/>
      <point x="544" y="590" type="qcurve"/>
      <point x="544" y="556"/>
      <point x="534" y="506" type="qcurve"/>
      <point x="437" y="506"/>
      <point x="374" y="472" type="qcurve"/>
      <point x="312" y="436"/>
      <point x="312" y="367" type="qcurve"/>
      <point x="312" y="315"/>
      <point x="339" y="292" type="qcurve"/>
      <point x="365" y="267"/>
      <point x="408" y="254" type="qcurve"/>
      <point x="458" y="237" type="line"/>
      <point x="500" y="224"/>
      <point x="541" y="181"/>
      <point x="541" y="139" type="qcurve"/>
      <point x="541" y="76"/>
      <point x="456" y="7"/>
      <point x="386" y="7" type="qcurve"/>
      <point x="275" y="7"/>
      <point x="218" y="98" type="qcurve"/>
      <point x="200" y="86" type="line"/>
      <point x="265" y="-12"/>
    </contour>
  </outline>
</glyph>
<glyph name="atilde" format="2">
  <advance width="567"/>
  <unicode hex="00E3"/>
  <outline>
    <contour>
      <point x="223" y="-12" type="qcurve"/>
      <point x="287" y="-12"/>
      <point x="372" y="54"/>
      <point x="404" y="111" type="qcurve"/>
      <point x="407" y="111" type="line"/>
      <point x="392" y="35" type="line"/>
      <point x="392" y="32"/>
      <point x="390" y="24"/>
      <point x="390" y="19" type="qcurve"/>
      <point x="390" y="0"/>
      <point x="413" y="0" type="qcurve"/>
      <point x="491" y="0" type="line"/>
      <point x="495" y="19" type="line"/>
      <point x="410" y="19" type="line"/>
      <point x="507" y="506" type="line"/>
      <point x="486" y="506" type="line"/>
      <point x="468" y="413" type="line"/>
      <point x="465" y="413" type="line"/>
      <point x="451" y="461"/>
      <point x="373" y="518"/>
      <point x="309" y="518" type="qcurve"/>
      <point x="192" y="518"/>
      <point x="125" y="416" type="qcurve"/>
      <point x="60" y="314"/>
      <point x="60" y="176" type="qcurve"/>
      <point x="60" y="97"/>
      <point x="145" y="-12"/>
    </contour>
    <contour>
      <point x="223" y="7" type="qcurve"/>
      <point x="153" y="7"/>
      <point x="81" y="106"/>
      <point x="81" y="176" type="qcurve"/>
      <point x="81" y="218"/>
      <point x="87" y="247" type="qcurve"/>
      <point x="94" y="282" type="line"/>
      <point x="113" y="382"/>
      <point x="223" y="499"/>
      <point x="309" y="499" type="qcurve"/>
      <point x="393" y="499"/>
      <point x="431" y="448" type="qcurve"/>
      <point x="457" y="411"/>
      <point x="457" y="372" type="qcurve"/>
      <point x="457" y="359"/>
      <point x="454" y="346" type="qcurve"/>
      <point x="426" y="204" type="line"/>
      <point x="398" y="96"/>
      <point x="333" y="47" type="qcurve"/>
      <point x="288" y="7"/>
    </contour>
    <contour>
      <point x="419" y="628" type="qcurve"/>
      <point x="461" y="628"/>
      <point x="504" y="667" type="qcurve"/>
      <point x="493" y="679" type="line"/>
      <point x="459" y="646"/>
      <point x="424" y="646" type="qcurve"/>
      <point x="407" y="646"/>
      <point x="378" y="659"/>
      <point x="360" y="672" type="qcurve"/>
      <point x="338" y="688"/>
      <point x="308" y="702"/>
      <point x="288" y="702" type="qcurve"/>
      <point x="246" y="702"/>
      <point x="203" y="663" type="qcurve"/>
      <point x="214" y="651" type="line"/>
      <point x="252" y="684"/>
      <point x="283" y="684" type="qcurve"/>
      <point x="300" y="684"/>
      <point x="329" y="672"/>
      <point x="347" y="659" type="qcurve"/>
      <point x="370" y="643"/>
      <point x="399" y="628"/>
    </contour>
  </outline>
</glyph>
<glyph name="aring" format="2">
  <advance width="567"/>
  <unicode hex="00E5"/>
  <outline>
    <contour>
      <point x="339" y="589" type="qcurve" smooth="yes"/>
      <point x="296" y="589"/>
      <point x="263" y="637"/>
      <point x="263" y="661" type="qcurve" smooth="yes"/>
      <point x="263" y="711"/>
      <point x="320" y="771"/>
      <point x="368" y="771" type="qcurve" smooth="yes"/>
      <point x="429" y="771"/>
      <point x="441" y="724" type="qcurve" smooth="yes"/>
      <point x="445" y="711"/>
      <point x="445" y="699" type="qcurve" smooth="yes"/>
      <point x="445" y="649"/>
      <point x="387" y="589"/>
    </contour>
    <contour>
      <point x="343" y="607" type="qcurve" smooth="yes"/>
      <point x="374" y="607"/>
      <point x="417" y="641"/>
      <point x="423" y="673" type="qcurve" smooth="yes"/>
      <point x="425" y="687"/>
      <point x="427" y="696"/>
      <point x="427" y="700" type="qcurve" smooth="yes"/>
      <point x="427" y="724"/>
      <point x="396" y="753"/>
      <point x="364" y="753" type="qcurve" smooth="yes"/>
      <point x="334" y="753"/>
      <point x="291" y="719"/>
      <point x="285" y="687" type="qcurve"/>
      <point x="284" y="674"/>
      <point x="281" y="667"/>
      <point x="281" y="660" type="qcurve"/>
      <point x="282" y="607"/>
    </contour>
    <contour>
      <point x="223" y="-12" type="qcurve" smooth="yes"/>
      <point x="145" y="-12"/>
      <point x="60" y="97"/>
      <point x="60" y="176" type="qcurve" smooth="yes"/>
      <point x="60" y="314"/>
      <point x="125" y="416" type="qcurve"/>
      <point x="192" y="518"/>
      <point x="309" y="518" type="qcurve" smooth="yes"/>
      <point x="373" y="518"/>
      <point x="451" y="461"/>
      <point x="465" y="413" type="qcurve"/>
      <point x="468" y="413" type="line"/>
      <point x="486" y="506" type="line"/>
      <point x="507" y="506" type="line"/>
      <point x="410" y="19" type="line"/>
      <point x="495" y="19" type="line"/>
      <point x="491" y="0" type="line"/>
      <point x="413" y="0" type="line" smooth="yes"/>
      <point x="390" y="0"/>
      <point x="390" y="19" type="qcurve" smooth="yes"/>
      <point x="390" y="24"/>
      <point x="392" y="32"/>
      <point x="392" y="35" type="qcurve"/>
      <point x="407" y="111" type="line"/>
      <point x="404" y="111" type="line"/>
      <point x="372" y="54"/>
      <point x="287" y="-12"/>
    </contour>
    <contour>
      <point x="223" y="7" type="qcurve" smooth="yes"/>
      <point x="288" y="7"/>
      <point x="333" y="47" type="qcurve"/>
      <point x="398" y="96"/>
      <point x="426" y="204" type="qcurve"/>
      <point x="454" y="346" type="line" smooth="yes"/>
      <point x="457" y="359"/>
      <point x="457" y="372" type="qcurve" smooth="yes"/>
      <point x="457" y="411"/>
      <point x="431" y="448" type="qcurve"/>
      <point x="393" y="499"/>
      <point x="309" y="499" type="qcurve" smooth="yes"/>
      <point x="223" y="499"/>
      <point x="113" y="382"/>
      <point x="94" y="282" type="qcurve" smooth="yes"/>
      <point x="87" y="247" type="line" smooth="yes"/>
      <point x="81" y="218"/>
      <point x="81" y="176" type="qcurve" smooth="yes"/>
      <point x="81" y="106"/>
      <point x="153" y="7"/>
    </contour>
  </outline>
</glyph>
<glyph name="ccedilla" format="2">
  <advance width="479"/>
  <unicode hex="00E7"/>
  <outline>
    <contour>
      <point x="199" y="-202" type="qcurve"/>
      <point x="242" y="-202"/>
      <point x="293" y="-157"/>
      <point x="293" y="-125" type="qcurve"/>
      <point x="293" y="-75"/>
      <point x="236" y="-72" type="qcurve"/>
      <point x="217" y="-72"/>
      <point x="207" y="-75" type="qcurve"/>
      <point x="205" y="-73" type="line"/>
      <point x="232" y="-12" type="line"/>
      <point x="347" y="-5"/>
      <point x="422" y="114" type="qcurve"/>
      <point x="405" y="123" type="line"/>
      <point x="370" y="69"/>
      <point x="282" y="7"/>
      <point x="223" y="7" type="qcurve"/>
      <point x="151" y="7"/>
      <point x="115" y="60" type="qcurve"/>
      <point x="81" y="106"/>
      <point x="81" y="186" type="qcurve"/>
      <point x="81" y="205"/>
      <point x="84" y="233"/>
      <point x="96" y="297" type="qcurve"/>
      <point x="114" y="392"/>
      <point x="222" y="499"/>
      <point x="299" y="499" type="qcurve"/>
      <point x="350" y="499"/>
      <point x="420" y="447"/>
      <point x="432" y="398" type="qcurve"/>
      <point x="451" y="403" type="line"/>
      <point x="439" y="455"/>
      <point x="361" y="518"/>
      <point x="301" y="518" type="qcurve"/>
      <point x="243" y="518"/>
      <point x="153" y="467"/>
      <point x="123" y="422" type="qcurve"/>
      <point x="61" y="326"/>
      <point x="61" y="186" type="qcurve"/>
      <point x="61" y="102"/>
      <point x="138" y="-8"/>
      <point x="215" y="-12" type="qcurve"/>
      <point x="183" y="-84" type="line"/>
      <point x="220" y="-86" type="line"/>
      <point x="249" y="-88"/>
      <point x="272" y="-109"/>
      <point x="272" y="-126" type="qcurve"/>
      <point x="272" y="-178"/>
      <point x="199" y="-184" type="qcurve"/>
      <point x="159" y="-184"/>
      <point x="138" y="-157" type="qcurve"/>
      <point x="124" y="-170" type="line"/>
      <point x="132" y="-183"/>
      <point x="171" y="-202"/>
    </contour>
  </outline>
</glyph>
<glyph name="igrave" format="2">
  <advance width="235"/>
  <unicode hex="00EC"/>
  <outline>
    <contour>
      <point x="159" y="0" type="line"/>
      <point x="163" y="19" type="line"/>
      <point x="78" y="19" type="line"/>
      <point x="176" y="506" type="line"/>
      <point x="155" y="506" type="line"/>
      <point x="58" y="25"/>
      <point x="58" y="19" type="qcurve"/>
      <point x="58" y="0"/>
      <point x="81" y="0" type="qcurve"/>
    </contour>
    <contour>
      <point x="192" y="587" type="line"/>
      <point x="208" y="596" type="line"/>
      <point x="127" y="751" type="line"/>
      <point x="108" y="740" type="line"/>
    </contour>
  </outline>
</glyph>
<glyph name="iacute" format="2">
  <advance width="235"/>
  <unicode hex="00ED"/>
  <outline>
    <contour>
      <point x="159" y="0" type="line"/>
      <point x="163" y="19" type="line"/>
      <point x="78" y="19" type="line"/>
      <point x="176" y="506" type="line"/>
      <point x="155" y="506" type="line"/>
      <point x="58" y="25"/>
      <point x="58" y="19" type="qcurve"/>
      <point x="58" y="0"/>
      <point x="81" y="0" type="qcurve"/>
    </contour>
    <contour>
      <point x="161" y="587" type="line"/>
      <point x="308" y="738" type="line"/>
      <point x="291" y="751" type="line"/>
      <point x="148" y="598" type="line"/>
    </contour>
  </outline>
</glyph>
<glyph name="icircumflex" format="2">
  <advance width="235"/>
  <unicode hex="00EE"/>
  <outline>
    <contour>
      <point x="159" y="0" type="line"/>
      <point x="163" y="19" type="line"/>
      <point x="78" y="19" type="line"/>
      <point x="176" y="506" type="line"/>
      <point x="155" y="506" type="line"/>
      <point x="58" y="25"/>
      <point x="58" y="19" type="qcurve"/>
      <point x="58" y="0"/>
      <point x="81" y="0" type="qcurve"/>
    </contour>
    <contour>
      <point x="315" y="599" type="line"/>
      <point x="330" y="609" type="line"/>
      <point x="224" y="743" type="line"/>
      <point x="200" y="743" type="line"/>
      <point x="50" y="611" type="line"/>
      <point x="63" y="599" type="line"/>
      <point x="211" y="726" type="line"/>
    </contour>
  </outline>
</glyph>
<glyph name="ntilde" format="2">
  <advance width="548"/>
  <unicode hex="00F1"/>
  <outline>
    <contour>
      <point x="481" y="0" type="line"/>
      <point x="485" y="19" type="line"/>
      <point x="400" y="19" type="line"/>
      <point x="460" y="321" type="line"/>
      <point x="467" y="356"/>
      <point x="467" y="386" type="qcurve"/>
      <point x="467" y="449"/>
      <point x="399" y="518"/>
      <point x="335" y="518" type="qcurve"/>
      <point x="272" y="518"/>
      <point x="187" y="458"/>
      <point x="157" y="401" type="qcurve"/>
      <point x="154" y="401" type="line"/>
      <point x="175" y="506" type="line"/>
      <point x="154" y="506" type="line"/>
      <point x="53" y="0" type="line"/>
      <point x="74" y="0" type="line"/>
      <point x="136" y="312" type="line"/>
      <point x="152" y="384"/>
      <point x="199" y="437" type="qcurve"/>
      <point x="253" y="499"/>
      <point x="332" y="499" type="qcurve"/>
      <point x="446" y="499"/>
      <point x="446" y="383" type="qcurve"/>
      <point x="446" y="361"/>
      <point x="439" y="320" type="qcurve"/>
      <point x="380" y="25"/>
      <point x="380" y="19" type="qcurve"/>
      <point x="380" y="0"/>
      <point x="403" y="0" type="qcurve"/>
    </contour>
    <contour>
      <point x="424" y="628" type="qcurve"/>
      <point x="466" y="628"/>
      <point x="509" y="667" type="qcurve"/>
      <point x="498" y="679" type="line"/>
      <point x="464" y="646"/>
      <point x="429" y="646" type="qcurve"/>
      <point x="412" y="646"/>
      <point x="383" y="659"/>
      <point x="365" y="672" type="qcurve"/>
      <point x="343" y="688"/>
      <point x="313" y="702"/>
      <point x="293" y="702" type="qcurve"/>
      <point x="251" y="702"/>
      <point x="208" y="663" type="qcurve"/>
      <point x="219" y="651" type="line"/>
      <point x="257" y="684"/>
      <point x="288" y="684" type="qcurve"/>
      <point x="305" y="684"/>
      <point x="334" y="672"/>
      <point x="352" y="659" type="qcurve"/>
      <point x="375" y="643"/>
      <point x="404" y="628"/>
    </contour>
  </outline>
</glyph>
<glyph name="otilde" format="2">
  <advance width="534"/>
  <unicode hex="00F5"/>
  <outline>
    <contour>
      <point x="225" y="-12" type="qcurve"/>
      <point x="287" y="-12"/>
      <point x="381" y="44"/>
      <point x="444" y="141"/>
      <point x="475" y="267"/>
      <point x="475" y="337" type="qcurve"/>
      <point x="475" y="411"/>
      <point x="389" y="518"/>
      <point x="309" y="518" type="qcurve"/>
      <point x="190" y="518"/>
      <point x="123" y="414" type="qcurve"/>
      <point x="59" y="309"/>
      <point x="59" y="169" type="qcurve"/>
      <point x="59" y="93"/>
      <point x="146" y="-12"/>
    </contour>
    <contour>
      <point x="227" y="7" type="qcurve"/>
      <point x="154" y="7"/>
      <point x="115" y="55" type="qcurve"/>
      <point x="80" y="103"/>
      <point x="80" y="169" type="qcurve"/>
      <point x="80" y="210"/>
      <point x="85" y="241" type="qcurve"/>
      <point x="93" y="281" type="line"/>
      <point x="114" y="384"/>
      <point x="222" y="499"/>
      <point x="307" y="499" type="qcurve"/>
      <point x="380" y="499"/>
      <point x="419" y="451" type="qcurve"/>
      <point x="454" y="403"/>
      <point x="454" y="337" type="qcurve"/>
      <point x="454" y="297"/>
      <point x="449" y="265" type="qcurve"/>
      <point x="441" y="225" type="line"/>
      <point x="421" y="122"/>
      <point x="312" y="7"/>
    </contour>
    <contour>
      <point x="403" y="628" type="qcurve"/>
      <point x="445" y="628"/>
      <point x="488" y="667" type="qcurve"/>
      <point x="477" y="679" type="line"/>
      <point x="443" y="646"/>
      <point x="408" y="646" type="qcurve"/>
      <point x="391" y="646"/>
      <point x="362" y="659"/>
      <point x="344" y="672" type="qcurve"/>
      <point x="322" y="688"/>
      <point x="292" y="702"/>
      <point x="272" y="702" type="qcurve"/>
      <point x="230" y="702"/>
      <point x="187" y="663" type="qcurve"/>
      <point x="198" y="651" type="line"/>
      <point x="236" y="684"/>
      <point x="267" y="684" type="qcurve"/>
      <point x="284" y="684"/>
      <point x="313" y="672"/>
      <point x="331" y="659" type="qcurve"/>
      <point x="354" y="643"/>
      <point x="383" y="628"/>
    </contour>
  </outline>
</glyph>
<glyph name="divide" format="2">
  <advance width="600"/>
  <unicode hex="00F7"/>
  <outline>
    <contour>
      <point x="547" y="296" type="line"/>
      <point x="551" y="315" type="line"/>
      <point x="75" y="315" type="line"/>
      <point x="71" y="296" type="line"/>
    </contour>
    <contour>
      <point x="270" y="81" type="qcurve"/>
      <point x="287" y="81"/>
      <point x="299" y="93"/>
      <point x="301" y="102" type="qcurve"/>
      <point x="304" y="117"/>
      <point x="304" y="124" type="qcurve"/>
      <point x="304" y="143"/>
      <point x="276" y="143" type="qcurve"/>
      <point x="248" y="143"/>
      <point x="244" y="122" type="qcurve"/>
      <point x="241" y="107"/>
      <point x="241" y="100" type="qcurve"/>
      <point x="241" y="81"/>
    </contour>
    <contour>
      <point x="348" y="468" type="qcurve"/>
      <point x="365" y="468"/>
      <point x="377" y="480"/>
      <point x="379" y="489" type="qcurve"/>
      <point x="382" y="504"/>
      <point x="382" y="511" type="qcurve"/>
      <point x="382" y="530"/>
      <point x="354" y="530" type="qcurve"/>
      <point x="326" y="530"/>
      <point x="322" y="509" type="qcurve"/>
      <point x="319" y="494"/>
      <point x="319" y="487" type="qcurve"/>
      <point x="319" y="468"/>
    </contour>
  </outline>
</glyph>
<glyph name="oslash" format="2">
  <advance width="534"/>
  <unicode hex="00F8"/>
  <outline>
    <contour>
      <point x="43" y="-26" type="line"/>
      <point x="101" y="42" type="line"/>
      <point x="146" y="-12"/>
      <point x="225" y="-12" type="qcurve"/>
      <point x="287" y="-12"/>
      <point x="381" y="44"/>
      <point x="444" y="141"/>
      <point x="475" y="267"/>
      <point x="475" y="337" type="qcurve"/>
      <point x="475" y="402"/>
      <point x="444" y="449" type="qcurve"/>
      <point x="505" y="521" type="line"/>
      <point x="491" y="532" type="line"/>
      <point x="433" y="464" type="line"/>
      <point x="392" y="518"/>
      <point x="309" y="518" type="qcurve"/>
      <point x="190" y="518"/>
      <point x="123" y="414" type="qcurve"/>
      <point x="59" y="309"/>
      <point x="59" y="169" type="qcurve"/>
      <point x="59" y="105"/>
      <point x="90" y="57" type="qcurve"/>
      <point x="29" y="-15" type="line"/>
    </contour>
    <contour>
      <point x="103" y="73" type="line"/>
      <point x="80" y="115"/>
      <point x="80" y="169" type="qcurve"/>
      <point x="80" y="210"/>
      <point x="85" y="241" type="qcurve"/>
      <point x="93" y="281" type="line"/>
      <point x="114" y="384"/>
      <point x="222" y="499"/>
      <point x="307" y="499" type="qcurve"/>
      <point x="385" y="499"/>
      <point x="421" y="449" type="qcurve"/>
    </contour>
    <contour>
      <point x="227" y="7" type="qcurve"/>
      <point x="149" y="7"/>
      <point x="113" y="57" type="qcurve"/>
      <point x="431" y="433" type="line"/>
      <point x="454" y="393"/>
      <point x="454" y="337" type="qcurve"/>
      <point x="454" y="297"/>
      <point x="449" y="265" type="qcurve"/>
      <point x="441" y="225" type="line"/>
      <point x="421" y="122"/>
      <point x="312" y="7"/>
    </contour>
  </outline>
</glyph>
<glyph name="udieresis" format="2">
  <advance width="548"/>
  <unicode hex="00FC"/>
  <outline>
    <contour>
      <point x="206" y="-12" type="qcurve"/>
      <point x="269" y="-12"/>
      <point x="355" y="48"/>
      <point x="384" y="105" type="qcurve"/>
      <point x="387" y="105" type="line"/>
      <point x="371" y="25"/>
      <point x="371" y="19" type="qcurve"/>
      <point x="371" y="0"/>
      <point x="394" y="0" type="qcurve"/>
      <point x="472" y="0" type="line"/>
      <point x="476" y="19" type="line"/>
      <point x="391" y="19" type="line"/>
      <point x="488" y="506" type="line"/>
      <point x="467" y="506" type="line"/>
      <point x="405" y="194" type="line"/>
      <point x="389" y="122"/>
      <point x="342" y="69" type="qcurve"/>
      <point x="288" y="7"/>
      <point x="209" y="7" type="qcurve"/>
      <point x="95" y="7"/>
      <point x="95" y="123" type="qcurve"/>
      <point x="95" y="145"/>
      <point x="102" y="186" type="qcurve"/>
      <point x="166" y="506" type="line"/>
      <point x="145" y="506" type="line"/>
      <point x="81" y="185" type="line"/>
      <point x="74" y="150"/>
      <point x="74" y="120" type="qcurve"/>
      <point x="74" y="57"/>
      <point x="142" y="-12"/>
    </contour>
    <contour>
      <point x="246" y="642" type="qcurve"/>
      <point x="272" y="642"/>
      <point x="272" y="674" type="qcurve"/>
      <point x="272" y="691"/>
      <point x="252" y="691" type="qcurve"/>
      <point x="240" y="691"/>
      <point x="231" y="680"/>
      <point x="226" y="665"/>
      <point x="226" y="659" type="qcurve"/>
      <point x="226" y="642"/>
    </contour>
    <contour>
      <point x="428" y="642" type="qcurve"/>
      <point x="454" y="642"/>
      <point x="454" y="674" type="qcurve"/>
      <point x="454" y="691"/>
      <point x="434" y="691" type="qcurve"/>
      <point x="422" y="691"/>
      <point x="413" y="680"/>
      <point x="408" y="665"/>
      <point x="408" y="659" type="qcurve"/>
      <point x="408" y="642"/>
    </contour>
  </outline>
</glyph>
<glyph name="yacute" format="2">
  <advance width="460"/>
  <unicode hex="00FD"/>
  <outline>
    <contour>
      <point x="51" y="-200" type="line"/>
      <point x="65" y="-200"/>
      <point x="81" y="-189"/>
      <point x="89" y="-175" type="qcurve"/>
      <point x="477" y="506" type="line"/>
      <point x="454" y="506" type="line"/>
      <point x="181" y="24" type="line"/>
      <point x="178" y="24" type="line"/>
      <point x="93" y="506" type="line"/>
      <point x="73" y="506" type="line"/>
      <point x="164" y="-3" type="line"/>
      <point x="64" y="-181" type="line"/>
      <point x="-20" y="-181" type="line"/>
      <point x="-24" y="-200" type="line"/>
    </contour>
    <contour>
      <point x="264" y="587" type="line"/>
      <point x="411" y="738" type="line"/>
      <point x="394" y="751" type="line"/>
      <point x="251" y="598" type="line"/>
    </contour>
  </outline>
</glyph>
<glyph name="thorn" format="2">
  <advance width="560"/>
  <unicode hex="00FE"/>
  <outline>
    <contour>
      <point x="34" y="-200" type="line"/>
      <point x="92" y="93" type="line"/>
      <point x="95" y="93" type="line"/>
      <point x="109" y="45"/>
      <point x="187" y="-12"/>
      <point x="251" y="-12" type="qcurve"/>
      <point x="311" y="-12"/>
      <point x="404" y="42"/>
      <point x="436" y="90" type="qcurve"/>
      <point x="500" y="192"/>
      <point x="500" y="330" type="qcurve"/>
      <point x="500" y="410"/>
      <point x="415" y="518"/>
      <point x="337" y="518" type="qcurve"/>
      <point x="273" y="518"/>
      <point x="188" y="452"/>
      <point x="156" y="395" type="qcurve"/>
      <point x="153" y="395" type="line"/>
      <point x="222" y="740" type="line"/>
      <point x="201" y="740" type="line"/>
      <point x="13" y="-200" type="line"/>
    </contour>
    <contour>
      <point x="251" y="7" type="qcurve"/>
      <point x="167" y="7"/>
      <point x="129" y="59" type="qcurve"/>
      <point x="103" y="95"/>
      <point x="103" y="134" type="qcurve"/>
      <point x="103" y="147"/>
      <point x="106" y="160" type="qcurve"/>
      <point x="134" y="302" type="line"/>
      <point x="163" y="410"/>
      <point x="227" y="459" type="qcurve"/>
      <point x="273" y="499"/>
      <point x="337" y="499" type="qcurve"/>
      <point x="406" y="499"/>
      <point x="445" y="449" type="qcurve"/>
      <point x="479" y="401"/>
      <point x="479" y="330" type="qcurve"/>
      <point x="479" y="288"/>
      <point x="473" y="259" type="qcurve"/>
      <point x="466" y="224" type="line"/>
      <point x="446" y="124"/>
      <point x="337" y="7"/>
    </contour>
  </outline>
</glyph>
<glyph name="cdotaccent" format="2">
  <advance width="479"/>
  <unicode hex="010B"/>
  <outline>
    <contour>
      <point x="223" y="-12" type="qcurve"/>
      <point x="289" y="-12"/>
      <point x="386" y="56"/>
      <point x="422" y="114" type="qcurve"/>
      <point x="405" y="123" type="line"/>
      <point x="370" y="69"/>
      <point x="282" y="7"/>
      <point x="223" y="7" type="qcurve"/>
      <point x="151" y="7"/>
      <point x="115" y="60" type="qcurve"/>
      <point x="81" y="106"/>
      <point x="81" y="186" type="qcurve"/>
      <point x="81" y="205"/>
      <point x="84" y="233"/>
      <point x="96" y="297" type="qcurve"/>
      <point x="114" y="392"/>
      <point x="222" y="499"/>
      <point x="299" y="499" type="qcurve"/>
      <point x="350" y="499"/>
      <point x="420" y="447"/>
      <point x="432" y="398" type="qcurve"/>
      <point x="451" y="403" type="line"/>
      <point x="439" y="455"/>
      <point x="361" y="518"/>
      <point x="301" y="518" type="qcurve"/>
      <point x="243" y="518"/>
      <point x="153" y="467"/>
      <point x="123" y="422" type="qcurve"/>
      <point x="61" y="326"/>
      <point x="61" y="186" type="qcurve"/>
      <point x="61" y="101"/>
      <point x="144" y="-12"/>
    </contour>
    <contour>
      <point x="327" y="642" type="qcurve"/>
      <point x="353" y="642"/>
      <point x="353" y="674" type="qcurve"/>
      <point x="353" y="691"/>
      <point x="333" y="691" type="qcurve"/>
      <point x="321" y="691"/>
      <point x="312" y="680"/>
      <point x="307" y="665"/>
      <point x="307" y="659" type="qcurve"/>
      <point x="307" y="642"/>
    </contour>
  </outline>
</glyph>
<glyph name="ccaron" format="2">
  <advance width="479"/>
  <unicode hex="010D"/>
  <outline>
    <contour>
      <point x="223" y="-12" type="qcurve"/>
      <point x="289" y="-12"/>
      <point x="386" y="56"/>
      <point x="422" y="114" type="qcurve"/>
      <point x="405" y="123" type="line"/>
      <point x="370" y="69"/>
      <point x="282" y="7"/>
      <point x="223" y="7" type="qcurve"/>
      <point x="151" y="7"/>
      <point x="115" y="60" type="qcurve"/>
      <point x="81" y="106"/>
      <point x="81" y="186" type="qcurve"/>
      <point x="81" y="205"/>
      <point x="84" y="233"/>
      <point x="96" y="297" type="qcurve"/>
      <point x="114" y="392"/>
      <point x="222" y="499"/>
      <point x="299" y="499" type="qcurve"/>
      <point x="350" y="499"/>
      <point x="420" y="447"/>
      <point x="432" y="398" type="qcurve"/>
      <point x="451" y="403" type="line"/>
      <point x="439" y="455"/>
      <point x="361" y="518"/>
      <point x="301" y="518" type="qcurve"/>
      <point x="243" y="518"/>
      <point x="153" y="467"/>
      <point x="123" y="422" type="qcurve"/>
      <point x="61" y="326"/>
      <point x="61" y="186" type="qcurve"/>
      <point x="61" y="101"/>
      <point x="144" y="-12"/>
    </contour>
    <contour>
      <point x="329" y="603" type="line"/>
      <point x="479" y="735" type="line"/>
      <point x="466" y="747" type="line"/>
      <point x="318" y="620" type="line"/>
      <point x="214" y="747" type="line"/>
      <point x="199" y="737" type="line"/>
      <point x="305" y="603" type="line"/>
    </contour>
  </outline>
</glyph>
<glyph name="ebreve" format="2">
  <advance width="505"/>
  <unicode hex="0115"/>
  <outline>
    <contour>
      <point x="331" y="606" type="qcurve" smooth="yes"/>
      <point x="282" y="606"/>
      <point x="233" y="667"/>
      <point x="216" y="723" type="qcurve"/>
      <point x="232" y="730" type="line"/>
      <point x="247" y="693" type="line"/>
      <point x="270" y="625"/>
      <point x="331" y="625" type="qcurve" smooth="yes"/>
      <point x="365" y="625"/>
      <point x="412" y="656"/>
      <point x="438" y="694" type="qcurve" smooth="yes"/>
      <point x="463" y="730" type="line"/>
      <point x="479" y="723" type="line"/>
      <point x="476" y="719" type="line"/>
      <point x="444" y="667"/>
      <point x="384" y="606"/>
    </contour>
    <contour>
      <point x="237" y="-12" type="qcurve" smooth="yes"/>
      <point x="61" y="-12"/>
      <point x="61" y="187" type="qcurve" smooth="yes"/>
      <point x="61" y="325"/>
      <point x="130" y="422" type="qcurve" smooth="yes"/>
      <point x="163" y="467"/>
      <point x="253" y="518"/>
      <point x="308" y="518" type="qcurve" smooth="yes"/>
      <point x="380" y="518"/>
      <point x="466" y="452"/>
      <point x="466" y="395" type="qcurve" smooth="yes"/>
      <point x="466" y="332"/>
      <point x="403" y="293" type="qcurve" smooth="yes"/>
      <point x="317" y="239"/>
      <point x="85" y="233" type="qcurve"/>
      <point x="82" y="201"/>
      <point x="82" y="189" type="qcurve" smooth="yes"/>
      <point x="82" y="92"/>
      <point x="159" y="7"/>
      <point x="237" y="7" type="qcurve" smooth="yes"/>
      <point x="362" y="7"/>
      <point x="426" y="132" type="qcurve"/>
      <point x="445" y="124" type="line"/>
      <point x="371" y="-12"/>
    </contour>
    <contour>
      <point x="87" y="252" type="line"/>
      <point x="305" y="258"/>
      <point x="378" y="300" type="qcurve"/>
      <point x="444" y="335"/>
      <point x="444" y="395" type="qcurve" smooth="yes"/>
      <point x="444" y="441"/>
      <point x="379" y="499"/>
      <point x="306" y="499" type="qcurve" smooth="yes"/>
      <point x="222" y="499"/>
      <point x="109" y="371"/>
      <point x="90" y="269" type="qcurve" smooth="yes"/>
    </contour>
  </outline>
</glyph>
<glyph name="Edotaccent" format="2">
  <advance width="553"/>
  <unicode hex="0116"/>
  <outline>
    <contour>
      <point x="432" y="0" type="line"/>
      <point x="436" y="20" type="line"/>
      <point x="80" y="20" type="line"/>
      <point x="145" y="344" type="line"/>
      <point x="489" y="344" type="line"/>
      <point x="493" y="364" type="line"/>
      <point x="149" y="364" type="line"/>
      <point x="212" y="678" type="line"/>
      <point x="568" y="678" type="line"/>
      <point x="572" y="698" type="line"/>
      <point x="194" y="698" type="line"/>
      <point x="54" y="0" type="line"/>
    </contour>
    <contour>
      <point x="405" y="822" type="qcurve"/>
      <point x="431" y="822"/>
      <point x="431" y="854" type="qcurve"/>
      <point x="431" y="871"/>
      <point x="411" y="871" type="qcurve"/>
      <point x="399" y="871"/>
      <point x="390" y="860"/>
      <point x="385" y="845"/>
      <point x="385" y="839" type="qcurve"/>
      <point x="385" y="822"/>
    </contour>
  </outline>
</glyph>
<glyph name="Eogonek" format="2">
  <advance width="553"/>
  <unicode hex="0118"/>
  <outline>
    <contour>
      <point x="335" y="-202" type="qcurve" smooth="yes"/>
      <point x="304" y="-202"/>
      <point x="263" y="-170"/>
      <point x="263" y="-136" type="qcurve" smooth="yes"/>
      <point x="263" y="-106"/>
      <point x="320" y="-44"/>
      <point x="402" y="-3" type="qcurve"/>
      <point x="401" y="0" type="line"/>
      <point x="54" y="0" type="line"/>
      <point x="194" y="698" type="line"/>
      <point x="572" y="698" type="line"/>
      <point x="568" y="678" type="line"/>
      <point x="212" y="678" type="line"/>
      <point x="149" y="364" type="line"/>
      <point x="493" y="364" type="line"/>
      <point x="489" y="344" type="line"/>
      <point x="145" y="344" type="line"/>
      <point x="80" y="20" type="line"/>
      <point x="436" y="20" type="line"/>
      <point x="432" y="0" type="line"/>
      <point x="355" y="-42"/>
      <point x="284" y="-98"/>
      <point x="284" y="-136" type="qcurve" smooth="yes"/>
      <point x="284" y="-160"/>
      <point x="313" y="-184"/>
      <point x="335" y="-184" type="qcurve" smooth="yes"/>
      <point x="376" y="-184"/>
      <point x="400" y="-159" type="qcurve"/>
      <point x="413" y="-170" type="line"/>
      <point x="388" y="-202"/>
    </contour>
  </outline>
</glyph>
<glyph name="eogonek" format="2">
  <advance width="505"/>
  <unicode hex="0119"/>
  <outline>
    <contour>
      <point x="249" y="-202" type="qcurve"/>
      <point x="302" y="-202"/>
      <point x="327" y="-170" type="qcurve"/>
      <point x="314" y="-159" type="line"/>
      <point x="290" y="-184"/>
      <point x="249" y="-184" type="qcurve"/>
      <point x="227" y="-184"/>
      <point x="198" y="-160"/>
      <point x="198" y="-136" type="qcurve"/>
      <point x="198" y="-94"/>
      <point x="264" y="-30"/>
      <point x="335" y="10" type="qcurve"/>
      <point x="398" y="43"/>
      <point x="445" y="124" type="qcurve"/>
      <point x="426" y="132" type="line"/>
      <point x="362" y="7"/>
      <point x="237" y="7" type="qcurve"/>
      <point x="159" y="7"/>
      <point x="82" y="92"/>
      <point x="82" y="189" type="qcurve"/>
      <point x="82" y="201"/>
      <point x="85" y="233" type="qcurve"/>
      <point x="317" y="239"/>
      <point x="403" y="293" type="qcurve"/>
      <point x="466" y="333"/>
      <point x="466" y="395" type="qcurve"/>
      <point x="466" y="452"/>
      <point x="380" y="518"/>
      <point x="308" y="518" type="qcurve"/>
      <point x="253" y="518"/>
      <point x="163" y="467"/>
      <point x="130" y="422" type="qcurve"/>
      <point x="61" y="325"/>
      <point x="61" y="187" type="qcurve"/>
      <point x="61" y="-12"/>
      <point x="237" y="-12" type="qcurve"/>
      <point x="261" y="-12"/>
      <point x="285" y="-6" type="qcurve"/>
      <point x="285" y="-9" type="line"/>
      <point x="221" y="-43"/>
      <point x="198" y="-76" type="qcurve"/>
      <point x="177" y="-110"/>
      <point x="177" y="-136" type="qcurve"/>
      <point x="177" y="-170"/>
      <point x="218" y="-202"/>
    </contour>
    <contour>
      <point x="87" y="252" type="qcurve"/>
      <point x="90" y="269" type="line"/>
      <point x="109" y="371"/>
      <point x="222" y="499"/>
      <point x="306" y="499" type="qcurve"/>
      <point x="379" y="499"/>
      <point x="444" y="441"/>
      <point x="444" y="395" type="qcurve"/>
      <point x="444" y="335"/>
      <point x="378" y="300" type="qcurve"/>
      <point x="305" y="258"/>
    </contour>
  </outline>
</glyph>
<glyph name="Ecaron" format="2">
  <advance width="553"/>
  <unicode hex="011A"/>
  <outline>
    <contour>
      <point x="432" y="0" type="line"/>
      <point x="436" y="20" type="line"/>
      <point x="80" y="20" type="line"/>
      <point x="145" y="344" type="line"/>
      <point x="489" y="344" type="line"/>
      <point x="493" y="364" type="line"/>
      <point x="149" y="364" type="line"/>
      <point x="212" y="678" type="line"/>
      <point x="568" y="678" type="line"/>
      <point x="572" y="698" type="line"/>
      <point x="194" y="698" type="line"/>
      <point x="54" y="0" type="line"/>
    </contour>
    <contour>
      <point x="410" y="783" type="line"/>
      <point x="560" y="915" type="line"/>
      <point x="547" y="927" type="line"/>
      <point x="399" y="800" type="line"/>
      <point x="295" y="927" type="line"/>
      <point x="280" y="917" type="line"/>
      <point x="386" y="783" type="line"/>
    </contour>
  </outline>
</glyph>
<glyph name="ecaron" format="2">
  <advance width="505"/>
  <unicode hex="011B"/>
  <outline>
    <contour>
      <point x="237" y="-12" type="qcurve"/>
      <point x="371" y="-12"/>
      <point x="445" y="124" type="qcurve"/>
      <point x="426" y="132" type="line"/>
      <point x="362" y="7"/>
      <point x="237" y="7" type="qcurve"/>
      <point x="159" y="7"/>
      <point x="82" y="92"/>
      <point x="82" y="189" type="qcurve"/>
      <point x="82" y="201"/>
      <point x="85" y="233" type="qcurve"/>
      <point x="317" y="239"/>
      <point x="403" y="293" type="qcurve"/>
      <point x="466" y="332"/>
      <point x="466" y="395" type="qcurve"/>
      <point x="466" y="452"/>
      <point x="380" y="518"/>
      <point x="308" y="518" type="qcurve"/>
      <point x="253" y="518"/>
      <point x="163" y="467"/>
      <point x="130" y="422" type="qcurve"/>
      <point x="61" y="325"/>
      <point x="61" y="187" type="qcurve"/>
      <point x="61" y="-12"/>
    </contour>
    <contour>
      <point x="87" y="252" type="qcurve"/>
      <point x="90" y="269" type="line"/>
      <point x="109" y="371"/>
      <point x="222" y="499"/>
      <point x="306" y="499" type="qcurve"/>
      <point x="379" y="499"/>
      <point x="444" y="441"/>
      <point x="444" y="395" type="qcurve"/>
      <point x="444" y="335"/>
      <point x="378" y="300" type="qcurve"/>
      <point x="305" y="258"/>
    </contour>
    <contour>
      <point x="340" y="603" type="line"/>
      <point x="490" y="735" type="line"/>
      <point x="477" y="747" type="line"/>
      <point x="329" y="620" type="line"/>
      <point x="225" y="747" type="line"/>
      <point x="210" y="737" type="line"/>
      <point x="316" y="603" type="line"/>
    </contour>
  </outline>
</glyph>
<glyph name="gcircumflex" format="2">
  <advance width="551"/>
  <unicode hex="011D"/>
  <outline>
    <contour>
      <point x="468" y="599" type="line"/>
      <point x="364" y="726" type="line"/>
      <point x="216" y="599" type="line"/>
      <point x="203" y="611" type="line"/>
      <point x="353" y="743" type="line"/>
      <point x="377" y="743" type="line"/>
      <point x="483" y="609" type="line"/>
    </contour>
    <contour>
      <point x="174" y="-212" type="qcurve"/>
      <point x="69" y="-212"/>
      <point x="18" y="-145" type="qcurve"/>
      <point x="34" y="-131" type="line"/>
      <point x="78" y="-193"/>
      <point x="174" y="-193" type="qcurve"/>
      <point x="347" y="-193"/>
      <point x="383" y="-13" type="qcurve"/>
      <point x="407" y="111" type="line"/>
      <point x="404" y="111" type="line"/>
      <point x="373" y="55"/>
      <point x="287" y="-12"/>
      <point x="223" y="-12" type="qcurve"/>
      <point x="144" y="-12"/>
      <point x="60" y="96"/>
      <point x="60" y="176" type="qcurve"/>
      <point x="60" y="268"/>
      <point x="118" y="424"/>
      <point x="229" y="518"/>
      <point x="309" y="518" type="qcurve"/>
      <point x="373" y="518"/>
      <point x="451" y="460"/>
      <point x="465" y="413" type="qcurve"/>
      <point x="468" y="413" type="line"/>
      <point x="487" y="506" type="line"/>
      <point x="508" y="506" type="line"/>
      <point x="403" y="-18" type="line"/>
      <point x="364" y="-212"/>
    </contour>
    <contour>
      <point x="223" y="7" type="qcurve"/>
      <point x="321" y="7"/>
      <point x="389" y="111" type="qcurve"/>
      <point x="415" y="151"/>
      <point x="426" y="204" type="qcurve"/>
      <point x="454" y="346" type="line"/>
      <point x="457" y="359"/>
      <point x="457" y="371" type="qcurve"/>
      <point x="457" y="393"/>
      <point x="437" y="450"/>
      <point x="369" y="499"/>
      <point x="309" y="499" type="qcurve"/>
      <point x="223" y="499"/>
      <point x="114" y="382"/>
      <point x="94" y="282" type="qcurve"/>
      <point x="87" y="247" type="line"/>
      <point x="81" y="218"/>
      <point x="81" y="176" type="qcurve"/>
      <point x="81" y="130"/>
      <point x="111" y="53"/>
      <point x="174" y="7"/>
    </contour>
  </outline>
</glyph>
<glyph name="Gbreve" format="2">
  <advance width="540"/>
  <unicode hex="011E"/>
  <outline>
    <contour>
      <point x="61" y="218" type="qcurve"/>
      <point x="61" y="255"/>
      <point x="70" y="336"/>
      <point x="77" y="377" type="qcurve"/>
      <point x="89" y="441"/>
      <point x="139" y="559"/>
      <point x="216" y="654"/>
      <point x="326" y="710"/>
      <point x="399" y="710" type="qcurve"/>
      <point x="460" y="710"/>
      <point x="546" y="674"/>
      <point x="597" y="609"/>
      <point x="608" y="565" type="qcurve"/>
      <point x="587" y="559" type="line"/>
      <point x="577" y="599"/>
      <point x="531" y="658"/>
      <point x="455" y="689"/>
      <point x="397" y="689" type="qcurve"/>
      <point x="327" y="689"/>
      <point x="211" y="625"/>
      <point x="128" y="494"/>
      <point x="108" y="396" type="qcurve"/>
      <point x="95" y="336" type="line"/>
      <point x="88" y="302"/>
      <point x="84" y="242"/>
      <point x="84" y="218" type="qcurve"/>
      <point x="84" y="172"/>
      <point x="110" y="95"/>
      <point x="162" y="39"/>
      <point x="242" y="9"/>
      <point x="296" y="9" type="qcurve"/>
      <point x="378" y="9"/>
      <point x="507" y="101"/>
      <point x="527" y="201" type="qcurve"/>
      <point x="550" y="311" type="line"/>
      <point x="325" y="311" type="line"/>
      <point x="325" y="332" type="line"/>
      <point x="577" y="332" type="line"/>
      <point x="550" y="200" type="line"/>
      <point x="540" y="151"/>
      <point x="495" y="71"/>
      <point x="430" y="17"/>
      <point x="345" y="-12"/>
      <point x="296" y="-12" type="qcurve"/>
      <point x="238" y="-12"/>
      <point x="151" y="19"/>
      <point x="91" y="79"/>
      <point x="61" y="164"/>
    </contour>
    <contour>
      <point x="423" y="786" type="qcurve"/>
      <point x="390" y="786"/>
      <point x="348" y="814"/>
      <point x="320" y="866"/>
      <point x="308" y="903" type="qcurve"/>
      <point x="324" y="910" type="line"/>
      <point x="339" y="873" type="line"/>
      <point x="354" y="836"/>
      <point x="392" y="805"/>
      <point x="423" y="805" type="qcurve"/>
      <point x="458" y="805"/>
      <point x="503" y="835"/>
      <point x="530" y="874" type="qcurve"/>
      <point x="555" y="910" type="line"/>
      <point x="571" y="903" type="line"/>
      <point x="548" y="867"/>
      <point x="507" y="814"/>
      <point x="458" y="786"/>
    </contour>
  </outline>
</glyph>
<glyph name="Gdotaccent" format="2">
  <advance width="595"/>
  <unicode hex="0120"/>
  <outline>
    <contour>
      <point x="406" y="822" type="qcurve" smooth="yes"/>
      <point x="394" y="822"/>
      <point x="386" y="833"/>
      <point x="386" y="839" type="qcurve" smooth="yes"/>
      <point x="386" y="843"/>
      <point x="388" y="850"/>
      <point x="389" y="854" type="qcurve" smooth="yes"/>
      <point x="391" y="861"/>
      <point x="400" y="871"/>
      <point x="412" y="871" type="qcurve" smooth="yes"/>
      <point x="424" y="871"/>
      <point x="432" y="860"/>
      <point x="432" y="854" type="qcurve" smooth="yes"/>
      <point x="432" y="850"/>
      <point x="431" y="844"/>
      <point x="429" y="839" type="qcurve" smooth="yes"/>
      <point x="427" y="832"/>
      <point x="418" y="822"/>
    </contour>
    <contour>
      <point x="553" y="332" type="line"/>
      <point x="526" y="200" type="line" smooth="yes"/>
      <point x="516" y="151"/>
      <point x="471" y="71"/>
      <point x="406" y="17"/>
      <point x="321" y="-12"/>
      <point x="272" y="-12" type="qcurve" smooth="yes"/>
      <point x="214" y="-12"/>
      <point x="127" y="19"/>
      <point x="67" y="79"/>
      <point x="37" y="164"/>
      <point x="37" y="218" type="qcurve" smooth="yes"/>
      <point x="37" y="255"/>
      <point x="46" y="336"/>
      <point x="53" y="377" type="qcurve" smooth="yes"/>
      <point x="65" y="441"/>
      <point x="115" y="559"/>
      <point x="192" y="654"/>
      <point x="302" y="710"/>
      <point x="375" y="710" type="qcurve" smooth="yes"/>
      <point x="436" y="710"/>
      <point x="522" y="674"/>
      <point x="573" y="609"/>
      <point x="584" y="565" type="qcurve"/>
      <point x="563" y="559" type="line"/>
      <point x="553" y="599"/>
      <point x="507" y="658"/>
      <point x="431" y="689"/>
      <point x="373" y="689" type="qcurve" smooth="yes"/>
      <point x="303" y="689"/>
      <point x="187" y="625"/>
      <point x="104" y="494"/>
      <point x="84" y="396" type="qcurve" smooth="yes"/>
      <point x="71" y="336" type="line" smooth="yes"/>
      <point x="64" y="302"/>
      <point x="60" y="242"/>
      <point x="60" y="218" type="qcurve" smooth="yes"/>
      <point x="60" y="172"/>
      <point x="86" y="95"/>
      <point x="138" y="39"/>
      <point x="218" y="9"/>
      <point x="272" y="9" type="qcurve" smooth="yes"/>
      <point x="354" y="9"/>
      <point x="483" y="101"/>
      <point x="503" y="201" type="qcurve" smooth="yes"/>
      <point x="526" y="311" type="line"/>
      <point x="299" y="311" type="line"/>
      <point x="303" y="332" type="line"/>
    </contour>
  </outline>
</glyph>
<glyph name="Hcircumflex" format="2">
  <advance width="680"/>
  <unicode hex="0124"/>
  <outline>
    <contour>
      <point x="524" y="0" type="line"/>
      <point x="664" y="698" type="line"/>
      <point x="642" y="698" type="line"/>
      <point x="575" y="364" type="line"/>
      <point x="149" y="364" type="line"/>
      <point x="216" y="698" type="line"/>
      <point x="194" y="698" type="line"/>
      <point x="54" y="0" type="line"/>
      <point x="76" y="0" type="line"/>
      <point x="145" y="344" type="line"/>
      <point x="571" y="344" type="line"/>
      <point x="502" y="0" type="line"/>
    </contour>
    <contour>
      <point x="576" y="779" type="line"/>
      <point x="591" y="789" type="line"/>
      <point x="485" y="923" type="line"/>
      <point x="461" y="923" type="line"/>
      <point x="311" y="791" type="line"/>
      <point x="324" y="779" type="line"/>
      <point x="472" y="906" type="line"/>
    </contour>
  </outline>
</glyph>
<glyph name="hcircumflex" format="2">
  <advance width="549"/>
  <unicode hex="0125"/>
  <outline>
    <contour>
      <point x="482" y="0" type="line"/>
      <point x="486" y="19" type="line"/>
      <point x="401" y="19" type="line"/>
      <point x="461" y="321" type="line"/>
      <point x="468" y="356"/>
      <point x="468" y="386" type="qcurve"/>
      <point x="468" y="449"/>
      <point x="400" y="518"/>
      <point x="336" y="518" type="qcurve"/>
      <point x="273" y="518"/>
      <point x="188" y="458"/>
      <point x="158" y="401" type="qcurve"/>
      <point x="155" y="401" type="line"/>
      <point x="222" y="740" type="line"/>
      <point x="201" y="740" type="line"/>
      <point x="54" y="0" type="line"/>
      <point x="75" y="0" type="line"/>
      <point x="137" y="312" type="line"/>
      <point x="153" y="384"/>
      <point x="200" y="437" type="qcurve"/>
      <point x="254" y="499"/>
      <point x="333" y="499" type="qcurve"/>
      <point x="447" y="499"/>
      <point x="447" y="383" type="qcurve"/>
      <point x="447" y="361"/>
      <point x="440" y="320" type="qcurve"/>
      <point x="381" y="25"/>
      <point x="381" y="19" type="qcurve"/>
      <point x="381" y="0"/>
      <point x="404" y="0" type="qcurve"/>
    </contour>
    <contour>
      <point x="344" y="747" type="line"/>
      <point x="359" y="757" type="line"/>
      <point x="253" y="891" type="line"/>
      <point x="229" y="891" type="line"/>
      <point x="79" y="759" type="line"/>
      <point x="92" y="747" type="line"/>
      <point x="240" y="874" type="line"/>
    </contour>
  </outline>
</glyph>
<glyph name="hbar" format="2">
  <advance width="552"/>
  <unicode hex="0127"/>
  <outline>
    <contour>
      <point x="485" y="0" type="line"/>
      <point x="489" y="19" type="line"/>
      <point x="404" y="19" type="line"/>
      <point x="464" y="321" type="line"/>
      <point x="471" y="356"/>
      <point x="471" y="386" type="qcurve"/>
      <point x="471" y="449"/>
      <point x="403" y="518"/>
      <point x="339" y="518" type="qcurve"/>
      <point x="276" y="518"/>
      <point x="191" y="458"/>
      <point x="161" y="401" type="qcurve"/>
      <point x="158" y="401" type="line"/>
      <point x="203" y="629" type="line"/>
      <point x="365" y="629" type="line"/>
      <point x="369" y="647" type="line"/>
      <point x="207" y="647" type="line"/>
      <point x="225" y="740" type="line"/>
      <point x="204" y="740" type="line"/>
      <point x="186" y="647" type="line"/>
      <point x="119" y="647" type="line"/>
      <point x="115" y="629" type="line"/>
      <point x="182" y="629" type="line"/>
      <point x="57" y="0" type="line"/>
      <point x="78" y="0" type="line"/>
      <point x="140" y="312" type="line"/>
      <point x="156" y="384"/>
      <point x="203" y="437" type="qcurve"/>
      <point x="257" y="499"/>
      <point x="336" y="499" type="qcurve"/>
      <point x="450" y="499"/>
      <point x="450" y="383" type="qcurve"/>
      <point x="450" y="361"/>
      <point x="443" y="320" type="qcurve"/>
      <point x="384" y="25"/>
      <point x="384" y="19" type="qcurve"/>
      <point x="384" y="0"/>
      <point x="407" y="0" type="qcurve"/>
    </contour>
  </outline>
</glyph>
<glyph name="Itilde" format="2">
  <advance width="232"/>
  <unicode hex="0128"/>
  <outline>
    <contour>
      <point x="288" y="808" type="qcurve"/>
      <point x="330" y="808"/>
      <point x="373" y="847" type="qcurve"/>
      <point x="362" y="859" type="line"/>
      <point x="328" y="826"/>
      <point x="293" y="826" type="qcurve"/>
      <point x="276" y="826"/>
      <point x="247" y="839"/>
      <point x="229" y="852" type="qcurve"/>
      <point x="207" y="868"/>
      <point x="177" y="882"/>
      <point x="157" y="882" type="qcurve"/>
      <point x="115" y="882"/>
      <point x="72" y="843" type="qcurve"/>
      <point x="83" y="831" type="line"/>
      <point x="121" y="864"/>
      <point x="152" y="864" type="qcurve"/>
      <point x="169" y="864"/>
      <point x="198" y="852"/>
      <point x="216" y="839" type="qcurve"/>
      <point x="239" y="823"/>
      <point x="268" y="808"/>
    </contour>
    <contour>
      <point x="76" y="0" type="line"/>
      <point x="216" y="698" type="line"/>
      <point x="194" y="698" type="line"/>
      <point x="54" y="0" type="line"/>
    </contour>
  </outline>
</glyph>
<glyph name="itilde" format="2">
  <advance width="235"/>
  <unicode hex="0129"/>
  <outline>
    <contour>
      <point x="262" y="628" type="qcurve" smooth="yes"/>
      <point x="242" y="628"/>
      <point x="213" y="643"/>
      <point x="190" y="659" type="qcurve" smooth="yes"/>
      <point x="172" y="672"/>
      <point x="143" y="684"/>
      <point x="126" y="684" type="qcurve" smooth="yes"/>
      <point x="95" y="684"/>
      <point x="57" y="651" type="qcurve"/>
      <point x="46" y="663" type="line"/>
      <point x="89" y="702"/>
      <point x="131" y="702" type="qcurve" smooth="yes"/>
      <point x="151" y="702"/>
      <point x="181" y="688"/>
      <point x="203" y="672" type="qcurve" smooth="yes"/>
      <point x="221" y="659"/>
      <point x="250" y="646"/>
      <point x="267" y="646" type="qcurve" smooth="yes"/>
      <point x="302" y="646"/>
      <point x="336" y="679" type="qcurve"/>
      <point x="347" y="667" type="line"/>
      <point x="304" y="628"/>
    </contour>
    <contour>
      <point x="81" y="0" type="line" smooth="yes"/>
      <point x="58" y="0"/>
      <point x="58" y="19" type="qcurve" smooth="yes"/>
      <point x="58" y="25"/>
      <point x="155" y="506" type="qcurve"/>
      <point x="176" y="506" type="line"/>
      <point x="78" y="19" type="line"/>
      <point x="163" y="19" type="line"/>
      <point x="159" y="0" type="line"/>
    </contour>
  </outline>
</glyph>
<glyph name="Imacron" format="2">
  <advance width="232"/>
  <unicode hex="012A"/>
  <outline>
    <contour>
      <point x="103" y="838" type="line"/>
      <point x="106" y="856" type="line"/>
      <point x="364" y="856" type="line"/>
      <point x="361" y="838" type="line"/>
    </contour>
    <contour>
      <point x="54" y="0" type="line"/>
      <point x="194" y="698" type="line"/>
      <point x="216" y="698" type="line"/>
      <point x="76" y="0" type="line"/>
    </contour>
  </outline>
</glyph>
<glyph name="imacron" format="2">
  <advance width="235"/>
  <unicode hex="012B"/>
  <outline>
    <contour>
      <point x="159" y="0" type="line"/>
      <point x="163" y="19" type="line"/>
      <point x="78" y="19" type="line"/>
      <point x="176" y="506" type="line"/>
      <point x="155" y="506" type="line"/>
      <point x="58" y="25"/>
      <point x="58" y="19" type="qcurve"/>
      <point x="58" y="0"/>
      <point x="81" y="0" type="qcurve"/>
    </contour>
    <contour>
      <point x="324" y="658" type="line"/>
      <point x="327" y="676" type="line"/>
      <point x="69" y="676" type="line"/>
      <point x="66" y="658" type="line"/>
    </contour>
  </outline>
</glyph>
<glyph name="ibreve" format="2">
  <advance width="235"/>
  <unicode hex="012D"/>
  <outline>
    <contour>
      <point x="187" y="606" type="qcurve" smooth="yes"/>
      <point x="138" y="606"/>
      <point x="89" y="667"/>
      <point x="72" y="723" type="qcurve"/>
      <point x="88" y="730" type="line"/>
      <point x="103" y="693" type="line"/>
      <point x="126" y="625"/>
      <point x="187" y="625" type="qcurve" smooth="yes"/>
      <point x="221" y="625"/>
      <point x="268" y="656"/>
      <point x="294" y="694" type="qcurve" smooth="yes"/>
      <point x="319" y="730" type="line"/>
      <point x="335" y="723" type="line"/>
      <point x="332" y="719" type="line"/>
      <point x="300" y="667"/>
      <point x="240" y="606"/>
    </contour>
    <contour>
      <point x="81" y="0" type="line" smooth="yes"/>
      <point x="58" y="0"/>
      <point x="58" y="19" type="qcurve" smooth="yes"/>
      <point x="58" y="25"/>
      <point x="155" y="506" type="qcurve"/>
      <point x="176" y="506" type="line"/>
      <point x="78" y="19" type="line"/>
      <point x="163" y="19" type="line"/>
      <point x="159" y="0" type="line"/>
    </contour>
  </outline>
</glyph>
<glyph name="Iogonek" format="2">
  <advance width="232"/>
  <unicode hex="012E"/>
  <outline>
    <contour>
      <point x="-21" y="-202" type="qcurve" smooth="yes"/>
      <point x="-52" y="-202"/>
      <point x="-93" y="-170"/>
      <point x="-93" y="-136" type="qcurve" smooth="yes"/>
      <point x="-93" y="-107"/>
      <point x="-34" y="-42"/>
      <point x="54" y="0" type="qcurve"/>
      <point x="194" y="698" type="line"/>
      <point x="216" y="698" type="line"/>
      <point x="76" y="0" type="line"/>
      <point x="-1" y="-42"/>
      <point x="-72" y="-98"/>
      <point x="-72" y="-136" type="qcurve" smooth="yes"/>
      <point x="-72" y="-160"/>
      <point x="-43" y="-184"/>
      <point x="-21" y="-184" type="qcurve" smooth="yes"/>
      <point x="20" y="-184"/>
      <point x="44" y="-159" type="qcurve"/>
      <point x="57" y="-170" type="line"/>
      <point x="32" y="-202"/>
    </contour>
  </outline>
</glyph>
<glyph name="Idotaccent" format="2">
  <advance width="232"/>
  <unicode hex="0130"/>
  <outline>
    <contour>
      <point x="230" y="822" type="qcurve" smooth="yes"/>
      <point x="210" y="822"/>
      <point x="210" y="839" type="qcurve" smooth="yes"/>
      <point x="210" y="845"/>
      <point x="215" y="860"/>
      <point x="224" y="871"/>
      <point x="236" y="871" type="qcurve" smooth="yes"/>
      <point x="256" y="871"/>
      <point x="256" y="854" type="qcurve" smooth="yes"/>
      <point x="256" y="822"/>
    </contour>
    <contour>
      <point x="54" y="0" type="line"/>
      <point x="194" y="698" type="line"/>
      <point x="216" y="698" type="line"/>
      <point x="76" y="0" type="line"/>
    </contour>
  </outline>
</glyph>
<glyph name="dotlessi" format="2">
  <advance width="235"/>
  <unicode hex="0131"/>
  <outline>
    <contour>
      <point x="81" y="0" type="line" smooth="yes"/>
      <point x="58" y="0"/>
      <point x="58" y="19" type="qcurve" smooth="yes"/>
      <point x="58" y="25"/>
      <point x="155" y="506" type="qcurve"/>
      <point x="176" y="506" type="line"/>
      <point x="78" y="19" type="line"/>
      <point x="163" y="19" type="line"/>
      <point x="159" y="0" type="line"/>
    </contour>
  </outline>
</glyph>
<glyph name="kra" format="2">
  <advance width="471"/>
  <unicode hex="0138"/>
  <outline>
    <contour>
      <point x="423" y="0" type="line"/>
      <point x="427" y="19" type="line"/>
      <point x="370" y="19" type="line"/>
      <point x="235" y="281" type="line"/>
      <point x="487" y="506" type="line"/>
      <point x="460" y="506" type="line"/>
      <point x="232" y="304" type="line"/>
      <point x="120" y="210" type="line"/>
      <point x="116" y="210" type="line"/>
      <point x="175" y="506" type="line"/>
      <point x="154" y="506" type="line"/>
      <point x="53" y="0" type="line"/>
      <point x="74" y="0" type="line"/>
      <point x="110" y="178" type="line"/>
      <point x="218" y="268" type="line"/>
      <point x="345" y="21" type="line"/>
      <point x="351" y="10"/>
      <point x="363" y="0"/>
      <point x="374" y="0" type="qcurve"/>
    </contour>
  </outline>
</glyph>
<glyph name="Lcaron" format="2">
  <advance width="468"/>
  <unicode hex="013D"/>
  <outline>
    <contour>
      <point x="294" y="564" type="line"/>
      <point x="339" y="740" type="line"/>
      <point x="364" y="740" type="line"/>
      <point x="311" y="564" type="line"/>
    </contour>
    <contour>
      <point x="54" y="0" type="line"/>
      <point x="194" y="698" type="line"/>
      <point x="216" y="698" type="line"/>
      <point x="80" y="20" type="line"/>
      <point x="405" y="20" type="line"/>
      <point x="401" y="0" type="line"/>
    </contour>
  </outline>
</glyph>
<glyph name="lcaron" format="2">
  <advance width="235"/>
  <unicode hex="013E"/>
  <outline>
    <contour>
      <point x="81" y="0" type="line" smooth="yes"/>
      <point x="58" y="0"/>
      <point x="58" y="19" type="qcurve" smooth="yes"/>
      <point x="58" y="25"/>
      <point x="201" y="740" type="qcurve"/>
      <point x="222" y="740" type="line"/>
      <point x="78" y="19" type="line"/>
      <point x="163" y="19" type="line"/>
      <point x="159" y="0" type="line"/>
    </contour>
    <contour>
      <point x="264" y="564" type="line"/>
      <point x="309" y="740" type="line"/>
      <point x="334" y="740" type="line"/>
      <point x="281" y="564" type="line"/>
    </contour>
  </outline>
</glyph>
<glyph name="Lmiddledot" format="2">
  <advance width="468"/>
  <unicode hex="013F"/>
  <outline>
    <contour>
      <point x="401" y="0" type="line"/>
      <point x="405" y="20" type="line"/>
      <point x="80" y="20" type="line"/>
      <point x="216" y="698" type="line"/>
      <point x="194" y="698" type="line"/>
      <point x="54" y="0" type="line"/>
    </contour>
    <contour>
      <point x="345" y="274" type="qcurve"/>
      <point x="371" y="274"/>
      <point x="371" y="306" type="qcurve"/>
      <point x="371" y="323"/>
      <point x="351" y="323" type="qcurve"/>
      <point x="339" y="323"/>
      <point x="330" y="312"/>
      <point x="325" y="297"/>
      <point x="325" y="291" type="qcurve"/>
      <point x="325" y="274"/>
    </contour>
  </outline>
</glyph>
<glyph name="lslash" format="2">
  <advance width="242"/>
  <unicode hex="0142"/>
  <outline>
    <contour>
      <point x="163" y="0" type="line"/>
      <point x="167" y="19" type="line"/>
      <point x="82" y="19" type="line"/>
      <point x="150" y="358" type="line"/>
      <point x="243" y="388" type="line"/>
      <point x="243" y="408" type="line"/>
      <point x="154" y="379" type="line"/>
      <point x="226" y="740" type="line"/>
      <point x="205" y="740" type="line"/>
      <point x="131" y="372" type="line"/>
      <point x="54" y="347" type="line"/>
      <point x="54" y="327" type="line"/>
      <point x="127" y="351" type="line"/>
      <point x="62" y="25"/>
      <point x="62" y="19" type="qcurve"/>
      <point x="62" y="0"/>
      <point x="85" y="0" type="qcurve"/>
    </contour>
  </outline>
</glyph>
<glyph name="Nacute" format="2">
  <advance width="680"/>
  <unicode hex="0143"/>
  <outline>
    <contour>
      <point x="524" y="0" type="line"/>
      <point x="664" y="698" type="line"/>
      <point x="643" y="698" type="line"/>
      <point x="509" y="27" type="line"/>
      <point x="506" y="27" type="line"/>
      <point x="224" y="698" type="line"/>
      <point x="194" y="698" type="line"/>
      <point x="54" y="0" type="line"/>
      <point x="75" y="0" type="line"/>
      <point x="209" y="671" type="line"/>
      <point x="212" y="671" type="line"/>
      <point x="494" y="0" type="line"/>
    </contour>
    <contour>
      <point x="445" y="767" type="line"/>
      <point x="592" y="918" type="line"/>
      <point x="575" y="931" type="line"/>
      <point x="432" y="778" type="line"/>
    </contour>
  </outline>
</glyph>
<glyph name="ncedilla" format="2">
  <advance width="548"/>
  <unicode hex="0146"/>
  <outline>
    <contour>
      <point x="481" y="0" type="line"/>
      <point x="485" y="19" type="line"/>
      <point x="400" y="19" type="line"/>
      <point x="460" y="321" type="line"/>
      <point x="467" y="356"/>
      <point x="467" y="386" type="qcurve"/>
      <point x="467" y="449"/>
      <point x="399" y="518"/>
      <point x="335" y="518" type="qcurve"/>
      <point x="272" y="518"/>
      <point x="187" y="458"/>
      <point x="157" y="401" type="qcurve"/>
      <point x="154" y="401" type="line"/>
      <point x="175" y="506" type="line"/>
      <point x="154" y="506" type="line"/>
      <point x="53" y="0" type="line"/>
      <point x="74" y="0" type="line"/>
      <point x="136" y="312" type="line"/>
      <point x="152" y="384"/>
      <point x="199" y="437" type="qcurve"/>
      <point x="253" y="499"/>
      <point x="332" y="499" type="qcurve"/>
      <point x="446" y="499"/>
      <point x="446" y="383" type="qcurve"/>
      <point x="446" y="361"/>
      <point x="439" y="320" type="qcurve"/>
      <point x="380" y="25"/>
      <point x="380" y="19" type="qcurve"/>
      <point x="380" y="0"/>
      <point x="403" y="0" type="qcurve"/>
    </contour>
    <contour>
      <point x="185" y="-212" type="line"/>
      <point x="209" y="-186"/>
      <point x="241" y="-123"/>
      <point x="245" y="-99" type="qcurve"/>
      <point x="246" y="-94" type="line"/>
      <point x="247" y="-82" type="line"/>
      <point x="247" y="-66"/>
      <point x="226" y="-66" type="qcurve"/>
      <point x="213" y="-66"/>
      <point x="202" y="-77"/>
      <point x="198" y="-93"/>
      <point x="198" y="-99" type="qcurve"/>
      <point x="198" y="-115"/>
      <point x="223" y="-115" type="qcurve"/>
      <point x="213" y="-155"/>
      <point x="167" y="-212" type="qcurve"/>
    </contour>
  </outline>
</glyph>
<glyph name="napostrophe" format="2">
  <advance width="788"/>
  <unicode hex="0149"/>
  <outline>
    <contour>
      <point x="138" y="550" type="line"/>
      <point x="176" y="581"/>
      <point x="235" y="670"/>
      <point x="245" y="712" type="qcurve"/>
      <point x="248" y="724"/>
      <point x="248" y="731" type="qcurve"/>
      <point x="248" y="750"/>
      <point x="223" y="750" type="qcurve"/>
      <point x="191" y="750"/>
      <point x="191" y="711" type="qcurve"/>
      <point x="191" y="692"/>
      <point x="218" y="692" type="qcurve"/>
      <point x="198" y="621"/>
      <point x="117" y="550" type="qcurve"/>
    </contour>
    <contour>
      <point x="721" y="0" type="line"/>
      <point x="725" y="19" type="line"/>
      <point x="640" y="19" type="line"/>
      <point x="700" y="321" type="line"/>
      <point x="707" y="356"/>
      <point x="707" y="386" type="qcurve"/>
      <point x="707" y="449"/>
      <point x="639" y="518"/>
      <point x="575" y="518" type="qcurve"/>
      <point x="512" y="518"/>
      <point x="427" y="458"/>
      <point x="397" y="401" type="qcurve"/>
      <point x="394" y="401" type="line"/>
      <point x="415" y="506" type="line"/>
      <point x="394" y="506" type="line"/>
      <point x="293" y="0" type="line"/>
      <point x="314" y="0" type="line"/>
      <point x="376" y="312" type="line"/>
      <point x="392" y="384"/>
      <point x="439" y="437" type="qcurve"/>
      <point x="493" y="499"/>
      <point x="572" y="499" type="qcurve"/>
      <point x="686" y="499"/>
      <point x="686" y="383" type="qcurve"/>
      <point x="686" y="361"/>
      <point x="679" y="320" type="qcurve"/>
      <point x="620" y="25"/>
      <point x="620" y="19" type="qcurve"/>
      <point x="620" y="0"/>
      <point x="643" y="0" type="qcurve"/>
    </contour>
  </outline>
</glyph>
<glyph name="eng" format="2">
  <advance width="548"/>
  <unicode hex="014B"/>
  <outline>
    <contour>
      <point x="320" y="-200" type="line"/>
      <point x="341" y="-200"/>
      <point x="360" y="-187"/>
      <point x="363" y="-167" type="qcurve"/>
      <point x="460" y="321" type="line"/>
      <point x="467" y="356"/>
      <point x="467" y="386" type="qcurve"/>
      <point x="467" y="449"/>
      <point x="399" y="518"/>
      <point x="335" y="518" type="qcurve"/>
      <point x="272" y="518"/>
      <point x="187" y="458"/>
      <point x="157" y="401" type="qcurve"/>
      <point x="154" y="401" type="line"/>
      <point x="175" y="506" type="line"/>
      <point x="154" y="506" type="line"/>
      <point x="53" y="0" type="line"/>
      <point x="74" y="0" type="line"/>
      <point x="136" y="312" type="line"/>
      <point x="152" y="384"/>
      <point x="199" y="437" type="qcurve"/>
      <point x="253" y="499"/>
      <point x="332" y="499" type="qcurve"/>
      <point x="446" y="499"/>
      <point x="446" y="383" type="qcurve"/>
      <point x="446" y="361"/>
      <point x="439" y="320" type="qcurve"/>
      <point x="339" y="-181" type="line"/>
      <point x="254" y="-181" type="line"/>
      <point x="250" y="-200" type="line"/>
    </contour>
  </outline>
</glyph>
<glyph name="Racute" format="2">
  <advance width="630"/>
  <unicode hex="0154"/>
  <outline>
    <contour>
      <point x="368" y="778" type="line"/>
      <point x="511" y="931" type="line"/>
      <point x="528" y="918" type="line"/>
      <point x="381" y="767" type="line"/>
    </contour>
    <contour>
      <point x="484" y="0" type="line"/>
      <point x="359" y="322" type="line"/>
      <point x="141" y="322" type="line"/>
      <point x="76" y="0" type="line"/>
      <point x="54" y="0" type="line"/>
      <point x="194" y="698" type="line"/>
      <point x="445" y="698" type="line" smooth="yes"/>
      <point x="518" y="698"/>
      <point x="596" y="614"/>
      <point x="596" y="550" type="qcurve" smooth="yes"/>
      <point x="596" y="441"/>
      <point x="484" y="322"/>
      <point x="382" y="322" type="qcurve"/>
      <point x="507" y="0" type="line"/>
    </contour>
    <contour>
      <point x="388" y="342" type="line" smooth="yes"/>
      <point x="466" y="342"/>
      <point x="553" y="420"/>
      <point x="565" y="481" type="qcurve" smooth="yes"/>
      <point x="574" y="522"/>
      <point x="574" y="550" type="qcurve" smooth="yes"/>
      <point x="574" y="603"/>
      <point x="543" y="641" type="qcurve"/>
      <point x="511" y="678"/>
      <point x="443" y="678" type="qcurve" smooth="yes"/>
      <point x="211" y="678" type="line"/>
      <point x="145" y="342" type="line"/>
    </contour>
  </outline>
</glyph>
<glyph name="Rcedilla" format="2">
  <advance width="630"/>
  <unicode hex="0156"/>
  <outline>
    <contour>
      <point x="507" y="0" type="line"/>
      <point x="382" y="322" type="line"/>
      <point x="484" y="322"/>
      <point x="596" y="441"/>
      <point x="596" y="550" type="qcurve"/>
      <point x="596" y="614"/>
      <point x="518" y="698"/>
      <point x="445" y="698" type="qcurve"/>
      <point x="194" y="698" type="line"/>
      <point x="54" y="0" type="line"/>
      <point x="76" y="0" type="line"/>
      <point x="141" y="322" type="line"/>
      <point x="359" y="322" type="line"/>
      <point x="484" y="0" type="line"/>
    </contour>
    <contour>
      <point x="388" y="342" type="qcurve"/>
      <point x="145" y="342" type="line"/>
      <point x="211" y="678" type="line"/>
      <point x="443" y="678" type="line"/>
      <point x="511" y="678"/>
      <point x="543" y="641" type="qcurve"/>
      <point x="574" y="603"/>
      <point x="574" y="550" type="qcurve"/>
      <point x="574" y="522"/>
      <point x="565" y="481" type="qcurve"/>
      <point x="553" y="420"/>
      <point x="466" y="342"/>
    </contour>
    <contour>
      <point x="218" y="-212" type="line"/>
      <point x="242" y="-186"/>
      <point x="274" y="-123"/>
      <point x="278" y="-99" type="qcurve"/>
      <point x="279" y="-94" type="line"/>
      <point x="280" y="-82" type="line"/>
      <point x="280" y="-66"/>
      <point x="259" y="-66" type="qcurve"/>
      <point x="246" y="-66"/>
      <point x="235" y="-77"/>
      <point x="231" y="-93"/>
      <point x="231" y="-99" type="qcurve"/>
      <point x="231" y="-115"/>
      <point x="256" y="-115" type="qcurve"/>
      <point x="246" y="-155"/>
      <point x="200" y="-212" type="qcurve"/>
    </contour>
  </outline>
</glyph>
<glyph name="rcedilla" format="2">
  <advance width="338"/>
  <unicode hex="0157"/>
  <outline>
    <contour>
      <point x="74" y="0" type="line"/>
      <point x="132" y="293" type="line"/>
      <point x="149" y="375"/>
      <point x="199" y="431" type="qcurve"/>
      <point x="252" y="487"/>
      <point x="325" y="487" type="qcurve"/>
      <point x="354" y="487" type="line"/>
      <point x="358" y="506" type="line"/>
      <point x="328" y="506" type="line"/>
      <point x="258" y="506"/>
      <point x="220" y="474" type="qcurve"/>
      <point x="179" y="443"/>
      <point x="155" y="392" type="qcurve"/>
      <point x="152" y="392" type="line"/>
      <point x="175" y="506" type="line"/>
      <point x="154" y="506" type="line"/>
      <point x="53" y="0" type="line"/>
    </contour>
    <contour>
      <point x="10" y="-212" type="line"/>
      <point x="34" y="-186"/>
      <point x="66" y="-123"/>
      <point x="70" y="-99" type="qcurve"/>
      <point x="71" y="-94" type="line"/>
      <point x="72" y="-82" type="line"/>
      <point x="72" y="-66"/>
      <point x="51" y="-66" type="qcurve"/>
      <point x="38" y="-66"/>
      <point x="27" y="-77"/>
      <point x="23" y="-93"/>
      <point x="23" y="-99" type="qcurve"/>
      <point x="23" y="-115"/>
      <point x="48" y="-115" type="qcurve"/>
      <point x="38" y="-155"/>
      <point x="-8" y="-212" type="qcurve"/>
    </contour>
  </outline>
</glyph>
<glyph name="Rcaron" format="2">
  <advance width="630"/>
  <unicode hex="0158"/>
  <outline>
    <contour>
      <point x="380" y="783" type="line"/>
      <point x="274" y="917" type="line"/>
      <point x="289" y="927" type="line"/>
      <point x="393" y="800" type="line"/>
      <point x="541" y="927" type="line"/>
      <point x="554" y="915" type="line"/>
      <point x="404" y="783" type="line"/>
    </contour>
    <contour>
      <point x="484" y="0" type="line"/>
      <point x="359" y="322" type="line"/>
      <point x="141" y="322" type="line"/>
      <point x="76" y="0" type="line"/>
      <point x="54" y="0" type="line"/>
      <point x="194" y="698" type="line"/>
      <point x="445" y="698" type="line" smooth="yes"/>
      <point x="518" y="698"/>
      <point x="596" y="614"/>
      <point x="596" y="550" type="qcurve" smooth="yes"/>
      <point x="596" y="441"/>
      <point x="484" y="322"/>
      <point x="382" y="322" type="qcurve"/>
      <point x="507" y="0" type="line"/>
    </contour>
    <contour>
      <point x="388" y="342" type="line" smooth="yes"/>
      <point x="466" y="342"/>
      <point x="553" y="420"/>
      <point x="565" y="481" type="qcurve" smooth="yes"/>
      <point x="574" y="522"/>
      <point x="574" y="550" type="qcurve" smooth="yes"/>
      <point x="574" y="603"/>
      <point x="543" y="641" type="qcurve"/>
      <point x="511" y="678"/>
      <point x="443" y="678" type="qcurve" smooth="yes"/>
      <point x="211" y="678" type="line"/>
      <point x="145" y="342" type="line"/>
    </contour>
  </outline>
</glyph>
<glyph name="uni0162" format="2">
  <advance width="548"/>
  <unicode hex="0162"/>
  <outline>
    <contour>
      <point x="212" y="0" type="line"/>
      <point x="348" y="678" type="line"/>
      <point x="99" y="678" type="line"/>
      <point x="103" y="698" type="line"/>
      <point x="623" y="698" type="line"/>
      <point x="619" y="678" type="line"/>
      <point x="370" y="678" type="line"/>
      <point x="234" y="0" type="line"/>
    </contour>
    <contour>
      <point x="152" y="-212" type="line"/>
      <point x="198" y="-155"/>
      <point x="208" y="-115" type="qcurve"/>
      <point x="183" y="-115"/>
      <point x="183" y="-99" type="qcurve" smooth="yes"/>
      <point x="183" y="-93"/>
      <point x="187" y="-77"/>
      <point x="198" y="-66"/>
      <point x="211" y="-66" type="qcurve" smooth="yes"/>
      <point x="232" y="-66"/>
      <point x="232" y="-82" type="qcurve"/>
      <point x="230" y="-99" type="line"/>
      <point x="226" y="-123"/>
      <point x="194" y="-186"/>
      <point x="170" y="-212" type="qcurve"/>
    </contour>
  </outline>
</glyph>
<glyph name="tcedilla" format="2">
  <advance width="302"/>
  <unicode hex="0163"/>
  <outline>
    <contour>
      <point x="206" y="0" type="line"/>
      <point x="210" y="19" type="line"/>
      <point x="97" y="19" type="line"/>
      <point x="190" y="487" type="line"/>
      <point x="311" y="487" type="line"/>
      <point x="315" y="506" type="line"/>
      <point x="194" y="506" type="line"/>
      <point x="223" y="650" type="line"/>
      <point x="202" y="650" type="line"/>
      <point x="178" y="531" type="line"/>
      <point x="176" y="517"/>
      <point x="164" y="506"/>
      <point x="150" y="506" type="qcurve"/>
      <point x="78" y="506" type="line"/>
      <point x="74" y="487" type="line"/>
      <point x="169" y="487" type="line"/>
      <point x="77" y="25"/>
      <point x="77" y="19" type="qcurve"/>
      <point x="77" y="0"/>
      <point x="100" y="0" type="qcurve"/>
    </contour>
    <contour>
      <point x="85" y="-212" type="line"/>
      <point x="109" y="-186"/>
      <point x="141" y="-123"/>
      <point x="145" y="-99" type="qcurve"/>
      <point x="146" y="-94" type="line"/>
      <point x="147" y="-82" type="line"/>
      <point x="147" y="-66"/>
      <point x="126" y="-66" type="qcurve"/>
      <point x="113" y="-66"/>
      <point x="102" y="-77"/>
      <point x="98" y="-93"/>
      <point x="98" y="-99" type="qcurve"/>
      <point x="98" y="-115"/>
      <point x="123" y="-115" type="qcurve"/>
      <point x="113" y="-155"/>
      <point x="67" y="-212" type="qcurve"/>
    </contour>
  </outline>
</glyph>
<glyph name="tbar" format="2">
  <advance width="308"/>
  <unicode hex="0167"/>
  <outline>
    <contour>
      <point x="209" y="0" type="line"/>
      <point x="213" y="19" type="line"/>
      <point x="100" y="19" type="line"/>
      <point x="152" y="280" type="line"/>
      <point x="253" y="280" type="line"/>
      <point x="257" y="298" type="line"/>
      <point x="155" y="298" type="line"/>
      <point x="193" y="487" type="line"/>
      <point x="314" y="487" type="line"/>
      <point x="318" y="506" type="line"/>
      <point x="197" y="506" type="line"/>
      <point x="226" y="650" type="line"/>
      <point x="205" y="650" type="line"/>
      <point x="181" y="531" type="line"/>
      <point x="179" y="517"/>
      <point x="167" y="506"/>
      <point x="153" y="506" type="qcurve"/>
      <point x="81" y="506" type="line"/>
      <point x="77" y="487" type="line"/>
      <point x="172" y="487" type="line"/>
      <point x="134" y="298" type="line"/>
      <point x="66" y="298" type="line"/>
      <point x="62" y="280" type="line"/>
      <point x="131" y="280" type="line"/>
      <point x="80" y="25"/>
      <point x="80" y="19" type="qcurve"/>
      <point x="80" y="0"/>
      <point x="103" y="0" type="qcurve"/>
    </contour>
  </outline>
</glyph>
<glyph name="umacron" format="2">
  <advance width="548"/>
  <unicode hex="016B"/>
  <outline>
    <contour>
      <point x="208" y="658" type="line"/>
      <point x="211" y="676" type="line"/>
      <point x="469" y="676" type="line"/>
      <point x="466" y="658" type="line"/>
    </contour>
    <contour>
      <point x="206" y="-12" type="qcurve" smooth="yes"/>
      <point x="142" y="-12"/>
      <point x="74" y="57"/>
      <point x="74" y="120" type="qcurve" smooth="yes"/>
      <point x="74" y="150"/>
      <point x="81" y="185" type="qcurve" smooth="yes"/>
      <point x="145" y="506" type="line"/>
      <point x="166" y="506" type="line"/>
      <point x="102" y="186" type="line"/>
      <point x="95" y="145"/>
      <point x="95" y="123" type="qcurve" smooth="yes"/>
      <point x="95" y="7"/>
      <point x="209" y="7" type="qcurve" smooth="yes"/>
      <point x="288" y="7"/>
      <point x="342" y="69" type="qcurve" smooth="yes"/>
      <point x="389" y="122"/>
      <point x="405" y="194" type="qcurve"/>
      <point x="467" y="506" type="line"/>
      <point x="488" y="506" type="line"/>
      <point x="391" y="19" type="line"/>
      <point x="476" y="19" type="line"/>
      <point x="472" y="0" type="line"/>
      <point x="394" y="0" type="line" smooth="yes"/>
      <point x="371" y="0"/>
      <point x="371" y="19" type="qcurve" smooth="yes"/>
      <point x="371" y="25"/>
      <point x="387" y="105" type="qcurve"/>
      <point x="384" y="105" type="line"/>
      <point x="355" y="48"/>
      <point x="269" y="-12"/>
    </contour>
  </outline>
</glyph>
<glyph name="Ubreve" format="2">
  <advance width="639"/>
  <unicode hex="016C"/>
  <outline>
    <contour>
      <point x="273" y="-12" type="qcurve"/>
      <point x="398" y="-12"/>
      <point x="516" y="112"/>
      <point x="545" y="270" type="qcurve"/>
      <point x="631" y="698" type="line"/>
      <point x="609" y="698" type="line"/>
      <point x="523" y="271" type="line"/>
      <point x="496" y="124"/>
      <point x="387" y="8"/>
      <point x="273" y="8" type="qcurve"/>
      <point x="104" y="8"/>
      <point x="104" y="148" type="qcurve"/>
      <point x="104" y="171"/>
      <point x="109" y="199" type="qcurve"/>
      <point x="112" y="221"/>
      <point x="207" y="698" type="qcurve"/>
      <point x="185" y="698" type="line"/>
      <point x="97" y="256" type="line"/>
      <point x="82" y="197"/>
      <point x="82" y="148" type="qcurve"/>
      <point x="82" y="68"/>
      <point x="182" y="-12"/>
    </contour>
    <contour>
      <point x="426" y="786" type="qcurve"/>
      <point x="479" y="786"/>
      <point x="539" y="847"/>
      <point x="571" y="899" type="qcurve"/>
      <point x="574" y="903" type="line"/>
      <point x="558" y="910" type="line"/>
      <point x="533" y="874" type="line"/>
      <point x="507" y="836"/>
      <point x="460" y="805"/>
      <point x="426" y="805" type="qcurve"/>
      <point x="365" y="805"/>
      <point x="342" y="873" type="qcurve"/>
      <point x="327" y="910" type="line"/>
      <point x="311" y="903" type="line"/>
      <point x="328" y="847"/>
      <point x="377" y="786"/>
    </contour>
  </outline>
</glyph>
<glyph name="ubreve" format="2">
  <advance width="548"/>
  <unicode hex="016D"/>
  <outline>
    <contour>
      <point x="206" y="-12" type="qcurve"/>
      <point x="269" y="-12"/>
      <point x="355" y="48"/>
      <point x="384" y="105" type="qcurve"/>
      <point x="387" y="105" type="line"/>
      <point x="371" y="25"/>
      <point x="371" y="19" type="qcurve"/>
      <point x="371" y="0"/>
      <point x="394" y="0" type="qcurve"/>
      <point x="472" y="0" type="line"/>
      <point x="476" y="19" type="line"/>
      <point x="391" y="19" type="line"/>
      <point x="488" y="506" type="line"/>
      <point x="467" y="506" type="line"/>
      <point x="405" y="194" type="line"/>
      <point x="389" y="122"/>
      <point x="342" y="69" type="qcurve"/>
      <point x="288" y="7"/>
      <point x="209" y="7" type="qcurve"/>
      <point x="95" y="7"/>
      <point x="95" y="123" type="qcurve"/>
      <point x="95" y="145"/>
      <point x="102" y="186" type="qcurve"/>
      <point x="166" y="506" type="line"/>
      <point x="145" y="506" type="line"/>
      <point x="81" y="185" type="line"/>
      <point x="74" y="150"/>
      <point x="74" y="120" type="qcurve"/>
      <point x="74" y="57"/>
      <point x="142" y="-12"/>
    </contour>
    <contour>
      <point x="329" y="606" type="qcurve"/>
      <point x="382" y="606"/>
      <point x="442" y="667"/>
      <point x="474" y="719" type="qcurve"/>
      <point x="477" y="723" type="line"/>
      <point x="461" y="730" type="line"/>
      <point x="436" y="694" type="line"/>
      <point x="410" y="656"/>
      <point x="363" y="625"/>
      <point x="329" y="625" type="qcurve"/>
      <point x="268" y="625"/>
      <point x="245" y="693" type="qcurve"/>
      <point x="230" y="730" type="line"/>
      <point x="214" y="723" type="line"/>
      <point x="231" y="667"/>
      <point x="280" y="606"/>
    </contour>
  </outline>
</glyph>
<glyph name="uring" format="2">
  <advance width="548"/>
  <unicode hex="016F"/>
  <outline>
    <contour>
      <point x="324" y="589" type="qcurve" smooth="yes"/>
      <point x="281" y="589"/>
      <point x="248" y="637"/>
      <point x="248" y="661" type="qcurve" smooth="yes"/>
      <point x="248" y="711"/>
      <point x="305" y="771"/>
      <point x="353" y="771" type="qcurve" smooth="yes"/>
      <point x="414" y="771"/>
      <point x="426" y="724" type="qcurve" smooth="yes"/>
      <point x="430" y="711"/>
      <point x="430" y="699" type="qcurve" smooth="yes"/>
      <point x="430" y="649"/>
      <point x="372" y="589"/>
    </contour>
    <contour>
      <point x="328" y="607" type="qcurve" smooth="yes"/>
      <point x="359" y="607"/>
      <point x="402" y="641"/>
      <point x="408" y="673" type="qcurve" smooth="yes"/>
      <point x="410" y="687"/>
      <point x="412" y="696"/>
      <point x="412" y="700" type="qcurve" smooth="yes"/>
      <point x="412" y="724"/>
      <point x="381" y="753"/>
      <point x="349" y="753" type="qcurve" smooth="yes"/>
      <point x="319" y="753"/>
      <point x="276" y="719"/>
      <point x="270" y="687" type="qcurve"/>
      <point x="269" y="674"/>
      <point x="266" y="667"/>
      <point x="266" y="660" type="qcurve"/>
      <point x="267" y="607"/>
    </contour>
    <contour>
      <point x="206" y="-12" type="qcurve" smooth="yes"/>
      <point x="142" y="-12"/>
      <point x="74" y="57"/>
      <point x="74" y="120" type="qcurve" smooth="yes"/>
      <point x="74" y="150"/>
      <point x="81" y="185" type="qcurve" smooth="yes"/>
      <point x="145" y="506" type="line"/>
      <point x="166" y="506" type="line"/>
      <point x="102" y="186" type="line"/>
      <point x="95" y="145"/>
      <point x="95" y="123" type="qcurve" smooth="yes"/>
      <point x="95" y="7"/>
      <point x="209" y="7" type="qcurve" smooth="yes"/>
      <point x="288" y="7"/>
      <point x="342" y="69" type="qcurve" smooth="yes"/>
      <point x="389" y="122"/>
      <point x="405" y="194" type="qcurve"/>
      <point x="467" y="506" type="line"/>
      <point x="488" y="506" type="line"/>
      <point x="391" y="19" type="line"/>
      <point x="476" y="19" type="line"/>
      <point x="472" y="0" type="line"/>
      <point x="394" y="0" type="line" smooth="yes"/>
      <point x="371" y="0"/>
      <point x="371" y="19" type="qcurve" smooth="yes"/>
      <point x="371" y="25"/>
      <point x="387" y="105" type="qcurve"/>
      <point x="384" y="105" type="line"/>
      <point x="355" y="48"/>
      <point x="269" y="-12"/>
    </contour>
  </outline>
</glyph>
<glyph name="uogonek" format="2">
  <advance width="548"/>
  <unicode hex="0173"/>
  <outline>
    <contour>
      <point x="375" y="-202" type="qcurve" smooth="yes"/>
      <point x="344" y="-202"/>
      <point x="303" y="-170"/>
      <point x="303" y="-136" type="qcurve" smooth="yes"/>
      <point x="303" y="-106"/>
      <point x="360" y="-44"/>
      <point x="442" y="-3" type="qcurve"/>
      <point x="441" y="0" type="line"/>
      <point x="395" y="0" type="line" smooth="yes"/>
      <point x="371" y="0"/>
      <point x="371" y="19" type="qcurve" smooth="yes"/>
      <point x="371" y="25"/>
      <point x="387" y="105" type="qcurve"/>
      <point x="384" y="105" type="line"/>
      <point x="355" y="48"/>
      <point x="269" y="-12"/>
      <point x="206" y="-12" type="qcurve" smooth="yes"/>
      <point x="142" y="-12"/>
      <point x="74" y="57"/>
      <point x="74" y="120" type="qcurve" smooth="yes"/>
      <point x="74" y="150"/>
      <point x="81" y="185" type="qcurve" smooth="yes"/>
      <point x="145" y="506" type="line"/>
      <point x="166" y="506" type="line"/>
      <point x="102" y="186" type="line"/>
      <point x="95" y="145"/>
      <point x="95" y="123" type="qcurve" smooth="yes"/>
      <point x="95" y="7"/>
      <point x="209" y="7" type="qcurve" smooth="yes"/>
      <point x="288" y="7"/>
      <point x="342" y="69" type="qcurve" smooth="yes"/>
      <point x="389" y="122"/>
      <point x="405" y="194" type="qcurve"/>
      <point x="467" y="506" type="line"/>
      <point x="488" y="506" type="line"/>
      <point x="391" y="19" type="line"/>
      <point x="476" y="19" type="line"/>
      <point x="472" y="0" type="line"/>
      <point x="395" y="-42"/>
      <point x="324" y="-98"/>
      <point x="324" y="-136" type="qcurve" smooth="yes"/>
      <point x="324" y="-160"/>
      <point x="353" y="-184"/>
      <point x="375" y="-184" type="qcurve" smooth="yes"/>
      <point x="416" y="-184"/>
      <point x="440" y="-159" type="qcurve"/>
      <point x="453" y="-170" type="line"/>
      <point x="428" y="-202"/>
    </contour>
  </outline>
</glyph>
<glyph name="Wcircumflex" format="2">
  <advance width="864"/>
  <unicode hex="0174"/>
  <outline>
    <contour>
      <point x="600" y="0" type="line"/>
      <point x="929" y="698" type="line"/>
      <point x="905" y="698" type="line"/>
      <point x="592" y="31" type="line"/>
      <point x="589" y="31" type="line"/>
      <point x="538" y="698" type="line"/>
      <point x="507" y="698" type="line"/>
      <point x="184" y="31" type="line"/>
      <point x="181" y="31" type="line"/>
      <point x="143" y="698" type="line"/>
      <point x="121" y="698" type="line"/>
      <point x="161" y="0" type="line"/>
      <point x="192" y="0" type="line"/>
      <point x="516" y="668" type="line"/>
      <point x="519" y="668" type="line"/>
      <point x="569" y="0" type="line"/>
    </contour>
    <contour>
      <point x="669" y="779" type="line"/>
      <point x="684" y="789" type="line"/>
      <point x="578" y="923" type="line"/>
      <point x="554" y="923" type="line"/>
      <point x="404" y="791" type="line"/>
      <point x="417" y="779" type="line"/>
      <point x="565" y="906" type="line"/>
    </contour>
  </outline>
</glyph>
<glyph name="wcircumflex" format="2">
  <advance width="718"/>
  <unicode hex="0175"/>
  <outline>
    <contour>
      <point x="476" y="0" type="line"/>
      <point x="732" y="506" type="line"/>
      <point x="710" y="506" type="line"/>
      <point x="469" y="27" type="line"/>
      <point x="467" y="27" type="line"/>
      <point x="416" y="506" type="line"/>
      <point x="394" y="506" type="line"/>
      <point x="149" y="27" type="line"/>
      <point x="146" y="27" type="line"/>
      <point x="98" y="506" type="line"/>
      <point x="78" y="506" type="line"/>
      <point x="130" y="0" type="line"/>
      <point x="156" y="0" type="line"/>
      <point x="398" y="472" type="line"/>
      <point x="401" y="472" type="line"/>
      <point x="450" y="0" type="line"/>
    </contour>
    <contour>
      <point x="553" y="599" type="line"/>
      <point x="568" y="609" type="line"/>
      <point x="462" y="743" type="line"/>
      <point x="438" y="743" type="line"/>
      <point x="288" y="611" type="line"/>
      <point x="301" y="599" type="line"/>
      <point x="449" y="726" type="line"/>
    </contour>
  </outline>
</glyph>
<glyph name="zdotaccent" format="2">
  <advance width="430"/>
  <unicode hex="017C"/>
  <outline>
    <contour>
      <point x="285" y="642" type="qcurve" smooth="yes"/>
      <point x="265" y="642"/>
      <point x="265" y="659" type="qcurve" smooth="yes"/>
      <point x="265" y="665"/>
      <point x="270" y="680"/>
      <point x="279" y="691"/>
      <point x="291" y="691" type="qcurve" smooth="yes"/>
      <point x="311" y="691"/>
      <point x="311" y="674" type="qcurve" smooth="yes"/>
      <point x="311" y="642"/>
    </contour>
    <contour>
      <point x="-1" y="0" type="line"/>
      <point x="3" y="20" type="line"/>
      <point x="402" y="487" type="line"/>
      <point x="92" y="487" type="line"/>
      <point x="96" y="506" type="line"/>
      <point x="430" y="506" type="line"/>
      <point x="426" y="486" type="line"/>
      <point x="28" y="19" type="line"/>
      <point x="350" y="19" type="line"/>
      <point x="346" y="0" type="line"/>
    </contour>
  </outline>
</glyph>
<glyph name="Zcaron" format="2">
  <advance width="543"/>
  <unicode hex="017D"/>
  <outline>
    <contour>
      <point x="462" y="0" type="line"/>
      <point x="466" y="20" type="line"/>
      <point x="9" y="20" type="line"/>
      <point x="576" y="676" type="line"/>
      <point x="581" y="698" type="line"/>
      <point x="141" y="698" type="line"/>
      <point x="137" y="678" type="line"/>
      <point x="550" y="678" type="line"/>
      <point x="-17" y="22" type="line"/>
      <point x="-22" y="0" type="line"/>
    </contour>
    <contour>
      <point x="390" y="783" type="line"/>
      <point x="540" y="915" type="line"/>
      <point x="527" y="927" type="line"/>
      <point x="379" y="800" type="line"/>
      <point x="275" y="927" type="line"/>
      <point x="260" y="917" type="line"/>
      <point x="366" y="783" type="line"/>
    </contour>
  </outline>
</glyph>
<glyph name="florin" format="2">
  <advance width="488"/>
  <unicode hex="0192"/>
  <outline>
    <contour>
      <point x="-84" y="-134" type="line"/>
      <point x="-78" y="-115" type="line"/>
      <point x="100" y="-115" type="line"/>
      <point x="227" y="311" type="line"/>
      <point x="54" y="311" type="line"/>
      <point x="60" y="330" type="line"/>
      <point x="233" y="330" type="line"/>
      <point x="333" y="665" type="line" smooth="yes"/>
      <point x="338" y="683"/>
      <point x="353" y="698"/>
      <point x="374" y="698" type="qcurve" smooth="yes"/>
      <point x="549" y="698" type="line"/>
      <point x="543" y="679" type="line"/>
      <point x="358" y="679" type="line"/>
      <point x="254" y="330" type="line"/>
      <point x="464" y="330" type="line"/>
      <point x="458" y="311" type="line"/>
      <point x="248" y="311" type="line"/>
      <point x="125" y="-101" type="line" smooth="yes"/>
      <point x="120" y="-119"/>
      <point x="105" y="-134"/>
      <point x="84" y="-134" type="qcurve" smooth="yes"/>
    </contour>
  </outline>
</glyph>
<glyph name="AEacute" format="2">
  <advance width="884"/>
  <unicode hex="01FC"/>
  <outline>
    <contour>
      <point x="763" y="0" type="line"/>
      <point x="767" y="20" type="line"/>
      <point x="411" y="20" type="line"/>
      <point x="476" y="344" type="line"/>
      <point x="820" y="344" type="line"/>
      <point x="824" y="364" type="line"/>
      <point x="480" y="364" type="line"/>
      <point x="543" y="678" type="line"/>
      <point x="899" y="678" type="line"/>
      <point x="903" y="698" type="line"/>
      <point x="502" y="698" type="line"/>
      <point x="-21" y="0" type="line"/>
      <point x="4" y="0" type="line"/>
      <point x="180" y="234" type="line"/>
      <point x="432" y="234" type="line"/>
      <point x="385" y="0" type="line"/>
    </contour>
    <contour>
      <point x="436" y="253" type="line"/>
      <point x="194" y="253" type="line"/>
      <point x="511" y="678" type="line"/>
      <point x="521" y="678" type="line"/>
    </contour>
    <contour>
      <point x="579" y="767" type="line"/>
      <point x="726" y="918" type="line"/>
      <point x="709" y="931" type="line"/>
      <point x="566" y="778" type="line"/>
    </contour>
  </outline>
</glyph>
<glyph name="aeacute" format="2">
  <advance width="860"/>
  <unicode hex="01FD"/>
  <outline>
    <contour>
      <point x="470" y="598" type="line"/>
      <point x="613" y="751" type="line"/>
      <point x="630" y="738" type="line"/>
      <point x="483" y="587" type="line"/>
    </contour>
    <contour>
      <point x="592" y="-12" type="qcurve" smooth="yes"/>
      <point x="523" y="-12"/>
      <point x="432" y="66"/>
      <point x="421" y="138" type="qcurve"/>
      <point x="418" y="138" type="line"/>
      <point x="400" y="70"/>
      <point x="282" y="-12"/>
      <point x="202" y="-12" type="qcurve"/>
      <point x="47" y="-9"/>
      <point x="47" y="103" type="qcurve" smooth="yes"/>
      <point x="47" y="178"/>
      <point x="142" y="247"/>
      <point x="241" y="252" type="qcurve" smooth="yes"/>
      <point x="424" y="261" type="line"/>
      <point x="437" y="329" type="line" smooth="yes"/>
      <point x="442" y="359"/>
      <point x="442" y="381" type="qcurve" smooth="yes"/>
      <point x="442" y="429"/>
      <point x="414" y="464" type="qcurve"/>
      <point x="380" y="499"/>
      <point x="307" y="499" type="qcurve" smooth="yes"/>
      <point x="240" y="499"/>
      <point x="162" y="452"/>
      <point x="132" y="402" type="qcurve"/>
      <point x="115" y="411" type="line"/>
      <point x="144" y="462"/>
      <point x="230" y="518"/>
      <point x="309" y="518" type="qcurve" smooth="yes"/>
      <point x="389" y="518"/>
      <point x="461" y="443"/>
      <point x="462" y="387" type="qcurve"/>
      <point x="465" y="387" type="line"/>
      <point x="496" y="447"/>
      <point x="595" y="518"/>
      <point x="663" y="518" type="qcurve" smooth="yes"/>
      <point x="735" y="518"/>
      <point x="821" y="455"/>
      <point x="821" y="399" type="qcurve" smooth="yes"/>
      <point x="821" y="334"/>
      <point x="755" y="297" type="qcurve"/>
      <point x="681" y="251"/>
      <point x="442" y="243" type="qcurve"/>
      <point x="440" y="230" type="line" smooth="yes"/>
      <point x="436" y="206"/>
      <point x="436" y="190" type="qcurve" smooth="yes"/>
      <point x="436" y="106"/>
      <point x="514" y="7"/>
      <point x="592" y="7" type="qcurve" smooth="yes"/>
      <point x="717" y="7"/>
      <point x="781" y="132" type="qcurve"/>
      <point x="800" y="125" type="line"/>
      <point x="724" y="-12"/>
    </contour>
    <contour>
      <point x="444" y="262" type="line"/>
      <point x="664" y="268"/>
      <point x="735" y="309" type="qcurve"/>
      <point x="799" y="343"/>
      <point x="799" y="399" type="qcurve" smooth="yes"/>
      <point x="799" y="444"/>
      <point x="734" y="499"/>
      <point x="661" y="499" type="qcurve" smooth="yes"/>
      <point x="577" y="499"/>
      <point x="464" y="371"/>
      <point x="446" y="273" type="qcurve" smooth="yes"/>
    </contour>
    <contour>
      <point x="204" y="7" type="qcurve" smooth="yes"/>
      <point x="272" y="7"/>
      <point x="390" y="85"/>
      <point x="406" y="162" type="qcurve"/>
      <point x="420" y="243" type="line"/>
      <point x="240" y="234" type="line"/>
      <point x="157" y="229"/>
      <point x="80" y="182"/>
      <point x="73" y="143" type="qcurve" smooth="yes"/>
      <point x="68" y="119"/>
      <point x="68" y="102" type="qcurve"/>
      <point x="72" y="7"/>
    </contour>
  </outline>
</glyph>
<glyph name="commaturnedmod" format="2">
  <advance width="600"/>
  <unicode hex="02BB"/>
  <outline>
    <contour>
      <point x="312" y="599" type="qcurve"/>
      <point x="326" y="599"/>
      <point x="336" y="610"/>
      <point x="340" y="626"/>
      <point x="340" y="632" type="qcurve"/>
      <point x="340" y="648"/>
      <point x="315" y="648" type="qcurve"/>
      <point x="325" y="688"/>
      <point x="371" y="745" type="qcurve"/>
      <point x="353" y="745" type="line"/>
      <point x="329" y="719"/>
      <point x="297" y="656"/>
      <point x="293" y="632" type="qcurve"/>
      <point x="292" y="627" type="line"/>
      <point x="291" y="615" type="line"/>
      <point x="291" y="599"/>
    </contour>
  </outline>
</glyph>
<glyph name="caronmod" format="2">
  <advance width="600"/>
  <unicode hex="02C7"/>
  <outline>
    <contour>
      <point x="323" y="603" type="line"/>
      <point x="473" y="735" type="line"/>
      <point x="460" y="747" type="line"/>
      <point x="312" y="620" type="line"/>
      <point x="208" y="747" type="line"/>
      <point x="193" y="737" type="line"/>
      <point x="299" y="603" type="line"/>
    </contour>
  </outline>
</glyph>
<glyph name="brevemod" format="2">
  <advance width="600"/>
  <unicode hex="02D8"/>
  <outline>
    <contour>
      <point x="314" y="606" type="qcurve"/>
      <point x="367" y="606"/>
      <point x="427" y="667"/>
      <point x="459" y="719" type="qcurve"/>
      <point x="462" y="723" type="line"/>
      <point x="446" y="730" type="line"/>
      <point x="421" y="694" type="line"/>
      <point x="395" y="656"/>
      <point x="348" y="625"/>
      <point x="314" y="625" type="qcurve"/>
      <point x="253" y="625"/>
      <point x="230" y="693" type="qcurve"/>
      <point x="215" y="730" type="line"/>
      <point x="199" y="723" type="line"/>
      <point x="216" y="667"/>
      <point x="265" y="606"/>
    </contour>
  </outline>
</glyph>
<glyph name="dotaccentmod" format="2">
  <advance width="600"/>
  <unicode hex="02D9"/>
  <outline>
    <contour>
      <point x="321" y="642" type="qcurve"/>
      <point x="347" y="642"/>
      <point x="347" y="674" type="qcurve"/>
      <point x="347" y="691"/>
      <point x="327" y="691" type="qcurve"/>
      <point x="315" y="691"/>
      <point x="306" y="680"/>
      <point x="301" y="665"/>
      <point x="301" y="659" type="qcurve"/>
      <point x="301" y="642"/>
    </contour>
  </outline>
</glyph>
<glyph name="ogonekmod" format="2">
  <advance width="600"/>
  <unicode hex="02DB"/>
  <outline>
    <contour>
      <point x="206" y="-202" type="qcurve"/>
      <point x="259" y="-202"/>
      <point x="284" y="-170" type="qcurve"/>
      <point x="271" y="-159" type="line"/>
      <point x="247" y="-184"/>
      <point x="206" y="-184" type="qcurve"/>
      <point x="184" y="-184"/>
      <point x="155" y="-160"/>
      <point x="155" y="-136" type="qcurve"/>
      <point x="155" y="-98"/>
      <point x="226" y="-42"/>
      <point x="303" y="0" type="qcurve"/>
      <point x="299" y="16" type="line"/>
      <point x="274" y="12" type="line"/>
      <point x="277" y="0" type="line"/>
      <point x="191" y="-41"/>
      <point x="134" y="-107"/>
      <point x="134" y="-136" type="qcurve"/>
      <point x="134" y="-170"/>
      <point x="175" y="-202"/>
    </contour>
  </outline>
</glyph>
<glyph name="tilde" format="2">
  <advance width="600"/>
  <unicode hex="02DC"/>
  <outline>
    <contour>
      <point x="389" y="628" type="qcurve" smooth="yes"/>
      <point x="369" y="628"/>
      <point x="340" y="643"/>
      <point x="317" y="659" type="qcurve" smooth="yes"/>
      <point x="299" y="672"/>
      <point x="270" y="684"/>
      <point x="253" y="684" type="qcurve" smooth="yes"/>
      <point x="222" y="684"/>
      <point x="184" y="651" type="qcurve"/>
      <point x="173" y="663" type="line"/>
      <point x="216" y="702"/>
      <point x="258" y="702" type="qcurve" smooth="yes"/>
      <point x="278" y="702"/>
      <point x="308" y="688"/>
      <point x="330" y="672" type="qcurve" smooth="yes"/>
      <point x="348" y="659"/>
      <point x="377" y="646"/>
      <point x="394" y="646" type="qcurve" smooth="yes"/>
      <point x="429" y="646"/>
      <point x="463" y="679" type="qcurve"/>
      <point x="474" y="667" type="line"/>
      <point x="431" y="628"/>
    </contour>
  </outline>
</glyph>
<glyph name="gravecomb" format="2">
  <advance width="0"/>
  <unicode hex="0300"/>
  <outline>
    <contour>
      <point x="20" y="587" type="line"/>
      <point x="36" y="596" type="line"/>
      <point x="-45" y="751" type="line"/>
      <point x="-64" y="740" type="line"/>
    </contour>
  </outline>
</glyph>
<glyph name="acutecomb" format="2">
  <unicode hex="0301"/>
  <outline>
    <contour>
      <point x="-24" y="598" type="line"/>
      <point x="119" y="751" type="line"/>
      <point x="136" y="738" type="line"/>
      <point x="-11" y="587" type="line"/>
    </contour>
  </outline>
</glyph>
<glyph name="tildecomb" format="2">
  <advance width="0"/>
  <unicode hex="0303"/>
  <outline>
    <contour>
      <point x="90" y="628" type="qcurve"/>
      <point x="132" y="628"/>
      <point x="175" y="667" type="qcurve"/>
      <point x="164" y="679" type="line"/>
      <point x="130" y="646"/>
      <point x="95" y="646" type="qcurve"/>
      <point x="78" y="646"/>
      <point x="49" y="659"/>
      <point x="31" y="672" type="qcurve"/>
      <point x="9" y="688"/>
      <point x="-21" y="702"/>
      <point x="-41" y="702" type="qcurve"/>
      <point x="-83" y="702"/>
      <point x="-126" y="663" type="qcurve"/>
      <point x="-115" y="651" type="line"/>
      <point x="-77" y="684"/>
      <point x="-46" y="684" type="qcurve"/>
      <point x="-29" y="684"/>
      <point x="0" y="672"/>
      <point x="18" y="659" type="qcurve"/>
      <point x="41" y="643"/>
      <point x="70" y="628"/>
    </contour>
  </outline>
</glyph>
